<?xml version="1.0" encoding="utf-8"?>
<!-- Generator: Adobe Illustrator 15.0.0, SVG Export Plug-In . SVG Version: 6.00 Build 0)  -->
<!DOCTYPE svg PUBLIC "-//W3C//DTD SVG 1.1//EN" "http://www.w3.org/Graphics/SVG/1.1/DTD/svg11.dtd">
<svg version="1.1" id="Layer_1" xmlns="http://www.w3.org/2000/svg" xmlns:xlink="http://www.w3.org/1999/xlink" x="0px" y="0px"
	 width="316px" height="216px" viewBox="0 0 316 216" enable-background="new 0 0 316 216" xml:space="preserve">
<g id="A1">
	<polygon fill="none" stroke="#010101" stroke-width="3" stroke-miterlimit="10" points="106.2,188.16 71.447,208.212 
		36.694,188.16 36.694,148.059 71.447,128.008 106.2,148.059 	"/>
	<polygon fill="none" stroke="#010101" stroke-width="3" stroke-miterlimit="10" points="175.705,188.16 140.952,208.212 
		106.2,188.16 106.2,148.059 140.952,128.008 175.705,148.059 	"/>
	<polygon fill="none" stroke="#010101" stroke-width="3" stroke-miterlimit="10" points="245.189,188.165 210.437,208.217 
		175.684,188.165 175.684,148.063 210.437,128.013 245.189,148.063 	"/>
	<polygon fill="none" stroke="#010101" stroke-width="3" stroke-miterlimit="10" points="140.952,128.134 106.2,148.186 
		71.447,128.134 71.447,88.032 106.2,67.981 140.952,88.032 	"/>
	<polygon fill="none" stroke="#010101" stroke-width="3" stroke-miterlimit="10" points="210.458,128.134 175.705,148.186 
		140.952,128.134 140.952,88.032 175.705,67.981 210.458,88.032 	"/>
	<polygon fill="#FFFFFF" stroke="#010101" stroke-width="3" stroke-miterlimit="10" points="279.963,128.134 245.209,148.186 
		210.458,128.134 210.458,88.032 245.209,67.981 279.963,88.032 	"/>
	<polygon fill="none" stroke="#010101" stroke-width="3" stroke-miterlimit="10" points="106.2,68.106 71.447,88.157 36.694,68.106 
		36.694,28.005 71.447,7.955 106.2,28.005 	"/>
	<polygon fill="none" stroke="#010101" stroke-width="3" stroke-miterlimit="10" points="175.705,68.106 140.952,88.157 
		106.2,68.106 106.2,28.005 140.952,7.955 175.705,28.005 	"/>
	<polygon fill="none" stroke="#010101" stroke-width="3" stroke-miterlimit="10" points="245.209,68.106 210.458,88.157 
		175.705,68.106 175.705,28.005 210.458,7.955 245.209,28.005 	"/>
	
		<text transform="matrix(1 0 0 1 76.2578 110.0078)" display="none" fill="#010101" enable-background="new    " font-family="'MyriadPro-Regular'" font-size="12.2863">A1</text>
</g>
</svg>
