<?xml version="1.0" encoding="utf-8"?>
<!-- Generator: Adobe Illustrator 15.0.0, SVG Export Plug-In . SVG Version: 6.00 Build 0)  -->
<!DOCTYPE svg PUBLIC "-//W3C//DTD SVG 1.1//EN" "http://www.w3.org/Graphics/SVG/1.1/DTD/svg11.dtd">
<svg version="1.1" id="Layer_1" xmlns="http://www.w3.org/2000/svg" xmlns:xlink="http://www.w3.org/1999/xlink" x="0px" y="0px"
	 width="316px" height="216px" viewBox="0 0 316 216" enable-background="new 0 0 316 216" xml:space="preserve">
<g id="A1">
	<polygon fill="none" stroke="#010101" stroke-width="3" stroke-miterlimit="10" points="210.456,28.012 245.21,7.96 
		279.963,28.012 279.963,68.113 245.21,88.164 210.456,68.113 	"/>
	<polygon fill="none" stroke="#010101" stroke-width="3" stroke-miterlimit="10" points="140.951,28.012 175.704,7.96 
		210.456,28.012 210.456,68.113 175.704,88.164 140.951,68.113 	"/>
	<polygon fill="none" stroke="#010101" stroke-width="3" stroke-miterlimit="10" points="71.467,28.007 106.219,7.955 
		140.973,28.007 140.973,68.109 106.219,88.158 71.467,68.109 	"/>
	<polygon fill="none" stroke="#010101" stroke-width="3" stroke-miterlimit="10" points="175.704,88.038 210.456,67.986 
		245.21,88.038 245.21,128.14 210.456,148.19 175.704,128.14 	"/>
	<polygon fill="none" stroke="#010101" stroke-width="3" stroke-miterlimit="10" points="106.198,88.038 140.951,67.986 
		175.704,88.038 175.704,128.14 140.951,148.19 106.198,128.14 	"/>
	<polygon fill="#FFFFFF" stroke="#010101" stroke-width="3" stroke-miterlimit="10" points="36.693,88.038 71.447,67.986 
		106.198,88.038 106.198,128.14 71.447,148.19 36.693,128.14 	"/>
	<polygon fill="none" stroke="#010101" stroke-width="3" stroke-miterlimit="10" points="210.456,148.065 245.21,128.015 
		279.963,148.065 279.963,188.167 245.21,208.217 210.456,188.167 	"/>
	<polygon fill="none" stroke="#010101" stroke-width="3" stroke-miterlimit="10" points="140.951,148.065 175.704,128.015 
		210.456,148.065 210.456,188.167 175.704,208.217 140.951,188.167 	"/>
	<polygon fill="none" stroke="#010101" stroke-width="3" stroke-miterlimit="10" points="71.447,148.065 106.198,128.015 
		140.951,148.065 140.951,188.167 106.198,208.217 71.447,188.167 	"/>
	
		<text transform="matrix(-1 0 0 -1 240.3984 106.1641)" display="none" fill="#010101" enable-background="new    " font-family="'MyriadPro-Regular'" font-size="12.2863">A1</text>
</g>
</svg>
