<?xml version="1.0" encoding="utf-8"?>
<!-- Generator: Adobe Illustrator 19.0.0, SVG Export Plug-In . SVG Version: 6.00 Build 0)  -->
<svg version="1.1" id="Layer_1" xmlns="http://www.w3.org/2000/svg" xmlns:xlink="http://www.w3.org/1999/xlink" x="0px" y="0px"
	 viewBox="0 0 612 621.5" style="enable-background:new 0 0 612 621.5;" xml:space="preserve">
<style type="text/css">
	.st0{fill:none;stroke:#000000;stroke-width:3;stroke-miterlimit:10;}
</style>
<g id="A6_12_">
	<polygon class="st0" points="384.7,97.3 497.3,77.5 570.8,165.1 531.7,272.4 419.1,292.2 345.6,204.7 	"/>
	<polygon class="st0" points="198.7,29.6 311.3,9.8 384.8,97.4 345.7,204.7 233.1,224.5 159.6,137 	"/>
	<polygon class="st0" points="419.3,291.9 531.8,272.1 605.3,359.6 566.3,467 453.7,486.8 380.2,399.2 	"/>
	<polygon class="st0" points="233.2,224.2 345.8,204.4 419.3,291.9 380.2,399.2 267.6,419.1 194.1,331.5 	"/>
	<polygon class="st0" points="47.1,156.5 159.7,136.6 233.2,224.2 194.1,331.5 81.6,351.3 8.1,263.8 	"/>
	<polygon class="st0" points="267.7,418.7 380.3,398.9 453.8,486.4 414.7,593.8 302.2,613.6 228.7,526.1 	"/>
	<polygon class="st0" points="81.7,351 194.3,331.2 267.7,418.7 228.7,526.1 116.1,545.9 42.6,458.3 	"/>
</g>
</svg>
