<svg id="svg" xmlns="http://www.w3.org/2000/svg" xmlns:xlink="http://www.w3.org/1999/xlink" width="400" height="259.8425196850394" viewBox="0, 0, 400,259.8425196850394"><g id="svgg"><path id="path0" d="M183.493 73.874 L 150.451 103.609 139.631 98.160 C 133.680 95.163,128.651 92.934,128.455 93.206 C 128.260 93.478,120.798 103.976,111.874 116.535 C 102.950 129.094,95.448 139.605,95.203 139.891 C 94.958 140.178,93.103 139.607,91.080 138.623 C 88.014 137.132,88.120 137.393,91.715 140.189 C 94.087 142.035,98.930 147.681,102.477 152.738 C 107.309 159.626,110.767 162.728,116.274 165.111 C 120.315 166.860,127.874 170.244,133.071 172.631 L 142.520 176.972 137.393 177.856 L 132.266 178.740 144.931 199.811 C 151.896 211.400,157.393 221.037,157.144 221.227 C 156.896 221.417,148.787 212.936,139.124 202.381 C 128.100 190.339,116.660 179.712,108.415 173.853 C 95.282 164.519,79.675 141.934,80.779 133.858 C 81.724 126.947,74.072 136.130,39.442 183.465 L 1.422 235.433 199.392 235.833 C 308.276 236.053,397.629 235.966,397.955 235.641 C 398.442 235.154,342.521 154.742,329.703 137.498 L 325.971 132.476 314.678 136.317 C 308.467 138.429,302.547 140.157,301.522 140.157 C 300.497 140.157,290.877 124.219,280.144 104.738 C 269.411 85.257,259.702 69.312,258.568 69.304 C 257.435 69.297,256.879 69.893,257.334 70.629 C 257.788 71.364,256.557 72.824,254.598 73.873 L 251.036 75.779 258.516 97.732 C 262.630 109.806,265.724 119.685,265.391 119.685 C 265.058 119.685,260.307 111.792,254.834 102.145 C 246.675 87.766,243.545 83.723,237.460 79.705 C 230.035 74.801,229.207 73.466,219.371 50.530 C 217.218 45.509,217.892 45.884,229.609 56.226 C 241.047 66.322,251.696 71.664,254.598 68.762 C 255.001 68.359,252.493 67.550,249.026 66.964 C 244.264 66.160,239.709 63.236,230.416 55.019 C 223.648 49.034,217.756 44.139,217.323 44.139 C 216.890 44.140,201.666 57.520,183.493 73.874 M148.128 104.142 L 163.577 112.221 169.980 132.095 L 176.383 151.969 208.664 186.474 C 226.418 205.451,240.945 221.278,240.945 221.644 C 240.945 222.009,235.098 217.785,227.953 212.257 C 193.218 185.384,181.102 176.229,181.102 176.855 C 181.102 177.231,185.354 187.646,190.551 200.000 C 195.748 212.354,199.994 222.899,199.987 223.435 C 199.980 223.971,193.056 212.270,184.601 197.433 L 169.228 170.457 163.748 144.110 L 158.268 117.764 149.606 113.384 C 142.355 109.717,128.176 96.063,131.620 96.063 C 132.202 96.063,139.631 99.699,148.128 104.142 M244.806 150.450 C 273.755 183.627,272.441 181.617,272.441 192.709 L 272.441 202.308 288.555 218.477 L 304.668 234.646 285.365 234.646 L 266.062 234.646 260.477 222.441 C 254.932 210.323,254.904 210.154,256.590 198.685 C 257.524 192.332,257.799 186.309,257.200 185.299 C 256.601 184.290,247.967 171.837,238.012 157.625 C 223.976 137.588,219.321 129.632,217.282 122.192 C 212.325 104.108,212.632 103.168,219.303 116.014 C 223.922 124.908,231.794 135.536,244.806 150.450 M293.024 131.328 L 299.648 142.971 310.730 139.202 C 316.825 137.129,322.195 135.433,322.663 135.433 C 323.131 135.433,319.715 139.281,315.071 143.983 L 306.627 152.533 307.679 161.484 C 308.731 170.440,314.446 179.541,344.720 220.472 C 349.006 226.267,323.961 203.857,308.120 187.723 L 298.917 178.350 292.738 151.774 C 289.339 137.156,286.169 123.957,285.693 122.441 C 283.915 116.782,286.598 120.034,293.024 131.328 M61.570 190.157 C 59.947 194.272,56.818 202.067,54.616 207.480 C 52.415 212.894,50.954 217.323,51.370 217.323 C 51.785 217.323,54.319 216.188,57.001 214.801 C 60.760 212.857,61.690 212.767,61.060 214.408 C 60.611 215.578,59.332 220.610,58.218 225.591 L 56.192 234.646 43.056 234.646 C 35.832 234.646,29.921 234.288,29.921 233.850 C 29.921 232.824,63.321 182.677,64.005 182.677 C 64.289 182.677,63.193 186.043,61.570 190.157 M108.860 227.165 L 111.765 234.646 106.306 234.646 L 100.848 234.646 101.739 227.165 C 102.925 217.203,103.999 214.087,105.129 217.323 C 105.583 218.622,107.262 223.051,108.860 227.165 " stroke="none" fill="#000000" fill-rule="evenodd"></path></g></svg>