<?xml version="1.0" encoding="utf-8"?>
<!-- Generator: Adobe Illustrator 15.0.0, SVG Export Plug-In . SVG Version: 6.00 Build 0)  -->
<!DOCTYPE svg PUBLIC "-//W3C//DTD SVG 1.1//EN" "http://www.w3.org/Graphics/SVG/1.1/DTD/svg11.dtd">
<svg version="1.1" id="svg" xmlns="http://www.w3.org/2000/svg" xmlns:xlink="http://www.w3.org/1999/xlink" x="0px" y="0px"
	 width="400px" height="400px" viewBox="0 0 400 400" enable-background="new 0 0 400 400" xml:space="preserve">
<g id="svgg">
	<path id="path0" fill="#55C2B4" d="M168.731,28.859C116.988,40.65,75.353,77.83,58.952,126.889
		c-7.647,22.873-9.265,52.707-7.682,141.611l1.344,75.5h7.693H68v-23.392v-23.392l6.238,9.837
		c3.431,5.41,12.338,15.937,19.793,23.392L107.586,344l45.707-0.132c43.836-0.126,45.257-0.25,34.707-3.042
		C87.135,314.137,48.405,198.734,116.877,128.901c69.689-71.074,194.995-1.505,153.82,85.402
		c-26.538,56.014-107.985,51.225-115.941-6.816c-6.808-49.67,64.534-72.688,77.385-24.966c7.48,27.781-28.104,47.746-45.577,25.572
		c-7.145-9.067,1.947-30.092,13.012-30.092c11.525,0,18.697,15.512,10.572,22.865c-7.535,6.818-19.21-1.978-13.26-9.99
		c3.42-4.605,10.329-1.703,9.799,4.115c-0.211,2.305,0.349,2.774,1.697,1.425c3.723-3.722-0.211-10.415-6.119-10.415
		c-10.587,0-14.529,12.788-5.821,18.887c9.366,6.561,23.555-0.488,23.555-11.702c0-27.945-40.296-26.666-43.457,1.38
		c-3.439,30.515,35.948,44.626,57.152,20.477c16.725-19.049,12.14-50.258-9.381-63.843
		c-60.672-38.301-118.136,50.667-65.114,100.813c55.116,52.127,142.911,8.016,143.325-72.012
		c0.521-100.601-129.081-148.129-207.327-76.032c-10.995,10.131-9.758,6.495,3.44-10.108c52.033-65.459,157.877-62.91,206.314,4.969
		c23.412,32.808,25.223,41.943,26.456,133.409l1.015,75.238l-11.692,8.373c-14.832,10.621-33.316,19.738-49.268,24.301L259,343.715
		l44.5,0.144L348,344v-95.68c0-106.305-0.469-110.958-13.971-138.651C304.391,48.882,233.322,14.139,168.731,28.859 M40,354v6h160
		h160v-6v-6H200H40V354 M28,370v6h172h172v-6v-6H200H28V370"/>
</g>
</svg>
