<svg id="svg" version="1.1" xmlns="http://www.w3.org/2000/svg" xmlns:xlink="http://www.w3.org/1999/xlink" width="400" height="400" viewBox="0, 0, 400,400"><g id="svgg"><path id="path0" d="M196.500 21.327 C 192.184 22.239,192.000 23.126,192.000 42.992 L 192.000 63.707 172.155 107.853 L 152.310 152.000 195.155 152.000 C 218.720 152.000,238.000 151.547,238.000 150.994 C 238.000 150.441,229.000 129.876,218.000 105.294 C 199.690 64.377,198.000 59.562,198.000 48.319 L 198.000 36.038 212.574 36.315 C 222.822 36.509,229.353 35.546,234.574 33.068 C 243.810 28.685,244.078 26.561,235.264 27.590 C 231.541 28.024,225.820 26.975,222.474 25.245 C 215.711 21.748,203.342 19.882,196.500 21.327 M78.000 72.000 L 78.000 80.000 90.960 80.000 C 103.197 80.000,120.000 75.403,120.000 72.056 C 120.000 71.225,116.593 70.545,112.428 70.545 C 108.264 70.545,102.008 69.073,98.527 67.273 C 86.092 60.842,78.000 62.706,78.000 72.000 M320.500 65.411 C 316.280 66.224,316.000 67.274,316.000 82.314 C 316.000 97.084,314.895 101.456,302.000 137.723 C 294.300 159.378,288.000 177.750,288.000 178.548 C 288.000 179.347,302.046 180.000,319.214 180.000 C 347.357 180.000,350.304 179.676,349.166 176.711 C 335.392 140.818,322.000 97.975,322.000 89.806 L 322.000 80.063 336.745 80.215 C 346.549 80.316,353.543 79.305,357.618 77.198 C 366.208 72.755,367.535 69.793,360.285 71.243 C 356.566 71.987,350.190 70.862,343.110 68.213 C 331.982 64.049,329.298 63.717,320.500 65.411 M72.032 81.500 C 72.062 95.648,70.817 100.539,57.764 137.565 C 49.898 159.876,43.908 178.575,44.452 179.118 C 44.996 179.662,58.923 179.858,75.402 179.554 L 105.363 179.000 90.719 138.000 C 77.357 100.591,76.071 95.642,76.037 81.500 C 76.016 72.525,75.158 66.000,74.000 66.000 C 72.836 66.000,72.014 72.478,72.032 81.500 M140.000 169.000 L 140.000 180.000 147.000 180.000 L 154.000 180.000 154.000 218.000 L 154.000 256.000 195.000 256.000 L 236.000 256.000 236.000 218.000 L 236.000 180.000 243.000 180.000 L 250.000 180.000 250.000 169.000 C 250.000 158.600,249.727 158.000,245.000 158.000 C 241.333 158.000,240.000 159.067,240.000 162.000 C 240.000 164.933,238.667 166.000,235.000 166.000 C 231.333 166.000,230.000 164.933,230.000 162.000 C 230.000 159.067,228.667 158.000,225.000 158.000 C 221.333 158.000,220.000 159.067,220.000 162.000 C 220.000 164.933,218.667 166.000,215.000 166.000 C 211.333 166.000,210.000 164.933,210.000 162.000 C 210.000 159.067,208.667 158.000,205.000 158.000 C 201.333 158.000,200.000 159.067,200.000 162.000 C 200.000 164.933,198.667 166.000,195.000 166.000 C 191.333 166.000,190.000 164.933,190.000 162.000 C 190.000 159.067,188.667 158.000,185.000 158.000 C 181.333 158.000,180.000 159.067,180.000 162.000 C 180.000 164.933,178.667 166.000,175.000 166.000 C 171.333 166.000,170.000 164.933,170.000 162.000 C 170.000 159.067,168.667 158.000,165.000 158.000 C 161.333 158.000,160.000 159.067,160.000 162.000 C 160.000 164.933,158.667 166.000,155.000 166.000 C 151.333 166.000,150.000 164.933,150.000 162.000 C 150.000 159.067,148.667 158.000,145.000 158.000 C 140.273 158.000,140.000 158.600,140.000 169.000 M32.000 192.000 C 32.000 199.556,32.333 200.000,38.000 200.000 L 44.000 200.000 44.000 215.000 L 44.000 230.000 75.000 230.000 L 106.000 230.000 106.000 215.000 C 106.000 200.333,106.111 200.000,111.000 200.000 C 115.500 200.000,116.000 199.200,116.000 192.000 L 116.000 184.000 106.000 184.000 C 96.667 184.000,96.000 184.333,96.000 189.000 C 96.000 192.667,94.933 194.000,92.000 194.000 C 89.067 194.000,88.000 192.667,88.000 189.000 C 88.000 185.000,87.000 184.000,83.000 184.000 C 79.000 184.000,78.000 185.000,78.000 189.000 C 78.000 192.667,76.933 194.000,74.000 194.000 C 71.067 194.000,70.000 192.667,70.000 189.000 C 70.000 185.000,69.000 184.000,65.000 184.000 C 61.000 184.000,60.000 185.000,60.000 189.000 C 60.000 192.667,58.933 194.000,56.000 194.000 C 53.067 194.000,52.000 192.667,52.000 189.000 C 52.000 184.333,51.333 184.000,42.000 184.000 L 32.000 184.000 32.000 192.000 M276.000 191.000 C 276.000 197.444,276.476 198.000,282.000 198.000 L 288.000 198.000 288.000 214.000 L 288.000 230.000 319.000 230.000 L 350.000 230.000 350.000 214.000 L 350.000 198.000 356.000 198.000 C 361.524 198.000,362.000 197.444,362.000 191.000 L 362.000 184.000 351.000 184.000 C 340.600 184.000,340.000 184.273,340.000 189.000 C 340.000 192.667,338.933 194.000,336.000 194.000 C 333.067 194.000,332.000 192.667,332.000 189.000 C 332.000 185.333,330.933 184.000,328.000 184.000 C 325.067 184.000,324.000 185.333,324.000 189.000 C 324.000 193.000,323.000 194.000,319.000 194.000 C 315.000 194.000,314.000 193.000,314.000 189.000 C 314.000 185.333,312.933 184.000,310.000 184.000 C 307.067 184.000,306.000 185.333,306.000 189.000 C 306.000 192.667,304.933 194.000,302.000 194.000 C 299.067 194.000,298.000 192.667,298.000 189.000 C 298.000 184.273,297.400 184.000,287.000 184.000 L 276.000 184.000 276.000 191.000 M202.343 199.310 C 205.091 201.797,206.000 205.525,206.000 214.310 L 206.000 226.000 195.000 226.000 L 184.000 226.000 184.000 215.000 C 184.000 198.851,193.169 191.008,202.343 199.310 M32.000 243.738 C 32.000 250.667,32.646 252.000,36.000 252.000 C 39.918 252.000,40.000 253.333,40.000 317.000 L 40.000 382.000 74.000 382.000 L 108.000 382.000 108.000 317.000 C 108.000 253.333,108.082 252.000,112.000 252.000 C 115.238 252.000,116.000 250.667,116.000 245.000 L 116.000 238.000 81.500 237.978 C 62.525 237.966,43.625 237.398,39.500 236.716 L 32.000 235.477 32.000 243.738 M276.000 244.000 C 276.000 250.667,276.667 252.000,280.000 252.000 C 283.918 252.000,284.000 253.333,284.000 317.000 L 284.000 382.000 319.000 382.000 L 354.000 382.000 354.000 317.000 C 354.000 253.333,354.082 252.000,358.000 252.000 C 361.333 252.000,362.000 250.667,362.000 244.000 L 362.000 236.000 319.000 236.000 L 276.000 236.000 276.000 244.000 M118.000 278.000 L 118.000 290.000 196.000 290.000 L 274.000 290.000 274.000 278.000 L 274.000 266.000 196.000 266.000 L 118.000 266.000 118.000 278.000 M326.000 278.000 C 329.030 281.030,330.000 284.667,330.000 293.000 L 330.000 304.000 319.000 304.000 L 308.000 304.000 308.000 292.113 C 308.000 275.764,316.836 268.836,326.000 278.000 M82.887 280.445 C 84.650 282.962,86.000 289.034,86.000 294.445 L 86.000 304.000 74.000 304.000 L 62.000 304.000 62.000 294.445 C 62.000 282.465,66.206 276.000,74.000 276.000 C 77.699 276.000,80.892 277.597,82.887 280.445 M118.000 340.000 L 118.000 382.000 142.000 382.000 L 166.000 382.000 166.003 364.500 C 166.008 337.222,175.658 324.000,195.560 324.000 C 215.277 324.000,224.117 335.579,225.567 363.308 L 226.545 382.000 250.273 382.000 L 274.000 382.000 274.000 340.000 L 274.000 298.000 196.000 298.000 L 118.000 298.000 118.000 340.000 M148.000 327.000 C 148.000 333.667,147.667 334.000,141.000 334.000 C 134.333 334.000,134.000 333.667,134.000 327.000 C 134.000 320.333,134.333 320.000,141.000 320.000 C 147.667 320.000,148.000 320.333,148.000 327.000 M256.000 327.000 C 256.000 333.667,255.667 334.000,249.000 334.000 C 242.333 334.000,242.000 333.667,242.000 327.000 C 242.000 320.333,242.333 320.000,249.000 320.000 C 255.667 320.000,256.000 320.333,256.000 327.000 " stroke="none" fill="#000000" fill-rule="evenodd"></path></g></svg>