<?xml version="1.0" encoding="utf-8"?>
<!-- Generator: Adobe Illustrator 15.0.0, SVG Export Plug-In . SVG Version: 6.00 Build 0)  -->
<!DOCTYPE svg PUBLIC "-//W3C//DTD SVG 1.1//EN" "http://www.w3.org/Graphics/SVG/1.1/DTD/svg11.dtd">
<svg version="1.1" id="Layer_1" xmlns="http://www.w3.org/2000/svg" xmlns:xlink="http://www.w3.org/1999/xlink" x="0px" y="0px"
	 width="856px" height="981px" viewBox="0 0 856 981" enable-background="new 0 0 856 981" xml:space="preserve">
<path fill="#BDBDBD" d="M72.667,0.333c-0.444,0.444,0.611,0.389,0.667,0.333C73.778,0.222,72.722,0.278,72.667,0.333z"/>
<path fill="#868686" d="M74.667,0.333c-0.444,0.444,0.611,0.389,0.667,0.333C75.778,0.222,74.722,0.278,74.667,0.333z"/>
<path fill="#555555" d="M76,0c1.249,0.685,1.548,0.749,3,1C77.751,0.315,77.452,0.251,76,0z"/>
<path d="M79,0.424C65.463,2.224,53.127,4.651,41,11.312C10.268,28.191-3.846,62.165,1.439,96
	c2.361,15.117,9.64,29.258,20.576,39.961c3.936,3.851,8.449,7.183,12.985,10.294c3.472,2.38,7.138,4.219,7.852,8.749
	C43.958,162.022,43,169.897,43,177v43v135v415v148v34c0,7.629-0.274,14.843,5.33,20.815C58.093,983.22,75.158,980,88,980
	c6.261,0,12.77,0.504,19-0.174C133.853,976.907,127,943,127,924V744V346V218v-42c0-6.783-0.909-14.293,0.148-20.996
	c0.712-4.512,4.349-6.384,7.852-8.699c4.607-3.045,9.037-6.476,12.985-10.344c11.199-10.974,19.271-26.225,20.844-41.961
	c1.601-16.009,0.779-32.159-6.152-47C148.616,16.892,112.386-4.013,79,0.424z"/>
<path fill="#444444" d="M91,0c1.249,0.685,1.548,0.749,3,1C92.751,0.315,92.452,0.251,91,0z"/>
<path fill="#898989" d="M94,0c1.249,0.685,1.548,0.749,3,1C95.751,0.315,95.452,0.251,94,0z"/>
<path fill="#7D7D7D" d="M67.667,1.333c-0.444,0.444,0.611,0.389,0.667,0.333C68.778,1.222,67.722,1.278,67.667,1.333z"/>
<path fill="#2B2B2B" d="M69.667,1.333c-0.444,0.444,0.611,0.389,0.667,0.333C70.778,1.222,69.722,1.278,69.667,1.333z"/>
<path fill="#626262" d="M100,1c1.248,0.685,1.549,0.749,3,1C101.752,1.315,101.452,1.251,100,1z"/>
<path fill="#4B4B4B" d="M63.667,2.333c-0.444,0.444,0.611,0.389,0.667,0.333C64.778,2.222,63.722,2.278,63.667,2.333z"/>
<path fill="#ACACAC" d="M106.667,2.333c-0.445,0.444,0.611,0.389,0.666,0.333C107.778,2.222,106.722,2.278,106.667,2.333z"/>
<path fill="#989898" d="M59,3l1,1L59,3z"/>
<path fill="#797979" d="M110,3l1,1L110,3z"/>
<path fill="#818181" d="M56,4l1,1L56,4z"/>
<path fill="#686868" d="M113,4l1,1L113,4z"/>
<path fill="#919191" d="M53,5l1,1L53,5z"/>
<path fill="#7A7A7A" d="M116,5l1,1L116,5z"/>
<path fill="#666666" d="M51,6l1,1L51,6z"/>
<path fill="#A1A1A1" d="M119,6l1,1L119,6z"/>
<path fill="#969696" d="M48,7l1,1L48,7z"/>
<path fill="#848484" d="M121,7l1,1L121,7z"/>
<path fill="#909090" d="M46,8l1,1L46,8z"/>
<path fill="#6E6E6E" d="M123,8l1,1L123,8z"/>
<path fill="#808080" d="M44,9l1,1L44,9z"/>
<path fill="#717171" d="M125,9l1,1L125,9z"/>
<path fill="#999999" d="M42,10l1,1L42,10z"/>
<path fill="#777777" d="M127,10l1,1L127,10z"/>
<path fill="#B2B2B2" d="M40,11l1,1L40,11z"/>
<path fill="#999999" d="M129,11l1,1L129,11z"/>
<path fill="#787878" d="M37,13l1,1L37,13z"/>
<path fill="#737373" d="M132,13l1,1L132,13z"/>
<path fill="#6E6E6E" d="M34,15l1,1L34,15z"/>
<path fill="#6F6F6F" d="M135,15l1,1L135,15z"/>
<path fill="#949494" d="M31,17l1,1L31,17z"/>
<path fill="#9C9C9C" d="M138,17l1,1L138,17z"/>
<path fill="#616161" d="M30,18l1,1L30,18z"/>
<path fill="#5D5D5D" d="M139,18l1,1L139,18z"/>
<path fill="#9D9D9D" d="M26,21l1,1L26,21z"/>
<path fill="#A8A8A8" d="M143,21l1,1L143,21z"/>
<path fill="#787878" d="M25,22l1,1L25,22z"/>
<path fill="#909090" d="M144,22l1,1L144,22z"/>
<path fill="#6B6B6B" d="M24,23l1,1L24,23z"/>
<path fill="#808080" d="M145,23l1,1L145,23z"/>
<path fill="#6B6B6B" d="M23,24l1,1L23,24z"/>
<path fill="#808080" d="M146,24l1,1L146,24z"/>
<path fill="#6A6A6A" d="M22,25l1,1L22,25z"/>
<path fill="#818181" d="M147,25l1,1L147,25z"/>
<path fill="#777777" d="M21,26l1,1L21,26z"/>
<path fill="#8C8C8C" d="M148,26l1,1L148,26z"/>
<path fill="#959595" d="M20,27l1,1L20,27z"/>
<path fill="#9E9E9E" d="M149,27l1,1L149,27z"/>
<path fill="#A7A7A7" d="M19,28l1,1L19,28z"/>
<path fill="#B5B5B5" d="M150,28l1,1L150,28z"/>
<path fill="#595959" d="M16,32l1,1L16,32z"/>
<path fill="#656565" d="M153,32l1,1L153,32z"/>
<path fill="#9A9A9A" d="M15,33l1,1L15,33z"/>
<path fill="#A2A2A2" d="M154,33l1,1L154,33z"/>
<path fill="#727272" d="M13,36l1,1L13,36z"/>
<path fill="#7A7A7A" d="M156,36l1,1L156,36z"/>
<path fill="#7C7C7C" d="M11,39l1,1L11,39z"/>
<path fill="#828282" d="M158,39l1,1L158,39z"/>
<path fill="#4C4C4C" d="M10,41l1,1L10,41z"/>
<path fill="#515151" d="M159,41l1,1L159,41z"/>
<path fill="#A8A8A8" d="M8,44l1,1L8,44z"/>
<path fill="#ACACAC" d="M161,44l1,1L161,44z"/>
<path fill="#A5A5A5" d="M7,46l1,1L7,46z"/>
<path fill="#A6A6A6" d="M162,46l1,1L162,46z"/>
<path fill="#787878" d="M5,51l1,1L5,51z"/>
<path fill="#797979" d="M164,51l1,1L164,51z"/>
<path fill="#B1B1B1" d="M4,53l1,1L4,53z"/>
<path fill="#B2B2B2" d="M165,53l1,1L165,53z"/>
<path fill="#595959" d="M4,54l1,1L4,54z"/>
<path fill="#5C5C5C" d="M165,54l1,1L165,54z"/>
<path fill="#ADADAD" d="M3,56l1,1L3,56z"/>
<path fill="#AEAEAE" d="M166,56l1,1L166,56z"/>
<path fill="#484848" d="M2.333,60.667c-0.056,0.056-0.111,1.111,0.333,0.667C2.722,61.278,2.778,60.222,2.333,60.667z"/>
<path fill="#4C4C4C" d="M167.333,60.667c-0.055,0.056-0.111,1.111,0.334,0.667C167.722,61.278,167.778,60.222,167.333,60.667z"/>
<path fill="#6E6E6E" d="M1,64v3C1.696,65.446,1.696,65.554,1,64z"/>
<path fill="#717171" d="M168.333,64.667c-0.055,0.056-0.111,1.111,0.334,0.667C168.722,65.278,168.778,64.222,168.333,64.667z"/>
<path fill="#A9A9A9" d="M0,69v3C0.696,70.446,0.696,70.554,0,69z"/>
<path fill="#ADADAD" d="M169,69v3C169.696,70.446,169.696,70.554,169,69z"/>
<path fill="#565656" d="M0,72v3C0.696,73.446,0.696,73.554,0,72z"/>
<path fill="#5A5A5A" d="M169,72v3C169.696,73.446,169.696,73.554,169,72z"/>
<path fill="#202020" d="M169,82v6C169.951,85.715,169.951,84.285,169,82z"/>
<path fill="#D0D0D0" d="M401.667,82.333c-0.445,0.444,0.611,0.389,0.666,0.333C402.778,82.222,401.722,82.277,401.667,82.333z"/>
<path fill="#7E7E7E" d="M403,82c2.052,0.875,3.747,0.953,6,1C406.948,82.125,405.253,82.047,403,82z"/>
<path fill="#444444" d="M409,82c4.724,1.982,10.91,1,16,1C420.276,81.018,414.09,82,409,82z"/>
<path fill="#777777" d="M425,82c2.052,0.875,3.747,0.953,6,1C428.948,82.125,427.253,82.047,425,82z"/>
<path fill="#A4A4A4" d="M431,82c1.248,0.685,1.548,0.749,3,1C432.752,82.315,432.452,82.251,431,82z"/>
<path fill="#404040" d="M824,82c2.052,0.875,3.747,0.953,6,1C827.948,82.125,826.253,82.047,824,82z"/>
<path fill="#D5D5D5" d="M830.667,82.333c-0.445,0.444,0.611,0.389,0.666,0.333C831.778,82.222,830.722,82.277,830.667,82.333z"/>
<path fill="#272727" d="M0,83v5C0.83,85.97,0.83,85.03,0,83z"/>
<path fill="#A1A1A1" d="M392.667,83.333c-0.445,0.444,0.611,0.389,0.666,0.333C393.778,83.223,392.722,83.277,392.667,83.333z"/>
<path fill="#5E5E5E" d="M394,83c1.248,0.685,1.549,0.749,3,1C395.752,83.315,395.452,83.251,394,83z"/>
<path d="M397,83.425c-63.242,8.609-120.041,36.485-172,72.854c-16.858,11.8-41.183,24.303-50.099,43.72
	C169.69,211.348,171,223.856,171,236v61v222v149c0,21.135-3.965,45.726,13.09,61.815c10.704,10.097,24.168,6.347,34.91-1.239
	c25.574-18.062,51.429-35.356,79-50.268c59.757-32.318,129.895-54.294,196-28.104c16.382,6.489,32.442,14.88,47,24.825
	c9.563,6.53,18.216,14.306,28,20.535c34.869,22.2,72.311,36.045,114,30.008c46.489-6.732,88.544-31.269,127-56.905
	c14.125-9.417,34.153-19.969,42.002-35.667c5.227-10.454,3.998-24.636,3.998-36v-66V289V151c0-19.779,3.365-44.091-11.301-59.907
	c-12.982-14-27.497-6.278-40.699,2.577c-28.46,19.09-54.196,41.681-85,57.083c-19.695,9.848-44.395,20.597-67,19.157
	c-20.04-1.277-35.462-11.185-52-21.485c-16.98-10.575-34.218-20.988-52-30.167c-18.375-9.483-37.199-19.072-57-25.232
	C468.317,85.969,444.684,83,421,83C413.086,83,404.852,82.356,397,83.425z"/>
<path fill="#2E2E2E" d="M439,83c1.248,0.685,1.548,0.749,3,1C440.752,83.315,440.452,83.251,439,83z"/>
<path fill="#737373" d="M442,83c1.248,0.685,1.548,0.749,3,1C443.751,83.315,443.452,83.251,442,83z"/>
<path fill="#CBCBCB" d="M445.667,83.333c-0.445,0.444,0.611,0.389,0.666,0.333C446.778,83.223,445.722,83.277,445.667,83.333z"/>
<path fill="#9F9F9F" d="M821,83l1,1L821,83z"/>
<path fill="#717171" d="M833,83l1,1L833,83z"/>
<path fill="#AEAEAE" d="M384.667,84.333c-0.445,0.444,0.611,0.389,0.666,0.333C385.778,84.222,384.722,84.278,384.667,84.333z"/>
<path fill="#6B6B6B" d="M386.667,84.333c-0.445,0.444,0.611,0.389,0.666,0.333C387.778,84.222,386.722,84.277,386.667,84.333z"/>
<path fill="#282828" d="M388.667,84.333c-0.445,0.444,0.611,0.389,0.666,0.333C389.778,84.222,388.722,84.277,388.667,84.333z"/>
<path fill="#414141" d="M449,84c1.248,0.685,1.548,0.749,3,1C450.752,84.315,450.452,84.251,449,84z"/>
<path fill="#999999" d="M452,84c1.248,0.685,1.548,0.749,3,1C453.752,84.315,453.452,84.251,452,84z"/>
<path fill="#858585" d="M819,84l1,1L819,84z"/>
<path fill="#868686" d="M379.667,85.333c-0.445,0.445,0.611,0.389,0.666,0.333C380.778,85.222,379.722,85.277,379.667,85.333z"/>
<path fill="#292929" d="M381.667,85.333c-0.445,0.444,0.611,0.389,0.666,0.333C382.778,85.222,381.722,85.277,381.667,85.333z"/>
<path fill="#585858" d="M457,85c1.248,0.685,1.548,0.749,3,1C458.752,85.315,458.452,85.251,457,85z"/>
<path fill="#888888" d="M817,85l1,1L817,85z"/>
<path fill="#4C4C4C" d="M837,85l1,1L837,85z"/>
<path fill="#9D9D9D" d="M373,86c1.248,0.685,1.548,0.749,3,1C374.752,86.315,374.452,86.251,373,86z"/>
<path fill="#636363" d="M463,86c1.248,0.685,1.548,0.749,3,1C464.752,86.315,464.452,86.251,463,86z"/>
<path fill="#AFAFAF" d="M815,86l1,1L815,86z"/>
<path fill="#999999" d="M839,86l1,1L839,86z"/>
<path fill="#727272" d="M369.667,87.333c-0.445,0.444,0.611,0.389,0.666,0.333C370.778,87.222,369.722,87.277,369.667,87.333z"/>
<path fill="#969696" d="M469.667,87.333c-0.445,0.444,0.611,0.389,0.666,0.333C470.778,87.222,469.722,87.277,469.667,87.333z"/>
<path fill="#4E4E4E" d="M840,87l1,1L840,87z"/>
<path fill="#676767" d="M0,88v3C0.696,89.446,0.696,89.554,0,88z"/>
<path fill="#666666" d="M169,88v3C169.696,89.446,169.696,89.554,169,88 M365.667,88.333c-0.445,0.444,0.611,0.389,0.666,0.333
	C366.778,88.222,365.722,88.278,365.667,88.333z"/>
<path fill="#B2B2B2" d="M474.667,88.333c-0.445,0.444,0.611,0.389,0.666,0.333C475.778,88.222,474.722,88.278,474.667,88.333z"/>
<path fill="#7F7F7F" d="M812,88l1,1L812,88z"/>
<path fill="#4A4A4A" d="M361.667,89.333c-0.445,0.444,0.611,0.389,0.666,0.333C362.778,89.222,361.722,89.278,361.667,89.333z"/>
<path fill="#B8B8B8" d="M478.667,89.333c-0.445,0.444,0.611,0.389,0.666,0.333C479.778,89.222,478.722,89.277,478.667,89.333z"/>
<path fill="#9F9F9F" d="M810,89l1,1L810,89z"/>
<path fill="#545454" d="M357.667,90.333c-0.445,0.444,0.611,0.389,0.666,0.333C358.778,90.222,357.722,90.278,357.667,90.333z"/>
<path fill="#C8C8C8" d="M482.667,90.333c-0.445,0.444,0.611,0.389,0.666,0.333C483.778,90.223,482.722,90.277,482.667,90.333z"/>
<path fill="#AFAFAF" d="M0.333,91.667c-0.056,0.056-0.111,1.111,0.333,0.667C0.722,92.277,0.778,91.223,0.333,91.667z"/>
<path fill="#ADADAD" d="M169.333,91.667c-0.055,0.056-0.111,1.111,0.334,0.667C169.722,92.278,169.778,91.222,169.333,91.667z"/>
<path fill="#2A2A2A" d="M354.667,91.333c-0.445,0.444,0.611,0.389,0.666,0.333C355.778,91.223,354.722,91.277,354.667,91.333z"/>
<path fill="#5E5E5E" d="M485,91l1,1L485,91z"/>
<path fill="#8F8F8F" d="M807,91l1,1L807,91z"/>
<path fill="#464646" d="M350.667,92.333c-0.445,0.444,0.611,0.389,0.666,0.333C351.778,92.222,350.722,92.277,350.667,92.333z"/>
<path fill="#8E8E8E" d="M489,92l1,1L489,92z"/>
<path fill="#7F7F7F" d="M347,93l1,1L347,93 M492,93l1,1L492,93z"/>
<path fill="#909090" d="M804,93l1,1L804,93z"/>
<path fill="#515151" d="M846,93l1,1L846,93z"/>
<path fill="#717171" d="M344,94l1,1L344,94z"/>
<path fill="#848484" d="M495,94l1,1L495,94z"/>
<path fill="#8A8A8A" d="M847,94l1,1L847,94z"/>
<path fill="#696969" d="M341,95l1,1L341,95z"/>
<path fill="#939393" d="M498,95l1,1L498,95z"/>
<path fill="#808080" d="M801,95l1,1L801,95z"/>
<path fill="#777777" d="M1,96v3C1.696,97.446,1.696,97.554,1,96z"/>
<path fill="#767676" d="M168,96v3C168.696,97.446,168.696,97.554,168,96z"/>
<path fill="#B5B5B5" d="M337,96l1,1L337,96z"/>
<path fill="#626262" d="M338,96l1,1L338,96z"/>
<path fill="#4C4C4C" d="M500,96l1,1L500,96z"/>
<path fill="#ADADAD" d="M501,96l1,1L501,96z"/>
<path fill="#6F6F6F" d="M335,97l1,1L335,97z"/>
<path fill="#717171" d="M503,97l1,1L503,97z"/>
<path fill="#9C9C9C" d="M798,97l1,1L798,97z"/>
<path fill="#898989" d="M849,97l1,1L849,97z"/>
<path fill="#8B8B8B" d="M332,98l1,1L332,98z"/>
<path fill="#A0A0A0" d="M506,98l1,1L506,98z"/>
<path fill="#545454" d="M797,98l1,1L797,98z"/>
<path fill="#AAAAAA" d="M329,99l1,1L329,99z"/>
<path fill="#6E6E6E" d="M508,99l1,1L508,99z"/>
<path fill="#6A6A6A" d="M850,99l1,1L850,99z"/>
<path fill="#626262" d="M327,100l1,1L327,100z"/>
<path fill="#4A4A4A" d="M510,100l1,1L510,100z"/>
<path fill="#797979" d="M794,100l1,1L794,100z"/>
<path fill="#969696" d="M2.333,101.667c-0.056,0.055-0.111,1.111,0.333,0.666C2.722,102.278,2.778,101.222,2.333,101.667z"/>
<path fill="#929292" d="M167.333,101.667c-0.055,0.055-0.111,1.111,0.334,0.666C167.722,102.278,167.778,101.222,167.333,101.667z"
	/>
<path fill="#858585" d="M324,101l1,1L324,101z"/>
<path fill="#9E9E9E" d="M513,101l1,1L513,101z"/>
<path fill="#616161" d="M851,101l1,1L851,101z"/>
<path fill="#585858" d="M322,102l1,1L322,102z"/>
<path fill="#848484" d="M515,102l1,1L515,102z"/>
<path fill="#9E9E9E" d="M791,102l1,1L791,102z"/>
<path fill="#999999" d="M319,103l1,1L319,103z"/>
<path fill="#5D5D5D" d="M517,103l1,1L517,103z"/>
<path fill="#5A5A5A" d="M790,103l1,1L790,103z"/>
<path fill="#848484" d="M852,103l1,1L852,103z"/>
<path fill="#666666" d="M317,104l1,1L317,104z"/>
<path fill="#4F4F4F" d="M519,104l1,1L519,104z"/>
<path fill="#777777" d="M3,105l1,1L3,105z"/>
<path fill="#737373" d="M166,105l1,1L166,105z"/>
<path fill="#A2A2A2" d="M314,105l1,1L314,105z"/>
<path fill="#AAAAAA" d="M522,105l1,1L522,105z"/>
<path fill="#6E6E6E" d="M787,105l1,1L787,105z"/>
<path fill="#787878" d="M312,106l1,1L312,106z"/>
<path fill="#9F9F9F" d="M524,106l1,1L524,106z"/>
<path fill="#6E6E6E" d="M853,106l1,1L853,106z"/>
<path fill="#616161" d="M310,107l1,1L310,107z"/>
<path fill="#959595" d="M526,107l1,1L526,107z"/>
<path fill="#898989" d="M784,107l1,1L784,107z"/>
<path fill="#6D6D6D" d="M4,108l1,1L4,108z"/>
<path fill="#6A6A6A" d="M165,108l1,1L165,108z"/>
<path fill="#4C4C4C" d="M308,108l1,1L308,108z"/>
<path fill="#7F7F7F" d="M528,108l1,1L528,108z"/>
<path fill="#A6A6A6" d="M305,109l1,1L305,109z"/>
<path fill="#818181" d="M530,109l1,1L530,109z"/>
<path fill="#A3A3A3" d="M781,109l1,1L781,109z"/>
<path fill="#585858" d="M854.333,109.667c-0.055,0.055-0.111,1.111,0.334,0.666C854.722,110.278,854.778,109.222,854.333,109.667z"
	/>
<path fill="#909090" d="M303,110l1,1L303,110z"/>
<path fill="#6E6E6E" d="M532,110l1,1L532,110z"/>
<path fill="#5C5C5C" d="M780,110l1,1L780,110z"/>
<path fill="#959595" d="M5,111l1,1L5,111z"/>
<path fill="#8F8F8F" d="M164,111l1,1L164,111z"/>
<path fill="#787878" d="M301,111l1,1L301,111z"/>
<path fill="#727272" d="M534,111l1,1L534,111z"/>
<path fill="#696969" d="M299,112l1,1L299,112z"/>
<path fill="#777777" d="M536,112l1,1L536,112z"/>
<path fill="#848484" d="M777,112l1,1L777,112z"/>
<path fill="#6D6D6D" d="M6,113l1,1L6,113z"/>
<path fill="#676767" d="M163,113l1,1L163,113z"/>
<path fill="#6E6E6E" d="M297,113l1,1L297,113z"/>
<path fill="#777777" d="M538,113l1,1L538,113z"/>
<path fill="#9D9D9D" d="M855.333,113.667c-0.055,0.055-0.111,1.111,0.334,0.666C855.722,114.278,855.778,113.222,855.333,113.667z"
	/>
<path fill="#6E6E6E" d="M295,114l1,1L295,114z"/>
<path fill="#777777" d="M540,114l1,1L540,114z"/>
<path fill="#AFAFAF" d="M774,114l1,1L774,114z"/>
<path fill="#606060" d="M7,115l1,1L7,115z"/>
<path fill="#585858" d="M162,115l1,1L162,115z"/>
<path fill="#606060" d="M293,115l1,1L293,115z"/>
<path fill="#868686" d="M542,115l1,1L542,115z"/>
<path fill="#666666" d="M773,115l1,1L773,115z"/>
<path fill="#606060" d="M855,115v3C855.696,116.446,855.696,116.554,855,115z"/>
<path fill="#666666" d="M291,116l1,1L291,116z"/>
<path fill="#7F7F7F" d="M544,116l1,1L544,116z"/>
<path fill="#585858" d="M8,117l1,1L8,117z"/>
<path fill="#4F4F4F" d="M161,117l1,1L161,117z"/>
<path fill="#5B5B5B" d="M289,117l1,1L289,117z"/>
<path fill="#959595" d="M546,117l1,1L546,117z"/>
<path fill="#929292" d="M770,117l1,1L770,117z"/>
<path fill="#5A5A5A" d="M287,118l1,1L287,118z"/>
<path fill="#A9A9A9" d="M548,118l1,1L548,118z"/>
<path fill="#535353" d="M769,118l1,1L769,118z"/>
<path fill="#797979" d="M9,119l1,1L9,119z"/>
<path fill="#6F6F6F" d="M160,119l1,1L160,119z"/>
<path fill="#6B6B6B" d="M285,119l1,1L285,119z"/>
<path fill="#888888" d="M283,120l1,1L283,120z"/>
<path fill="#A1A1A1" d="M766,120l1,1L766,120z"/>
<path fill="#9C9C9C" d="M10,121l1,1L10,121z"/>
<path fill="#919191" d="M159,121l1,1L159,121z"/>
<path fill="#909090" d="M281,121l1,1L281,121z"/>
<path fill="#595959" d="M553,121l1,1L553,121z"/>
<path fill="#5B5B5B" d="M765,121l1,1L765,121z"/>
<path fill="#AAAAAA" d="M279,122l1,1L279,122z"/>
<path fill="#666666" d="M555,122l1,1L555,122z"/>
<path fill="#B4B4B4" d="M277,123l1,1L277,123z"/>
<path fill="#808080" d="M557,123l1,1L557,123z"/>
<path fill="#B6B6B6" d="M762,123l1,1L762,123z"/>
<path fill="#979797" d="M12,124l1,1L12,124z"/>
<path fill="#8D8D8D" d="M157,124l1,1L157,124z"/>
<path fill="#909090" d="M559,124l1,1L559,124z"/>
<path fill="#888888" d="M761,124l1,1L761,124z"/>
<path fill="#525252" d="M274,125l1,1L274,125z"/>
<path fill="#4F4F4F" d="M760,125l1,1L760,125z"/>
<path fill="#7F7F7F" d="M272,126l1,1L272,126z"/>
<path fill="#B6B6B6" d="M155,127l1,1L155,127z"/>
<path fill="#A1A1A1" d="M270,127l1,1L270,127z"/>
<path fill="#666666" d="M564,127l1,1L564,127z"/>
<path fill="#A1A1A1" d="M757,127l1,1L757,127z"/>
<path fill="#8A8A8A" d="M15,128l1,1L15,128z"/>
<path fill="#828282" d="M154,128l1,1L154,128z"/>
<path fill="#888888" d="M566,128l1,1L566,128z"/>
<path fill="#646464" d="M756,128l1,1L756,128z"/>
<path fill="#525252" d="M16,129l1,1L16,129z"/>
<path fill="#4A4A4A" d="M153,129l1,1L153,129z"/>
<path fill="#565656" d="M267,129l1,1L267,129z"/>
<path fill="#AEAEAE" d="M568,129l1,1L568,129z"/>
<path fill="#7F7F7F" d="M265,130l1,1L265,130z"/>
<path fill="#999999" d="M753,130l1,1L753,130z"/>
<path fill="#A1A1A1" d="M263,131l1,1L263,131z"/>
<path fill="#626262" d="M571,131l1,1L571,131z"/>
<path fill="#8F8F8F" d="M573,132l1,1L573,132z"/>
<path fill="#A7A7A7" d="M750,132l1,1L750,132z"/>
<path fill="#646464" d="M260,133l1,1L260,133z"/>
<path fill="#595959" d="M749,133l1,1L749,133z"/>
<path fill="#A1A1A1" d="M258,134l1,1L258,134z"/>
<path fill="#4C4C4C" d="M576,134l1,1L576,134z"/>
<path fill="#B2B2B2" d="M747,134l1,1L747,134z"/>
<path fill="#777777" d="M578,135l1,1L578,135z"/>
<path fill="#525252" d="M746,135l1,1L746,135z"/>
<path fill="#7F7F7F" d="M255,136l1,1L255,136z"/>
<path fill="#A1A1A1" d="M580,136l1,1L580,136z"/>
<path fill="#999999" d="M744,136l1,1L744,136z"/>
<path fill="#ADADAD" d="M253,137l1,1L253,137z"/>
<path fill="#4A4A4A" d="M252,138l1,1L252,138z"/>
<path fill="#6E6E6E" d="M583,138l1,1L583,138 M741,138l1,1L741,138z"/>
<path fill="#838383" d="M250,139l1,1L250,139z"/>
<path fill="#A4A4A4" d="M585,139l1,1L585,139z"/>
<path fill="#999999" d="M739,139l1,1L739,139z"/>
<path fill="#656565" d="M27,140l1,1L27,140z"/>
<path fill="#5F5F5F" d="M142,140l1,1L142,140z"/>
<path fill="#909090" d="M28,141l1,1L28,141z"/>
<path fill="#8B8B8B" d="M141,141l1,1L141,141z"/>
<path fill="#606060" d="M247,141l1,1L247,141z"/>
<path fill="#7A7A7A" d="M588,141l1,1L588,141z"/>
<path fill="#5D5D5D" d="M736,141l1,1L736,141z"/>
<path fill="#B2B2B2" d="M245,142l1,1L245,142z"/>
<path fill="#ABABAB" d="M590,142l1,1L590,142z"/>
<path fill="#7F7F7F" d="M734,142l1,1L734,142z"/>
<path fill="#535353" d="M31,143l1,1L31,143z"/>
<path fill="#555555" d="M244,143l1,1L244,143z"/>
<path fill="#4C4C4C" d="M591,143l1,1L591,143z"/>
<path fill="#999999" d="M732,143l1,1L732,143z"/>
<path fill="#898989" d="M32,144l1,1L32,144z"/>
<path fill="#858585" d="M137,144l1,1L137,144z"/>
<path fill="#9F9F9F" d="M242,144l1,1L242,144z"/>
<path fill="#888888" d="M593,144l1,1L593,144z"/>
<path fill="#ADADAD" d="M730,144l1,1L730,144z"/>
<path fill="#888888" d="M35,146l1,1L35,146z"/>
<path fill="#777777" d="M134,146l1,1L134,146z"/>
<path fill="#999999" d="M239,146l1,1L239,146z"/>
<path fill="#555555" d="M596,146l1,1L596,146z"/>
<path fill="#4C4C4C" d="M727,146l1,1L727,146z"/>
<path fill="#979797" d="M598,147l1,1L598,147z"/>
<path fill="#4F4F4F" d="M725,147l1,1L725,147z"/>
<path fill="#8F8F8F" d="M38,148l1,1L38,148z"/>
<path fill="#8E8E8E" d="M131,148l1,1L131,148z"/>
<path fill="#838383" d="M236,148l1,1L236,148z"/>
<path fill="#5B5B5B" d="M723,148l1,1L723,148z"/>
<path fill="#5E5E5E" d="M40,149l1,1L40,149 M129,149l1,1L129,149z"/>
<path fill="#7D7D7D" d="M601,149l1,1L601,149z"/>
<path fill="#5A5A5A" d="M721,149l1,1L721,149z"/>
<path fill="#888888" d="M233,150l1,1L233,150z"/>
<path fill="#5D5D5D" d="M719,150l1,1L719,150z"/>
<path fill="#CCCCCC" d="M42,151v810c2.292-5.462,1-13.113,1-19v-41V760V328V204v-36C43,162.65,44.085,155.969,42,151 M127,151v810
	c2.292-5.462,1-13.113,1-19v-41V760V328V204v-36C128,162.65,129.085,155.969,127,151z"/>
<path fill="#5D5D5D" d="M604,151l1,1L604,151 M717,151l1,1L717,151z"/>
<path fill="#999999" d="M230,152l1,1L230,152z"/>
<path fill="#A1A1A1" d="M606,152l1,1L606,152z"/>
<path fill="#555555" d="M715,152l1,1L715,152z"/>
<path fill="#494949" d="M607,153l1,1L607,153z"/>
<path fill="#4C4C4C" d="M713,153l1,1L713,153z"/>
<path fill="#AAAAAA" d="M227,154l1,1L227,154z"/>
<path fill="#7F7F7F" d="M609,154l1,1L609,154z"/>
<path fill="#4C4C4C" d="M711,154l1,1L711,154z"/>
<path fill="#4D4D4D" d="M226,155l1,1L226,155z"/>
<path fill="#ABABAB" d="M224,156l1,1L224,156z"/>
<path fill="#727272" d="M612,156l1,1L612,156z"/>
<path fill="#959595" d="M706,156l1,1L706,156z"/>
<path fill="#666666" d="M223,157l1,1L223,157z"/>
<path fill="#ADADAD" d="M614,157l1,1L614,157z"/>
<path fill="#777777" d="M704,157l1,1L704,157z"/>
<path fill="#575757" d="M615,158l1,1L615,158z"/>
<path fill="#505050" d="M702,158l1,1L702,158z"/>
<path fill="#6F6F6F" d="M220,159l1,1L220,159z"/>
<path fill="#959595" d="M617,159l1,1L617,159z"/>
<path fill="#828282" d="M699,159l1,1L699,159z"/>
<path fill="#999999" d="M619,160l1,1L619,160z"/>
<path fill="#B2B2B2" d="M696,160l1,1L696,160z"/>
<path fill="#555555" d="M697,160l1,1L697,160z"/>
<path fill="#9D9D9D" d="M217,161l1,1L217,161z"/>
<path fill="#B6B6B6" d="M621,161l1,1L621,161z"/>
<path fill="#6F6F6F" d="M694,161l1,1L694,161z"/>
<path fill="#575757" d="M216,162l1,1L216,162z"/>
<path fill="#A6A6A6" d="M623,162l1,1L623,162z"/>
<path fill="#727272" d="M691,162l1,1L691,162z"/>
<path fill="#878787" d="M625,163l1,1L625,163z"/>
<path fill="#717171" d="M688,163l1,1L688,163z"/>
<path fill="#858585" d="M213,164l1,1L213,164z"/>
<path fill="#5D5D5D" d="M627,164l1,1L627,164z"/>
<path fill="#5B5B5B" d="M684.667,164.333c-0.445,0.445,0.611,0.389,0.666,0.334C685.778,164.222,684.722,164.278,684.667,164.333z"
	/>
<path fill="#6D6D6D" d="M630,165l1,1L630,165z"/>
<path fill="#323232" d="M681.667,165.333c-0.445,0.445,0.611,0.389,0.666,0.334C682.778,165.222,681.722,165.278,681.667,165.333z"
	/>
<path fill="#999999" d="M633.667,166.333c-0.445,0.445,0.611,0.389,0.666,0.334C634.778,166.222,633.722,166.278,633.667,166.333z"
	/>
<path fill="#777777" d="M676.667,166.333c-0.445,0.445,0.611,0.389,0.666,0.334C677.778,166.222,676.722,166.278,676.667,166.333z"
	/>
<path fill="#6D6D6D" d="M209,167l1,1L209,167z"/>
<path fill="#A2A2A2" d="M637.667,167.333c-0.445,0.445,0.611,0.389,0.666,0.334C638.778,167.222,637.722,167.278,637.667,167.333z"
	/>
<path fill="#A7A7A7" d="M670,167c1.248,0.685,1.548,0.749,3,1C671.752,167.315,671.451,167.251,670,167z"/>
<path fill="#686868" d="M641.667,168.333c-0.445,0.445,0.611,0.389,0.666,0.334C642.778,168.222,641.722,168.278,641.667,168.333z"
	/>
<path fill="#A7A7A7" d="M643,168c1.248,0.685,1.548,0.749,3,1C644.752,168.315,644.452,168.251,643,168z"/>
<path fill="#C1C1C1" d="M662.667,168.333c-0.445,0.445,0.611,0.389,0.666,0.334C663.778,168.222,662.722,168.278,662.667,168.333z"
	/>
<path fill="#8E8E8E" d="M664,168c1.248,0.685,1.549,0.749,3,1C665.752,168.315,665.452,168.251,664,168z"/>
<path fill="#9A9A9A" d="M206,169l1,1L206,169z"/>
<path fill="#454545" d="M648,169c2.613,1.098,5.164,0.993,8,1C653.387,168.902,650.836,169.007,648,169z"/>
<path fill="#1C1C1C" d="M656,169c1.506,0.683,2.315,0.826,4,1C658.494,169.317,657.685,169.174,656,169z"/>
<path fill="#595959" d="M205,170l1,1L205,170z"/>
<path fill="#909090" d="M202,172l1,1L202,172z"/>
<path fill="#B0B0B0" d="M199,174l1,1L199,174z"/>
<path fill="#6C6C6C" d="M198,175l1,1L198,175z"/>
<path fill="#B2B2B2" d="M195,177l1,1L195,177z"/>
<path fill="#7F7F7F" d="M194,178l1,1L194,178z"/>
<path fill="#7D7D7D" d="M190,181l1,1L190,181z"/>
<path fill="#505050" d="M189,182l1,1L189,182z"/>
<path fill="#888888" d="M185,185l1,1L185,185z"/>
<path fill="#5A5A5A" d="M184,186l1,1L184,186z"/>
<path fill="#6C6C6C" d="M183,187l1,1L183,187z"/>
<path fill="#7C7C7C" d="M182,188l1,1L182,188z"/>
<path fill="#979797" d="M181,189l1,1L181,189z"/>
<path fill="#4E4E4E" d="M179,192l1,1L179,192z"/>
<path fill="#8E8E8E" d="M178,193l1,1L178,193z"/>
<path fill="#4F4F4F" d="M177,195l1,1L177,195z"/>
<path fill="#9A9A9A" d="M175,198l1,1L175,198z"/>
<path fill="#AFAFAF" d="M174,200l1,1L174,200z"/>
<path fill="#6C6C6C" d="M173,203l1,1L173,203z"/>
<path fill="#636363" d="M172,206l1,1L172,206z"/>
<path fill="#5E5E5E" d="M171.333,209.667c-0.055,0.055-0.111,1.111,0.334,0.666C171.722,210.278,171.778,209.222,171.333,209.667z"
	/>
<path fill="#AAAAAA" d="M170.333,213.667c-0.055,0.055-0.111,1.111,0.334,0.666C170.722,214.278,170.778,213.222,170.333,213.667z"
	/>
<path fill="#424242" d="M170,215v4C170.71,217.241,170.71,216.759,170,215z"/>
<path fill="#1A1A1A" d="M170,219v481c1.552-3.699,1-8.017,1-12v-20v-74V339v-84v-23C171,227.74,171.661,222.959,170,219z"/>
<path fill="#4D4D4D" d="M855,615v5C855.83,617.97,855.83,617.03,855,615z"/>
<path fill="#A3A3A3" d="M855,620v3C855.696,621.446,855.696,621.554,855,620z"/>
<path fill="#949494" d="M854.333,625.667c-0.055,0.055-0.111,1.111,0.334,0.666C854.722,626.278,854.778,625.222,854.333,625.667z"
	/>
<path fill="#7B7B7B" d="M853,629l1,1L853,629 M850,635l1,1L850,635z"/>
<path fill="#585858" d="M417,638c1.506,0.683,2.315,0.826,4,1C419.494,638.317,418.685,638.174,417,638z"/>
<path fill="#888888" d="M421,638c2.052,0.874,3.747,0.953,6,1C424.948,638.126,423.253,638.047,421,638z"/>
<path fill="#AAAAAA" d="M427,638c3.959,1.661,8.737,1,13,1C436.041,637.339,431.263,638,427,638z"/>
<path fill="#606060" d="M440,638c1.248,0.685,1.548,0.749,3,1C441.752,638.315,441.452,638.251,440,638z"/>
<path fill="#858585" d="M848,638l1,1L848,638z"/>
<path fill="#565656" d="M408,639c1.248,0.685,1.548,0.749,3,1C409.752,639.315,409.452,639.251,408,639z"/>
<path fill="#AAAAAA" d="M411,639c1.248,0.685,1.548,0.749,3,1C412.752,639.315,412.452,639.251,411,639z"/>
<path fill="#D6D6D6" d="M447,639c1.248,0.685,1.548,0.749,3,1C448.752,639.315,448.452,639.251,447,639z"/>
<path fill="#767676" d="M450,639c1.248,0.685,1.548,0.749,3,1C451.752,639.315,451.452,639.251,450,639z"/>
<path fill="#525252" d="M847,639l1,1L847,639z"/>
<path fill="#646464" d="M401.667,640.333c-0.445,0.445,0.611,0.389,0.666,0.334C402.778,640.222,401.722,640.278,401.667,640.333z"
	/>
<path fill="#ACACAC" d="M403,640c1.248,0.685,1.548,0.749,3,1C404.752,640.315,404.452,640.251,403,640z"/>
<path fill="#AAAAAA" d="M456,640c1.248,0.685,1.548,0.749,3,1C457.752,640.315,457.452,640.251,456,640z"/>
<path fill="#8E8E8E" d="M396.667,641.333c-0.445,0.445,0.611,0.389,0.666,0.334C397.778,641.222,396.722,641.278,396.667,641.333z"
	/>
<path fill="#989898" d="M462,641c1.248,0.685,1.548,0.749,3,1C463.752,641.315,463.452,641.251,462,641z"/>
<path fill="#6A6A6A" d="M390,642c1.248,0.685,1.548,0.749,3,1C391.752,642.315,391.452,642.251,390,642z"/>
<path fill="#888888" d="M467.667,642.333c-0.445,0.445,0.611,0.389,0.666,0.334C468.778,642.222,467.722,642.278,467.667,642.333z"
	/>
<path fill="#8B8B8B" d="M386.667,643.333c-0.445,0.445,0.611,0.389,0.666,0.334C387.778,643.222,386.722,643.278,386.667,643.333z"
	/>
<path fill="#606060" d="M472.667,643.333c-0.445,0.445,0.611,0.389,0.666,0.334C473.778,643.222,472.722,643.278,472.667,643.333z"
	/>
<path fill="#A0A0A0" d="M382.667,644.333c-0.445,0.445,0.611,0.389,0.666,0.334C383.778,644.222,382.722,644.278,382.667,644.333z"
	/>
<path fill="#414141" d="M476.667,644.333c-0.445,0.445,0.611,0.389,0.666,0.334C477.778,644.222,476.722,644.278,476.667,644.333z"
	/>
<path fill="#A3A3A3" d="M378.667,645.333c-0.445,0.445,0.611,0.389,0.666,0.334C379.778,645.222,378.722,645.278,378.667,645.333z"
	/>
<path fill="#676767" d="M479.667,645.333c-0.445,0.445,0.611,0.389,0.666,0.334C480.778,645.222,479.722,645.278,479.667,645.333z"
	/>
<path fill="#4C4C4C" d="M841,645l1,1L841,645z"/>
<path fill="#CCCCCC" d="M375.667,646.333c-0.445,0.445,0.611,0.389,0.666,0.334C376.778,646.222,375.722,646.278,375.667,646.333z"
	/>
<path fill="#7F7F7F" d="M483,646l1,1L483,646z"/>
<path fill="#6E6E6E" d="M840,646l1,1L840,646z"/>
<path fill="#767676" d="M371,647l1,1L371,647z"/>
<path fill="#757575" d="M486,647l1,1L486,647z"/>
<path fill="#9D9D9D" d="M839,647l1,1L839,647z"/>
<path fill="#919191" d="M368,648l1,1L368,648z"/>
<path fill="#737373" d="M489,648l1,1L489,648z"/>
<path fill="#585858" d="M364,649l1,1L364,649z"/>
<path fill="#B4B4B4" d="M491,649l1,1L491,649z"/>
<path fill="#505050" d="M492,649l1,1L492,649z"/>
<path fill="#5D5D5D" d="M361,650l1,1L361,650z"/>
<path fill="#AAAAAA" d="M362,650l1,1L362,650z"/>
<path fill="#888888" d="M494,650l1,1L494,650z"/>
<path fill="#7F7F7F" d="M835,650l1,1L835,650z"/>
<path fill="#5E5E5E" d="M358,651l1,1L358,651z"/>
<path fill="#5A5A5A" d="M497,651l1,1L497,651z"/>
<path fill="#A1A1A1" d="M356,652l1,1L356,652z"/>
<path fill="#888888" d="M499,652l1,1L499,652z"/>
<path fill="#4F4F4F" d="M832,652l1,1L832,652z"/>
<path fill="#929292" d="M353,653l1,1L353,653z"/>
<path fill="#989898" d="M501,653l1,1L501,653z"/>
<path fill="#959595" d="M831,653l1,1L831,653z"/>
<path fill="#777777" d="M350,654l1,1L350,654z"/>
<path fill="#B2B2B2" d="M503,654l1,1L503,654z"/>
<path fill="#6B6B6B" d="M347,655l1,1L347,655z"/>
<path fill="#505050" d="M506,655l1,1L506,655z"/>
<path fill="#6B6B6B" d="M828,655l1,1L828,655z"/>
<path fill="#AAAAAA" d="M345,656l1,1L345,656z"/>
<path fill="#595959" d="M508,656l1,1L508,656z"/>
<path fill="#B2B2B2" d="M827,656l1,1L827,656z"/>
<path fill="#666666" d="M342,657l1,1L342,657z"/>
<path fill="#6E6E6E" d="M510,657l1,1L510,657z"/>
<path fill="#999999" d="M340,658l1,1L340,658z"/>
<path fill="#6E6E6E" d="M512,658l1,1L512,658z"/>
<path fill="#7F7F7F" d="M824,658l1,1L824,658z"/>
<path fill="#6B6B6B" d="M337,659l1,1L337,659z"/>
<path fill="#6C6C6C" d="M514,659l1,1L514,659z"/>
<path fill="#999999" d="M335,660l1,1L335,660z"/>
<path fill="#666666" d="M516,660l1,1L516,660z"/>
<path fill="#5D5D5D" d="M821,660l1,1L821,660z"/>
<path fill="#606060" d="M332,661l1,1L332,661z"/>
<path fill="#5B5B5B" d="M518,661l1,1L518,661z"/>
<path fill="#A6A6A6" d="M820,661l1,1L820,661z"/>
<path fill="#7A7A7A" d="M330,662l1,1L330,662z"/>
<path fill="#525252" d="M520,662l1,1L520,662z"/>
<path fill="#909090" d="M328,663l1,1L328,663z"/>
<path fill="#888888" d="M817,663l1,1L817,663z"/>
<path fill="#A1A1A1" d="M326,664l1,1L326,664z"/>
<path fill="#B2B2B2" d="M523,664l1,1L523,664z"/>
<path fill="#4C4C4C" d="M323,665l1,1L323,665z"/>
<path fill="#999999" d="M525,665l1,1L525,665z"/>
<path fill="#6E6E6E" d="M814,665l1,1L814,665z"/>
<path fill="#707070" d="M321,666l1,1L321,666z"/>
<path fill="#747474" d="M527,666l1,1L527,666z"/>
<path fill="#8A8A8A" d="M319,667l1,1L319,667z"/>
<path fill="#686868" d="M811,667l1,1L811,667z"/>
<path fill="#888888" d="M317,668l1,1L317,668z"/>
<path fill="#B2B2B2" d="M530,668l1,1L530,668 M810,668l1,1L810,668z"/>
<path fill="#909090" d="M315,669l1,1L315,669z"/>
<path fill="#7F7F7F" d="M532,669l1,1L532,669z"/>
<path fill="#545454" d="M808,669l1,1L808,669z"/>
<path fill="#9A9A9A" d="M313,670l1,1L313,670z"/>
<path fill="#A6A6A6" d="M807,670l1,1L807,670z"/>
<path fill="#909090" d="M311,671l1,1L311,671z"/>
<path fill="#AAAAAA" d="M535,671l1,1L535,671z"/>
<path fill="#4C4C4C" d="M805,671l1,1L805,671z"/>
<path fill="#999999" d="M309,672l1,1L309,672z"/>
<path fill="#5D5D5D" d="M537,672l1,1L537,672z"/>
<path fill="#ABABAB" d="M804,672l1,1L804,672z"/>
<path fill="#A1A1A1" d="M307,673l1,1L307,673z"/>
<path fill="#B4B4B4" d="M538,673l1,1L538,673z"/>
<path fill="#555555" d="M802,673l1,1L802,673z"/>
<path fill="#A8A8A8" d="M305,674l1,1L305,674z"/>
<path fill="#636363" d="M540,674l1,1L540,674z"/>
<path fill="#B5B5B5" d="M801,674l1,1L801,674z"/>
<path fill="#999999" d="M303,675l1,1L303,675z"/>
<path fill="#5D5D5D" d="M799,675l1,1L799,675z"/>
<path fill="#888888" d="M301,676l1,1L301,676z"/>
<path fill="#4D4D4D" d="M543,676l1,1L543,676z"/>
<path fill="#777777" d="M299,677l1,1L299,677z"/>
<path fill="#999999" d="M544,677l1,1L544,677z"/>
<path fill="#666666" d="M796,677l1,1L796,677z"/>
<path fill="#6A6A6A" d="M297,678l1,1L297,678z"/>
<path fill="#555555" d="M295,679l1,1L295,679z"/>
<path fill="#6E6E6E" d="M547,679l1,1L547,679z"/>
<path fill="#7F7F7F" d="M793,679l1,1L793,679z"/>
<path fill="#A2A2A2" d="M548,680l1,1L548,680z"/>
<path fill="#4C4C4C" d="M791,680l1,1L791,680z"/>
<path fill="#A1A1A1" d="M790,681l1,1L790,681z"/>
<path fill="#ABABAB" d="M290,682l1,1L290,682z"/>
<path fill="#4F4F4F" d="M551,682l1,1L551,682z"/>
<path fill="#707070" d="M788,682l1,1L788,682z"/>
<path fill="#7F7F7F" d="M288,683l1,1L288,683z"/>
<path fill="#909090" d="M552,683l1,1L552,683z"/>
<path fill="#555555" d="M286,684l1,1L286,684z"/>
<path fill="#909090" d="M785,684l1,1L785,684z"/>
<path fill="#585858" d="M783,685l1,1L783,685z"/>
<path fill="#A1A1A1" d="M283,686l1,1L283,686z"/>
<path fill="#6E6E6E" d="M556,686l1,1L556,686z"/>
<path fill="#838383" d="M281,687l1,1L281,687z"/>
<path fill="#A1A1A1" d="M557,687l1,1L557,687z"/>
<path fill="#999999" d="M780,687l1,1L780,687z"/>
<path fill="#555555" d="M279,688l1,1L279,688z"/>
<path fill="#666666" d="M778,688l1,1L778,688z"/>
<path fill="#7F7F7F" d="M560,689l1,1L560,689z"/>
<path fill="#A5A5A5" d="M276,690l1,1L276,690z"/>
<path fill="#B6B6B6" d="M561,690l1,1L561,690z"/>
<path fill="#B1B1B1" d="M775,690l1,1L775,690z"/>
<path fill="#707070" d="M274,691l1,1L274,691z"/>
<path fill="#494949" d="M563,691l1,1L563,691z"/>
<path fill="#878787" d="M773,691l1,1L773,691z"/>
<path fill="#9B9B9B" d="M564,692l1,1L564,692z"/>
<path fill="#636363" d="M771,692l1,1L771,692z"/>
<path fill="#909090" d="M271,693l1,1L271,693z"/>
<path fill="#5D5D5D" d="M269,694l1,1L269,694z"/>
<path fill="#999999" d="M567,694l1,1L567,694z"/>
<path fill="#ADADAD" d="M766,695l1,1L766,695z"/>
<path fill="#7F7F7F" d="M266,696l1,1L266,696z"/>
<path fill="#A1A1A1" d="M570,696l1,1L570,696z"/>
<path fill="#888888" d="M764,696l1,1L764,696z"/>
<path fill="#4C4C4C" d="M264,697l1,1L264,697z"/>
<path fill="#5D5D5D" d="M572,697l1,1L572,697z"/>
<path fill="#777777" d="M762,697l1,1L762,697z"/>
<path fill="#B6B6B6" d="M573,698l1,1L573,698z"/>
<path fill="#6F6F6F" d="M760,698l1,1L760,698z"/>
<path fill="#818181" d="M261,699l1,1L261,699z"/>
<path fill="#777777" d="M575,699l1,1L575,699z"/>
<path fill="#6E6E6E" d="M758,699l1,1L758,699z"/>
<path fill="#787878" d="M170,700v3C170.696,701.446,170.696,701.554,170,700z"/>
<path fill="#4C4C4C" d="M577,700l1,1L577,700z"/>
<path fill="#666666" d="M756,700l1,1L756,700z"/>
<path fill="#888888" d="M258,701l1,1L258,701z"/>
<path fill="#666666" d="M754,701l1,1L754,701z"/>
<path fill="#909090" d="M580,702l1,1L580,702z"/>
<path fill="#666666" d="M752,702l1,1L752,702z"/>
<path fill="#A0A0A0" d="M255,703l1,1L255,703z"/>
<path fill="#646464" d="M582,703l1,1L582,703z"/>
<path fill="#6D6D6D" d="M750,703l1,1L750,703z"/>
<path fill="#4C4C4C" d="M253,704l1,1L253,704z"/>
<path fill="#555555" d="M584,704l1,1L584,704z"/>
<path fill="#6E6E6E" d="M748,704l1,1L748,704z"/>
<path fill="#ABABAB" d="M252,705l1,1L252,705z"/>
<path fill="#7F7F7F" d="M746,705l1,1L746,705z"/>
<path fill="#7D7D7D" d="M171.333,706.667c-0.055,0.055-0.111,1.111,0.334,0.666C171.722,707.278,171.778,706.222,171.333,706.667z"
	/>
<path fill="#636363" d="M250,706l1,1L250,706z"/>
<path fill="#ABABAB" d="M587,706l1,1L587,706z"/>
<path fill="#A4A4A4" d="M744,706l1,1L744,706z"/>
<path fill="#9E9E9E" d="M589,707l1,1L589,707z"/>
<path fill="#717171" d="M247,708l1,1L247,708z"/>
<path fill="#9B9B9B" d="M591,708l1,1L591,708z"/>
<path fill="#595959" d="M739,708l1,1L739,708z"/>
<path fill="#979797" d="M593,709l1,1L593,709z"/>
<path fill="#7F7F7F" d="M737,709l1,1L737,709z"/>
<path fill="#565656" d="M172,710l1,1L172,710z"/>
<path fill="#717171" d="M244,710l1,1L244,710z"/>
<path fill="#959595" d="M595,710l1,1L595,710z"/>
<path fill="#ABABAB" d="M735,710l1,1L735,710z"/>
<path fill="#A7A7A7" d="M172,711l1,1L172,711z"/>
<path fill="#A3A3A3" d="M597,711l1,1L597,711z"/>
<path fill="#6F6F6F" d="M732,711l1,1L732,711z"/>
<path fill="#5D5D5D" d="M241,712l1,1L241,712z"/>
<path fill="#999999" d="M730,712l1,1L730,712z"/>
<path fill="#686868" d="M173,713l1,1L173,713z"/>
<path fill="#B5B5B5" d="M240,713l1,1L240,713z"/>
<path fill="#4A4A4A" d="M602,713l1,1L602,713z"/>
<path fill="#696969" d="M727,713l1,1L727,713z"/>
<path fill="#585858" d="M238,714l1,1L238,714z"/>
<path fill="#626262" d="M604,714l1,1L604,714z"/>
<path fill="#505050" d="M724,714l1,1L724,714z"/>
<path fill="#AEAEAE" d="M725,714l1,1L725,714z"/>
<path fill="#A3A3A3" d="M237,715l1,1L237,715z"/>
<path fill="#7F7F7F" d="M606,715l1,1L606,715z"/>
<path fill="#888888" d="M722,715l1,1L722,715z"/>
<path fill="#A1A1A1" d="M608,716l1,1L608,716z"/>
<path fill="#6E6E6E" d="M719,716l1,1L719,716z"/>
<path fill="#9D9D9D" d="M234,717l1,1L234,717z"/>
<path fill="#B6B6B6" d="M610,717l1,1L610,717z"/>
<path fill="#525252" d="M611,717l1,1L611,717z"/>
<path fill="#747474" d="M716,717l1,1L716,717z"/>
<path fill="#999999" d="M613,718l1,1L613,718z"/>
<path fill="#777777" d="M713,718l1,1L713,718z"/>
<path fill="#4C4C4C" d="M176,719l1,1L176,719z"/>
<path fill="#919191" d="M231,719l1,1L231,719z"/>
<path fill="#5E5E5E" d="M616,719l1,1L616,719z"/>
<path fill="#8F8F8F" d="M710,719l1,1L710,719z"/>
<path fill="#A9A9A9" d="M618,720l1,1L618,720z"/>
<path fill="#555555" d="M619,720l1,1L619,720z"/>
<path fill="#9F9F9F" d="M706.667,720.333c-0.445,0.445,0.611,0.389,0.666,0.334C707.778,720.222,706.722,720.278,706.667,720.333z"
	/>
<path fill="#7B7B7B" d="M177,721l1,1L177,721z"/>
<path fill="#707070" d="M228,721l1,1L228,721z"/>
<path fill="#ABABAB" d="M621,721l1,1L621,721z"/>
<path fill="#575757" d="M622,721l1,1L622,721z"/>
<path fill="#8F8F8F" d="M702.667,721.333c-0.445,0.445,0.611,0.389,0.666,0.334C703.778,721.222,702.722,721.278,702.667,721.333z"
	/>
<path fill="#696969" d="M624.667,722.333c-0.445,0.445,0.611,0.389,0.666,0.334C625.778,722.222,624.722,722.278,624.667,722.333z"
	/>
<path fill="#C3C3C3" d="M699.667,722.333c-0.445,0.445,0.611,0.389,0.666,0.334C700.778,722.222,699.722,722.278,699.667,722.333z"
	/>
<path fill="#555555" d="M628.667,723.333c-0.445,0.445,0.611,0.389,0.666,0.334C629.778,723.222,628.722,723.278,628.667,723.333z"
	/>
<path fill="#7F7F7F" d="M694.667,723.333c-0.445,0.445,0.611,0.389,0.666,0.334C695.778,723.222,694.722,723.278,694.667,723.333z"
	/>
<path fill="#898989" d="M179,724l1,1L179,724z"/>
<path fill="#919191" d="M224,724l1,1L224,724z"/>
<path fill="#5A5A5A" d="M632.667,724.333c-0.445,0.445,0.611,0.389,0.666,0.334C633.778,724.222,632.722,724.278,632.667,724.333z"
	/>
<path fill="#838383" d="M689,724c1.248,0.685,1.548,0.749,3,1C690.752,724.315,690.452,724.251,689,724z"/>
<path fill="#515151" d="M180,725l1,1L180,725z"/>
<path fill="#808080" d="M636.667,725.333c-0.445,0.445,0.611,0.389,0.666,0.334C637.778,725.222,636.722,725.278,636.667,725.333z"
	/>
<path fill="#727272" d="M683,725c1.248,0.685,1.548,0.749,3,1C684.752,725.315,684.452,725.251,683,725z"/>
<path fill="#6B6B6B" d="M221,726l1,1L221,726z"/>
<path fill="#AAAAAA" d="M641,726c1.248,0.685,1.548,0.749,3,1C642.752,726.315,642.452,726.251,641,726z"/>
<path fill="#353535" d="M644.667,726.333c-0.445,0.445,0.611,0.389,0.666,0.334C645.778,726.222,644.722,726.278,644.667,726.333z"
	/>
<path fill="#3A3A3A" d="M674,726c1.248,0.685,1.548,0.749,3,1C675.752,726.315,675.452,726.251,674,726z"/>
<path fill="#858585" d="M677,726c1.248,0.685,1.549,0.749,3,1C678.752,726.315,678.452,726.251,677,726z"/>
<path fill="#B2B2B2" d="M220,727l1,1L220,727z"/>
<path fill="#D2D2D2" d="M648.667,727.333c-0.445,0.445,0.611,0.389,0.666,0.334C649.778,727.222,648.722,727.278,648.667,727.333z"
	/>
<path fill="#7D7D7D" d="M650,727c1.769,0.779,3.036,0.912,5,1C653.231,727.221,651.964,727.088,650,727z"/>
<path fill="#555555" d="M655,727c2.331,0.984,4.457,0.981,7,1C659.668,727.015,657.543,727.019,655,727z"/>
<path fill="#7B7B7B" d="M662,727c2.331,0.984,4.457,0.981,7,1C666.668,727.015,664.543,727.019,662,727z"/>
<path fill="#C1C1C1" d="M669,727c1.248,0.685,1.549,0.749,3,1C670.752,727.315,670.452,727.251,669,727z"/>
<path fill="#8C8C8C" d="M217,729l1,1L217,729z"/>
<path fill="#777777" d="M214,731l1,1L214,731z"/>
<path fill="#6E6E6E" d="M187,732l1,1L187,732z"/>
<path fill="#B3B3B3" d="M188,733l1,1L188,733z"/>
<path fill="#9F9F9F" d="M211,733l1,1L211,733z"/>
<path fill="#939393" d="M190,734l1,1L190,734z"/>
<path fill="#A4A4A4" d="M209,734l1,1L209,734z"/>
<path fill="#AEAEAE" d="M192,735l1,1L192,735z"/>
<path fill="#4E4E4E" d="M193,735l1,1L193,735z"/>
<path fill="#5A5A5A" d="M206,735l1,1L206,735z"/>
<path fill="#8D8D8D" d="M195.667,736.333c-0.445,0.445,0.611,0.389,0.666,0.334C196.778,736.222,195.722,736.278,195.667,736.333z"
	/>
<path fill="#373737" d="M197,736c1.769,0.779,3.036,0.912,5,1C200.231,736.221,198.964,736.088,197,736z"/>
<path fill="#898989" d="M202.667,736.333c-0.445,0.445,0.611,0.389,0.666,0.334C203.778,736.222,202.722,736.278,202.667,736.333z"
	/>
<path fill="#7A7A7A" d="M43,964l1,1L43,964z"/>
<path fill="#797979" d="M126,964l1,1L126,964z"/>
<path fill="#959595" d="M44,967l1,1L44,967z"/>
<path fill="#8E8E8E" d="M125,967l1,1L125,967z"/>
<path fill="#B4B4B4" d="M45,969l1,1L45,969z"/>
<path fill="#ABABAB" d="M124,969l1,1L124,969z"/>
<path fill="#5F5F5F" d="M46,970l1,1L46,970z"/>
<path fill="#575757" d="M123,970l1,1L123,970z"/>
<path fill="#6E6E6E" d="M51,975l1,1L51,975z"/>
<path fill="#666666" d="M118,975l1,1L118,975z"/>
<path fill="#A8A8A8" d="M52,976l1,1L52,976z"/>
<path fill="#ADADAD" d="M117,976l1,1L117,976z"/>
<path fill="#686868" d="M54,977l1,1L54,977z"/>
<path fill="#6E6E6E" d="M115,977l1,1L115,977 M56,978l1,1L56,978z"/>
<path fill="#737373" d="M113,978l1,1L113,978z"/>
<path fill="#727272" d="M58.667,979.333c-0.444,0.445,0.611,0.389,0.667,0.334C59.778,979.222,58.722,979.278,58.667,979.333z"/>
<path fill="#767676" d="M109.667,979.333c-0.445,0.445,0.611,0.389,0.666,0.334C110.778,979.222,109.722,979.278,109.667,979.333z"
	/>
<path fill="#DDDDDD" d="M63,980c4.215,1.769,9.464,1,14,1h29c-4.215-1.769-9.464-1-14-1H63z"/>
</svg>
