<?xml version="1.0" encoding="utf-8"?>
<!-- Generator: Adobe Illustrator 19.0.0, SVG Export Plug-In . SVG Version: 6.00 Build 0)  -->
<svg version="1.1" id="Layer_1" xmlns="http://www.w3.org/2000/svg" xmlns:xlink="http://www.w3.org/1999/xlink" x="0px" y="0px"
	 viewBox="0 0 612 792" style="enable-background:new 0 0 612 792;" xml:space="preserve">
<style type="text/css">
	.st0{fill:none;stroke:#000000;stroke-width:7;stroke-miterlimit:10;}
</style>
<g id="A6_12_">
	<polygon class="st0" stroke-width="9" points="384.7,181.3 497.3,161.5 570.8,249.1 531.7,356.4 419.1,376.2 345.6,288.7 	"/>
	<polygon class="st0" stroke-width="9" points="198.7,113.6 311.3,93.8 384.8,181.4 345.7,288.7 233.1,308.5 159.6,221 	"/>
	<polygon class="st0" stroke-width="9" points="419.3,375.9 531.8,356.1 605.3,443.6 566.3,551 453.7,570.8 380.2,483.2 	"/>
	<polygon class="st0" stroke-width="9" points="233.2,308.2 345.8,288.4 419.3,375.9 380.2,483.2 267.6,503.1 194.1,415.5 	"/>
	<polygon class="st0" stroke-width="9" points="47.1,240.5 159.7,220.6 233.2,308.2 194.1,415.5 81.6,435.3 8.1,347.8 	"/>
	<polygon class="st0" stroke-width="9" points="267.7,502.7 380.3,482.9 453.8,570.4 414.7,677.8 302.2,697.6 228.7,610.1 	"/>
	<polygon class="st0" stroke-width="9" points="81.7,435 194.3,415.2 267.7,502.7 228.7,610.1 116.1,629.9 42.6,542.3 	"/>
</g>
</svg>
