<svg id="svg" xmlns="http://www.w3.org/2000/svg" xmlns:xlink="http://www.w3.org/1999/xlink" width="400" height="400" viewBox="0, 0, 400,400"><g id="svgg"><path id="path0" d="M168.731 28.859 C 116.988 40.650,75.353 77.830,58.952 126.889 C 51.305 149.762,49.687 179.596,51.270 268.500 L 52.614 344.000 60.307 344.000 L 68.000 344.000 68.000 320.608 L 68.000 297.217 74.238 307.054 C 77.669 312.464,86.576 322.990,94.031 330.445 L 107.586 344.000 153.293 343.868 C 197.129 343.742,198.550 343.618,188.000 340.826 C 87.135 314.137,48.405 198.734,116.877 128.901 C 186.566 57.827,311.872 127.396,270.697 214.303 C 244.159 270.317,162.712 265.528,154.756 207.486 C 147.948 157.816,219.290 134.799,232.140 182.520 C 239.621 210.301,204.037 230.266,186.564 208.092 C 179.419 199.025,188.511 178.000,199.576 178.000 C 211.102 178.000,218.274 193.512,210.149 200.865 C 202.614 207.684,190.938 198.887,196.888 190.875 C 200.308 186.270,207.217 189.172,206.687 194.990 C 206.477 197.295,207.036 197.764,208.385 196.415 C 212.107 192.693,208.174 186.000,202.265 186.000 C 191.678 186.000,187.737 198.788,196.445 204.887 C 205.811 211.447,220.000 204.398,220.000 193.185 C 220.000 165.240,179.704 166.519,176.543 194.565 C 173.104 225.080,212.491 239.192,233.695 215.042 C 250.420 195.993,245.835 164.784,224.315 151.199 C 163.642 112.898,106.178 201.866,159.200 252.012 C 214.316 304.139,302.112 260.028,302.526 180.000 C 303.047 79.399,173.445 31.871,95.198 103.968 C 84.203 114.099,85.440 110.463,98.638 93.860 C 150.671 28.401,256.515 30.950,304.952 98.829 C 328.364 131.637,330.175 140.772,331.408 232.238 L 332.423 307.477 320.730 315.850 C 305.898 326.471,287.414 335.588,271.463 340.150 L 259.000 343.715 303.500 343.858 L 348.000 344.000 348.000 248.320 C 348.000 142.015,347.531 137.362,334.029 109.669 C 304.390 48.882,233.322 14.139,168.731 28.859 M40.000 354.000 L 40.000 360.000 200.000 360.000 L 360.000 360.000 360.000 354.000 L 360.000 348.000 200.000 348.000 L 40.000 348.000 40.000 354.000 M28.000 370.000 L 28.000 376.000 200.000 376.000 L 372.000 376.000 372.000 370.000 L 372.000 364.000 200.000 364.000 L 28.000 364.000 28.000 370.000 " stroke="none" fill="#000000" fill-rule="evenodd"></path></g></svg>