<?xml version="1.0" encoding="utf-8"?>
<!-- Generator: Adobe Illustrator 15.0.0, SVG Export Plug-In . SVG Version: 6.00 Build 0)  -->
<!DOCTYPE svg PUBLIC "-//W3C//DTD SVG 1.1//EN" "http://www.w3.org/Graphics/SVG/1.1/DTD/svg11.dtd">
<svg version="1.1" id="Layer_1" xmlns="http://www.w3.org/2000/svg" xmlns:xlink="http://www.w3.org/1999/xlink" x="0px" y="0px"
	 width="1160px" height="770px" viewBox="0 0 1160 770" enable-background="new 0 0 1160 770" xml:space="preserve">
<path fill="#1D1D1F" d="M546,91v17c0.005,2.38-0.394,5.487,1.028,7.567c3.563,5.212,13.859,3.113,18.972,2.602
	c17.561-1.756,34.199-6.169,52-6.169v28c-2.455,0.059-5.489-0.133-7.396,1.742C608.017,144.285,609,149.726,609,153
	c0,8.642-2.061,17.732,9,18v20h-26c-5.231,0-10.48-0.486-14.996,2.653c-7.047,4.897-10.661,13.353-12.852,21.347
	c-4.138,15.095-4.138,30.881,0.006,46c2.031,7.409,5.662,15.619,11.882,20.442c5.068,3.93,10.897,3.558,16.96,3.558h25v16h-45
	c-10.724,0-20.861-0.737-29.999,5.928c-11.536,8.414-18.347,23.689-22.141,37.072c-8.243,29.074-8.113,61.245,1.473,90
	c4.244,12.728,11.127,26.309,22.667,33.892c7.915,5.201,16.969,4.108,26,4.108h47v50h-56c-6.509,0-17.089,2-22.985-1.028
	c-4.196-2.153-6.878-7.132-9.319-10.972c-7.622-11.988-10.693-24.912-10.695-39h-41c-4.063,0-12.256,1.537-15.397-1.603
	C458.851,465.644,461,453.973,461,449h53c-26.21-18.506-24.171-60.58-20.13-89c1.954-13.745,6.817-27.357,18.13-36
	c-4.969-2.085-11.65-1-17-1h-34v-36c0-3.608,1.306-10.324-2.318-12.566c-3.983-2.465-9.383-0.752-13.682-0.459
	c-13.182,0.901-27.121,6.719-40,2.025v18c16.865,3.131,33.995-4,51-4v33h-26c-5.249,0-10.455-0.497-14.91,2.804
	c-7.922,5.871-10.945,17.109-13.217,26.196c-5.559,22.245-5.692,48.933,0.848,71c2.31,7.791,4.989,17.007,11.463,22.442
	C418.769,449.291,424.376,449,430,449h26v22c-16.404,0-33.693,1.572-50-0.174c-20.304-2.173-41.077-8.674-61-13.176
	c-31.262-7.063-62.76-13.143-94-20.302c-26.289-6.024-53.252-13.895-80-17.349c7.959,4.862,19.129,6.379,28,9.333
	c20.396,6.793,40.804,13.334,61,20.72c39.494,14.445,82.112,29.854,116,55.322c6.042,4.541,11.852,9.779,16.671,15.625
	c2.507,3.04,3.862,7.439,6.827,10.009c4.346,3.767,10.693,5.914,15.502,9.186c14.098,9.591,28.104,21.823,35,37.806
	c24.622-4.639,49.873-8.411,75-7.741c53.84,1.438,106.495,10.179,160,15.907c24.845,2.66,50.005,5.824,75,5.834h17
	c2.602,0,6.168,0.578,8.581-0.604c3.233-1.584,4.165-7.347,5.431-10.396c3.208-7.732,7.17-15.259,12.145-22
	c4.89-6.627,11.041-13.095,17.844-17.779c3.825-2.634,10.064-3.928,12.914-7.639c3.866-5.033,4.769-13.627,6.753-19.582
	c4.773-14.333,9.659-28.634,14.333-43h-64c0-4.973-2.149-16.644,1.604-20.397C795.992,447.214,805.584,449,810,449
	c16.066,0,31.997,0.313,48,1c-4.652-2.946-9.004-4.709-12.815-9.004c-17.756-20.007-18.175-56.378-12.533-80.996
	c3.045-13.287,9.079-30.443,23.349-35c-5.951-2.497-14.58-1-21-1h-44v-50c-6.957-0.549-13.03-0.703-20,0.285
	c-11.955,1.695-24.174,5.464-36,1.715v18c17.259,2.181,33.715-4,51-4v34h-33c-7.028,0-13.974-0.594-19.96,3.8
	c-7.918,5.813-12.191,17.084-14.746,26.2c-6.017,21.468-5.926,45.596,0.427,67c2.733,9.211,7.097,19.657,15.283,25.347
	C738.999,449.819,745.23,449,751,449h35v22h-40c-5.955,0-13.347,1.155-19-0.995c-5.475-2.082-10.006-6.726-13.826-11.005
	c-10.481-11.741-15.845-27.759-18.598-43c-4.494-24.872-4.258-51.963,4.478-76c5.739-15.79,15.313-33.81,32.946-38
	c-3.699-1.552-8.017-1-12-1h-20h-74v-16h54c-3.058-2.125-6.409-3.713-8.96-6.518c-14.171-15.586-15.663-43.228-9.692-62.482
	c2.96-9.544,7.782-20.174,17.652-24c-4.969-2.085-11.65-1-17-1h-36v-20c11.214-0.333,10.003-9.112,10-18
	c-0.001-3.355,0.605-7.804-1.742-10.566c-2.074-2.44-5.343-2.364-8.258-2.434v-36c0-3.588,1.29-10.415-1.604-13.142
	c-4.469-4.212-17.843-2.038-23.396-1.282c-9.008,1.227-17.982,2.558-27,3.709C563.749,94.594,555.49,96.247,546,91 M189,409
	c4.78,3.677,13.118,3.824,19,5c14.626,2.925,29.301,5.964,44,8.435c46.384,7.8,92.331,20.538,139,26.565
	c-18.869-21.045-16.544-50.654-16-77c-18.748,2.382-37.482,7.222-56,10.996c-28.642,5.838-57.364,11.39-86,17.289
	C218.557,403.261,203.713,407.798,189,409 M167,419c1.248,0.685,1.548,0.749,3,1C168.752,419.315,168.452,419.251,167,419z"/>
<path fill="#F8F8F8" d="M626,472v50h60c6.248,0,18.208,2.294,23.41-1.604c9.677-7.25,15.09-22.985,17.166-34.396
	c0.598-3.287,3.012-10.438-0.18-12.972c-1.886-1.497-5.162-1.023-7.396-1.028h-19H626 M416.148,488.746
	c-7.249,3.16-3.389,20.14,6.624,15.651C430.163,501.083,425.641,484.608,416.148,488.746 M436.228,488.743
	c-7.36,3.377-3.434,20.021,6.624,15.654C450.118,501.242,445.741,484.379,436.228,488.743 M456.228,489.029
	c-7.636,4.62-2.122,20.694,7.624,14.942C471.403,499.516,465.3,483.54,456.228,489.029 M477.109,488.743
	c-8.647,3.651-3.454,20.188,6.663,15.654C491.183,501.074,486.756,484.668,477.109,488.743 M497.228,488.743
	c-7.359,3.392-3.431,20.019,6.624,15.654C511.064,501.265,507.113,484.188,497.228,488.743 M742.229,489.742
	c-7.453,3.464-2.795,19.431,6.662,15.512C757.488,501.691,752.273,485.075,742.229,489.742 M762.148,490.028
	c-7.547,4.453-1.548,20.341,7.623,14.792C777.419,500.194,771.825,484.317,762.148,490.028 M782.318,490.028
	c-6.712,4.475-1.016,21.147,8.248,14.793C797.34,500.174,791.563,483.865,782.318,490.028 M802.318,490.028
	c-6.725,4.481-0.6,20.749,8.363,14.793C817.459,500.317,811.667,483.795,802.318,490.028 M823.148,490.028
	c-7.548,4.449-1.548,20.341,7.623,14.792C838.399,500.206,832.497,484.515,823.148,490.028 M547.318,536.028
	c-6.32,4.203-1.725,20.366,7.533,14.942C562.418,546.539,556.655,529.817,547.318,536.028 M568.229,535.742
	c-7.336,3.409-3.235,19.915,6.623,15.515C582.072,548.035,578.273,531.075,568.229,535.742 M588.229,535.742
	c-7.44,3.457-2.613,19.356,6.662,15.65C603.515,547.947,598.494,530.973,588.229,535.742 M608.229,536.028
	c-7.571,4.613-1.579,20.335,7.623,14.942C623.446,546.521,617.858,530.159,608.229,536.028 M628.318,536.028
	c-6.67,4.445-0.913,21.078,8.248,14.793C643.386,546.142,637.662,529.798,628.318,536.028 M649.229,535.742
	c-7.453,3.464-2.795,19.431,6.662,15.512C664.488,547.691,659.273,531.075,649.229,535.742 M669.148,536.028
	c-7.521,4.435-1.663,20.447,7.623,14.793C684.387,546.183,678.496,530.516,669.148,536.028 M689.318,536.028
	c-6.715,4.466-1.018,21.148,8.248,14.793C704.355,546.164,698.443,529.958,689.318,536.028z"/>
<path fill="#1D1D1F" d="M385,613c3.915,0.822,8.156-1.381,12-2.37c8.179-2.105,16.609-4.43,25-5.474
	c29.131-3.627,57.713-4.399,87-3.117c77.715,3.403,154.954,25.395,233,20.05c43.928-3.008,83.71-9.933,121-35.089
	c-4.711-1.076-10.367,1.71-15,2.873c-9.567,2.403-19.291,3.811-29,5.512c-22.591,3.958-48.119,4.092-71,2.526
	C674.281,592.862,600.991,577,527,577C476.279,577,427.894,584.063,385,613z"/>
</svg>
