<?xml version="1.0" encoding="utf-8"?>
<!-- Generator: Adobe Illustrator 15.0.0, SVG Export Plug-In . SVG Version: 6.00 Build 0)  -->
<!DOCTYPE svg PUBLIC "-//W3C//DTD SVG 1.1//EN" "http://www.w3.org/Graphics/SVG/1.1/DTD/svg11.dtd">
<svg version="1.1" id="Layer_1" xmlns="http://www.w3.org/2000/svg" xmlns:xlink="http://www.w3.org/1999/xlink" x="0px" y="0px"
	 width="316px" height="216px" viewBox="0 0 316 216" enable-background="new 0 0 316 216" xml:space="preserve">
<g>
	<g>
		<path d="M225.672,17.389c0,0,0.324,7.614,8.836,6.025c9.471-1.771,7.26-18.722-20.55-16.887
			c-19.776,1.306-51.728,21.292-54.227,54.833c0,0,7.448-45.646,54.88-52.577c19.548-2.856,25.276,8.745,20.316,11.519
			c-4.298,2.405-8.242-3.106-4.558-5.875c-23.134-5.061-51.407,16.953-47.961,46.729c2.622,22.689,25.581,32.984,25.581,32.984
			s-27.127-14.556-19.76-44.116c2.221-6.93,7.81-16.98,21.809-20.379c9.127-2.215,12.465,3.043,10.26,4.58
			c-1.912,1.33-4.079-1.115-2.479-2.591c-8.241-1.015-17.011,4.989-19.852,13.772c-2.604,1.71-5.021,3.859-7.091,6.509
			c0,0,15.557-16.856,36.817-8.94c8.765,3.261,7.923,9.269,5.137,9.273c-2.415,0.007-2.514-3.125-0.25-3.417
			c-8.054-7.29-25.633-4.745-32.394,8.127c-5.153,9.811,1.394,19.187,1.394,19.187s-4.937-8.403-0.095-17.194
			c2.344-2.546,5.411-4.875,9.422-6.728c8.41-3.894,12.878,0.626,11.073,2.547c-1.566,1.666-4.243-0.321-3.018-2.069
			c-11.309,0.764-20.603,14.531-14.253,27.623c4.836,9.978,16.91,11.618,16.91,11.618s-14.969-3.092-16.101-17.927
			c-0.93-12.221,7.876-19.04,11.789-19.343c0,0,1.373,3.422,4.978,1.57c4.016-2.063,0.287-9.482-12.04-4.959
			c-1.54,0.564-3.158,1.444-4.757,2.592c0.158-0.152,0.322-0.303,0.492-0.455c9.585-8.579,21.051-6.946,23.868-4.449
			c0,0-1.956,3.167,1.957,4.446c4.35,1.424,8.095-5.962-3.762-11.508c-5.871-2.747-16.643-3.147-26.092,1.277
			c3.736-7.248,10.72-10.288,13.796-9.941c0,0,0.557,3.606,4.513,2.474c4.403-1.257,2.447-9.212-10.654-7.118
			c-5.857,0.937-13.606,5.593-18.404,12.907C199.948,22.451,218.52,15.897,225.672,17.389z"/>
		<path d="M207.186,87.667c0,0,12.037,11.643,36.219,5.034c26.408-7.221,37.271-7.758,54.081,0.427c0,0-17.606-7.728-36.01-2.42
			C246.061,95.153,223.568,103.913,207.186,87.667z"/>
		<path d="M220.456,3.461c0,0-34.747-12.598-78.413,25.877C105.709,61.354,70.842,84.794,37.5,79.822c0,0,22.926,6.068,50.792-4.626
			C135.185,57.198,165.163-1.501,220.456,3.461z"/>
		<path d="M77.954,93.484c22.431-4.156,53.49-17.064,70.698-43.003c13.75-20.724,30.61-39.592,52.244-43.055
			c0,0-18.877,2.807-36.773,28.192c-9.012,12.778-16.65,32.986-41.965,46.353C104.522,91.282,77.954,93.484,77.954,93.484z"/>
		<path d="M18.525,90.11c0,0,52.101,19.605,101.183-3.563c37.565-17.732,52.037-14.563,58.894-5.166
			c12.891,17.671,37.624,37.093,79.549,18.757c0,0-37.38,22.099-73.671-0.127c-21.667-13.268-31.866-12.771-54.768-4.712
			C108.806,102.657,61.994,110.246,18.525,90.11z"/>
	</g>
	<g>
		<path d="M151.185,153.927c-5.431-1.373-6.419,2.283-6.419,2.283c-3.937,2.283-5.875-4.544,2.368-5.038
			c8.919-0.53,15.393,8.919,15.393,8.919s-1.185-3.056-4.719-5.889c-8.551-6.852-17.999-3.666-17.999,1.963
			c0,6.367,7.75,4.032,7.643,1.271c-0.108-1.316,1.998-4.444,4.142-0.425c7.301,13.682-13.646,24.34-21.85,12.749
			c-8.204-11.59-29.02-11.08-48.24-2.37c-15.487,7.016-25.214,5.08-27.626,4.401c5.678,1.795,11.619,3.832,30.219-3.803
			c19.254-7.904,34.132-6.146,41.789,2.106c5.454,5.877,13.519,7.636,22.31,3.586c9.45-4.353,7.327-15.925,7.327-15.925
			c6.159,4.245,4.932,11.109,4.932,11.109C162.052,162.062,157.247,155.457,151.185,153.927z"/>
		<path d="M175.018,153.317c0,0,3.822,19.107-13.074,26.416c-15.267,6.602-32.646,1.271-41.883-7.645
			c-9.237-8.918-25.163,0-42.68,1.593c15.926-0.159,21.282-3.827,30.736-2.867c10.989,1.113,10.735,13.502,33.443,16.721
			C162.9,190.562,182.024,178.162,175.018,153.317z"/>
		<path d="M41.252,176.725c0,0,11.945,6.689,37.265,1.91c19.917-3.757,27.708-6.687,42.04,4.301
			c14.331,10.988,29.658,12.09,37.779,10.655c0,0-21.698,4.901-39.211-5.878c-18.631-11.465-31.531-5.256-50.64-4.777
			S41.252,176.725,41.252,176.725z"/>
		<path d="M165.783,169.08c0,0,8.106-10.05,2.371-21.834c-3.583-7.367-9.556-4.62-9.556-2.229c0,0,1.275,3.502-3.343,4.14
			c-3.015,0.416-7.566-6.165,1.593-11.785c7.007-4.301,30.576-2.388,28.667,28.825c0,0-0.322-19.139-10.511-25.64
			c-4.585-2.923-8.03-3.57-12.262-3.345c-8.921,0.479-11.149,8.919-8.921,9.715c2.705,0.965,2.231-3.187,2.231-3.187
			s3.982-5.732,11.304-1.432C174.684,146.608,173.763,161.773,165.783,169.08z"/>
		<path d="M164.28,191.467c0,0,21.659-4.033,26.505-32.418c3.696-21.662,26.091-17.438,29.766-3.891
			c3.396,12.527-12.502,10.966-9.224,2.936c-2.88-4.634-9.462-1.662-7.552,7.256c2.552,11.911,2.296,16.631-0.569,19.975
			c0,0,13.376-11.944,32.483,0c19.111,11.944,38.22-1.91,38.22-1.91s-17.198,15.763-40.129,5.255
			c-22.932-10.512-35.352,2.865-35.352,2.865s4.035-9.854,1.432-19.109c-5.215-18.54,5.191-24.698,14.745-16.844
			c-2.974,1.275,0.796,7.891,3.821,4.461c3.187-3.61-6.158-17.411-17.201-12.952c-7.534,3.043-7.217,12.527-10.401,21.233
			C186.328,180.607,177.872,188.919,164.28,191.467z"/>
		<path d="M175.566,191.642c0,0,15.301-8.36,19.899-29.379C195.466,162.263,197.224,184.507,175.566,191.642z"/>
		<path d="M166.897,197.747c0,0,15.765,7.165,28.663-11.468l-1.91,10.512c0,0,18.154-11.467,39.652-3.821
			c11.389,4.047,39.174,13.374,51.595-10.513c0,0-6.689,22.455-32.962,18.633c-19.478-2.832-42.043-11.467-61.628,2.387v-6.686
			C190.308,196.791,182.662,204.434,166.897,197.747z"/>
		<path d="M34.566,192.013c0,0,19.586,4.299,53.507-2.39c29.138-5.745,29.049,9.998,51.595,16.721
			c27.229,8.124,45.861-3.821,45.861-3.821s-22.933,17.2-50.642,7.166c-22.305-8.076-22.93-15.765-42.995-14.811
			C69.058,195.967,50.808,197.269,34.566,192.013z"/>
	</g>
</g>
</svg>
