<?xml version="1.0" standalone="no"?>
<!DOCTYPE svg PUBLIC "-//W3C//DTD SVG 20010904//EN"
 "http://www.w3.org/TR/2001/REC-SVG-20010904/DTD/svg10.dtd">
<svg version="1.0" xmlns="http://www.w3.org/2000/svg"
 width="980.000000pt" height="982.000000pt" viewBox="0 0 980.000000 982.000000"
 preserveAspectRatio="xMidYMid meet">

<g transform="translate(0.000000,982.000000) scale(0.100000,-0.100000)"
fill="#000000" stroke="none">
<path d="M6379 9785 c-89 -46 -275 -264 -390 -457 -91 -154 -189 -402 -236
-598 -21 -91 -25 -137 -30 -341 -7 -284 4 -409 52 -583 90 -327 258 -632 473
-857 104 -109 137 -129 212 -129 69 0 112 22 182 94 259 266 454 639 530 1016
20 101 23 144 22 350 0 330 -23 491 -100 697 -153 414 -477 835 -640 833 -16
-1 -50 -12 -75 -25z"/>
<path d="M9300 9760 c-152 -16 -336 -67 -528 -146 -300 -124 -574 -324 -772
-564 -129 -156 -275 -415 -350 -620 -68 -186 -112 -426 -114 -620 -1 -101 2
-121 22 -161 14 -29 39 -58 65 -75 39 -27 50 -29 157 -32 279 -8 611 72 891
214 544 277 944 805 1058 1396 31 160 47 374 33 443 -13 63 -56 126 -104 151
-37 19 -235 27 -358 14z"/>
<path d="M4918 8330 c-118 -63 -345 -364 -469 -625 -315 -659 -231 -1474 213
-2058 84 -111 203 -229 258 -258 67 -34 135 -31 200 11 141 90 370 426 490
716 211 513 184 1137 -70 1644 -128 255 -357 535 -473 579 -43 17 -108 12
-149 -9z"/>
<path d="M8030 7190 c-105 -15 -258 -50 -355 -82 -106 -35 -323 -137 -439
-207 -143 -87 -382 -303 -407 -368 -18 -49 -11 -127 17 -169 63 -95 225 -236
389 -339 591 -371 1330 -412 1951 -109 258 126 550 356 600 472 25 59 13 134
-33 200 -115 168 -510 419 -818 521 -212 70 -305 83 -590 87 -137 1 -279 -1
-315 -6z"/>
<path d="M3496 6890 c-79 -24 -205 -157 -341 -360 -307 -459 -416 -980 -314
-1507 55 -286 163 -535 340 -786 82 -116 203 -253 257 -291 37 -26 51 -30 110
-30 55 0 77 5 113 26 111 65 292 309 428 577 139 275 196 493 208 796 21 543
-174 1074 -531 1444 -135 140 -175 159 -270 131z"/>
<path d="M6520 5730 c-368 -67 -711 -231 -971 -463 -154 -137 -189 -186 -189
-264 0 -62 35 -117 133 -207 172 -157 297 -244 489 -336 548 -264 1200 -263
1753 4 241 116 529 336 586 448 27 53 35 137 16 174 -18 35 -179 192 -262 255
-209 160 -465 285 -718 350 -154 40 -247 50 -492 54 -207 4 -254 2 -345 -15z"/>
<path d="M2048 5436 c-62 -17 -117 -63 -219 -186 -225 -272 -366 -556 -433
-878 -93 -446 -43 -877 147 -1267 112 -229 226 -402 352 -533 84 -89 125 -112
198 -112 102 0 178 57 317 240 406 534 533 1155 364 1780 -81 299 -259 618
-466 836 -109 115 -171 143 -260 120z"/>
<path d="M5219 4289 c-158 -10 -300 -38 -453 -90 -296 -100 -522 -239 -753
-462 -125 -121 -117 -101 -92 -234 12 -63 51 -109 182 -219 262 -221 650 -403
956 -449 214 -33 560 -28 747 11 282 57 591 200 829 383 83 64 224 200 241
234 20 37 20 137 1 174 -24 45 -222 231 -327 305 -197 141 -492 267 -736 317
-88 18 -374 43 -444 40 -14 -1 -82 -6 -151 -10z"/>
<path d="M3731 2839 c-433 -46 -894 -266 -1184 -567 -37 -39 -74 -87 -83 -108
-45 -106 36 -225 274 -404 603 -453 1403 -531 2092 -204 197 94 470 293 551
401 69 92 79 180 29 255 -39 58 -197 199 -320 284 -120 83 -362 202 -505 249
-271 88 -580 122 -854 94z"/>
<path d="M1587 2114 c-40 -12 -75 -42 -225 -186 -319 -310 -619 -608 -916
-913 -421 -432 -454 -477 -442 -588 9 -86 47 -148 161 -262 112 -112 166 -144
253 -152 53 -4 62 -2 119 34 100 61 270 223 930 886 407 410 625 635 637 661
27 58 26 176 -2 239 -27 60 -210 244 -273 275 -54 26 -167 29 -242 6z"/>
</g>
</svg>
