<?xml version="1.0" standalone="no"?>
<!DOCTYPE svg PUBLIC "-//W3C//DTD SVG 20010904//EN"
 "http://www.w3.org/TR/2001/REC-SVG-20010904/DTD/svg10.dtd">
<svg version="1.0" xmlns="http://www.w3.org/2000/svg"
 width="840.000000pt" height="822.000000pt" viewBox="0 0 840.000000 822.000000"
 preserveAspectRatio="xMidYMid meet">

<g transform="translate(0.000000,822.000000) scale(0.100000,-0.100000)"
fill="#000000" stroke="none">
<path d="M4197 7589 c-40 -502 -277 -1169 -672 -1894 -273 -502 -672 -1108
-1050 -1595 -140 -180 -208 -288 -290 -455 -219 -449 -280 -957 -175 -1463 31
-146 107 -362 181 -511 151 -305 347 -549 614 -764 243 -196 520 -335 825
-416 223 -59 281 -65 570 -66 295 0 371 9 598 71 632 173 1146 603 1432 1197
150 312 220 621 220 974 0 350 -75 674 -230 988 -82 166 -152 276 -284 445
-456 582 -953 1367 -1232 1945 -282 585 -441 1076 -487 1505 l-13 125 -7 -86z
m-1589 -3870 c-20 -82 -16 -463 6 -619 47 -339 136 -677 257 -970 27 -67 49
-136 49 -156 0 -105 -111 -197 -240 -197 -116 -1 -175 52 -238 214 -78 202
-106 366 -106 619 0 250 25 433 95 685 47 166 172 495 185 483 2 -3 -1 -29 -8
-59z"/>
</g>
</svg>
