<?xml version="1.0" encoding="utf-8"?>
<!-- Generator: Adobe Illustrator 15.0.0, SVG Export Plug-In . SVG Version: 6.00 Build 0)  -->
<!DOCTYPE svg PUBLIC "-//W3C//DTD SVG 1.1//EN" "http://www.w3.org/Graphics/SVG/1.1/DTD/svg11.dtd">
<svg version="1.1" id="Layer_1" xmlns="http://www.w3.org/2000/svg" xmlns:xlink="http://www.w3.org/1999/xlink" x="0px" y="0px"
	 width="225px" height="225px" viewBox="0 0 225 225" enable-background="new 0 0 225 225" xml:space="preserve">
<g>
	<g>
		<path fill="#030303" d="M157.5,8.5c11.398-1.491,21.73,1.009,31,7.5c8.57,8.089,10.07,17.256,4.5,27.5
			c-6.586,6.11-14.419,8.777-23.5,8c-13.957-0.365-26.791-4.365-38.5-12c-3.029,4.083-4.695,8.749-5,14
			c-0.645,6.156,0.023,12.156,2,18c8.387-6.591,17.887-8.758,28.5-6.5c26.001,5,43.834,19.833,53.5,44.5
			c4.652,14.738,5.652,29.738,3,45c-2.613-6.505-5.613-12.838-9-19c-5.004-6.523-11.504-8.689-19.5-6.5
			c-10.064,3.413-20.396,5.413-31,6c-6.059,10.059-12.893,19.559-20.5,28.5c-9.777,16.462-9.943,33.129-0.5,50
			c-0.333,0.333-0.667,0.667-1,1c-19.275-8.784-35.442-21.45-48.5-38c-11.399-16.266-15.899-34.266-13.5-54
			c-21.258-0.475-40.924-6.309-59-17.5c17.229,0.46,31.396-5.706,42.5-18.5c4.629-9.3,10.796-17.467,18.5-24.5
			c16.647-12.187,32.148-11.02,46.5,3.5c-0.9-11.202,1.268-21.702,6.5-31.5C109.62,16.041,91.787,12.541,71,23.5
			c0.747,2.476,2.081,4.809,4,7c1.115,13.525-4.718,18.025-17.5,13.5c-5.443-4.825-6.276-10.325-2.5-16.5
			C70.483,9.92,89.316,5.087,111.5,13c6.465,3.653,12.298,8.153,17.5,13.5C137.061,18.062,146.561,12.062,157.5,8.5z"/>
	</g>
	<g>
		<path fill="#FAFAFA" d="M159.5,16.5c11.691-2.277,20.857,1.39,27.5,11c3.335,8.496,0.501,13.662-8.5,15.5
			c-14.664,1.601-28.33-1.399-41-9c-0.857-0.689-1.523-1.522-2-2.5C141.991,23.994,149.991,18.994,159.5,16.5z"/>
	</g>
	<g>
		<path fill="#F0F0F0" d="M98.5,72.5c4.767-0.309,9.434,0.191,14,1.5c-6.558,1.946-12.558,4.946-18,9
			c-8.37,8.038-17.036,15.705-26,23c-8.384,5.472-17.384,6.805-27,4c6.382-1.35,12.382-3.683,18-7c8.667-8,17.333-16,26-24
			C89.657,76.255,93.99,74.088,98.5,72.5z"/>
	</g>
	<g>
		<path fill="#F2F2F2" d="M121.5,85.5c5.555,15.451,5.055,30.784-1.5,46c-6.377,12.294-10.211,25.294-11.5,39
			c0.165,7.828,2.165,15.161,6,22c-0.167,0.333-0.333,0.667-0.5,1c-11.466-11.861-15.466-25.861-12-42
			c4.863-12.256,9.53-24.589,14-37c1.617-5.586,2.784-11.253,3.5-17C120.167,93.5,120.833,89.5,121.5,85.5z"/>
	</g>
	<g>
		<path fill="#F1F1F1" d="M131.5,84.5c3.838,3.011,8.172,5.178,13,6.5c8.635,1.22,17.302,2.22,26,3
			c17.251,2.259,27.751,11.759,31.5,28.5c-5.629-9.283-13.796-15.117-24.5-17.5c-11.598-1.652-22.93-4.319-34-8
			C137.927,94.262,133.927,90.095,131.5,84.5z"/>
	</g>
	<g>
		<path fill="#A8A8A8" d="M121.5,85.5c-0.667,4-1.333,8-2,12c-0.166-5.011,0.001-10.011,0.5-15
			C120.514,83.526,121.014,84.526,121.5,85.5z"/>
	</g>
</g>
</svg>
