<?xml version="1.0" standalone="no"?>
<!DOCTYPE svg PUBLIC "-//W3C//DTD SVG 20010904//EN"
 "http://www.w3.org/TR/2001/REC-SVG-20010904/DTD/svg10.dtd">
<svg version="1.0" xmlns="http://www.w3.org/2000/svg"
 width="269.000000pt" height="187.000000pt" viewBox="0 0 269.000000 187.000000"
 preserveAspectRatio="xMidYMid meet">

<g transform="translate(0.000000,187.000000) scale(0.100000,-0.100000)"
fill="#000000" stroke="none">
<path d="M1003 1846 c-143 -38 -242 -94 -344 -195 -71 -72 -94 -102 -133 -181
-76 -155 -93 -307 -51 -473 25 -96 106 -253 178 -342 113 -141 126 -184 133
-450 3 -105 10 -185 16 -192 8 -10 99 -13 424 -13 469 0 426 -9 437 89 7 60
25 92 64 118 22 15 50 18 148 19 181 0 204 20 206 171 1 48 4 115 8 148 l6 60
53 11 c58 13 92 37 92 65 0 9 -32 54 -71 99 -38 45 -80 101 -91 125 -20 40
-21 51 -12 142 12 119 0 204 -45 318 -90 224 -282 397 -526 475 -57 18 -100
23 -235 26 -150 4 -173 2 -257 -20z m260 -161 c20 -10 45 -13 85 -9 53 6 59 4
87 -22 24 -24 39 -29 80 -30 54 -1 112 -25 122 -50 3 -9 25 -24 49 -34 31 -14
45 -27 50 -46 4 -15 22 -41 41 -57 45 -39 64 -78 65 -132 1 -49 -20 -90 -52
-100 -13 -4 -20 -15 -20 -31 0 -34 -30 -60 -89 -78 -69 -20 -84 -29 -161 -101
-61 -55 -77 -65 -140 -80 -97 -24 -119 -47 -159 -167 -31 -93 -34 -98 -61 -98
-30 0 -33 5 -44 71 -6 36 -7 36 -69 43 -95 11 -138 25 -167 56 -22 23 -35 29
-69 28 -27 0 -49 6 -63 18 -26 24 -50 78 -42 98 4 10 -5 25 -24 41 -42 35 -55
74 -50 152 2 50 10 79 28 108 19 30 25 54 25 93 0 48 4 57 33 83 17 16 32 34
32 41 0 6 9 30 20 53 28 57 84 88 152 83 45 -3 55 0 79 24 22 22 37 28 72 28
25 0 58 7 73 15 37 19 81 19 117 0z"/>
</g>
</svg>
