<?xml version="1.0" encoding="utf-8"?>
<!-- Generator: Adobe Illustrator 15.0.0, SVG Export Plug-In . SVG Version: 6.00 Build 0)  -->
<!DOCTYPE svg PUBLIC "-//W3C//DTD SVG 1.1//EN" "http://www.w3.org/Graphics/SVG/1.1/DTD/svg11.dtd">
<svg version="1.1" id="Layer_1" xmlns="http://www.w3.org/2000/svg" xmlns:xlink="http://www.w3.org/1999/xlink" x="0px" y="0px"
	 width="225px" height="225px" viewBox="0 0 225 225" enable-background="new 0 0 225 225" xml:space="preserve">
<g>
	<g>
		<path fill="#020202" d="M100.5,26.5c17.58-2.191,33.58,1.643,48,11.5c11.538,12.672,15.371,27.505,11.5,44.5
			c-1.768,7.928-2.434,15.928-2,24c2.848,2.458,4.18,5.458,4,9c-1.125,3.284-2.125,6.617-3,10c-5.625,3.563-11.459,6.729-17.5,9.5
			c-3.021,3.214-4.521,7.048-4.5,11.5c-8.297,3.352-16.963,4.684-26,4c-7.318,0.298-14.484-0.535-21.5-2.5
			c-0.916-0.374-1.75-0.874-2.5-1.5c0.022-4.452-1.478-8.286-4.5-11.5c-6.042-2.771-11.875-5.938-17.5-9.5
			c-1.4-4.671-2.4-9.338-3-14c3.379-2.707,4.879-6.207,4.5-10.5c-2.714-14.388-3.547-28.888-2.5-43.5
			c2.578-9.334,7.744-16.834,15.5-22.5C86.148,31.067,93.148,28.234,100.5,26.5z"/>
	</g>
	<g>
		<path fill="#050505" d="M179.5,74.5c13.818,0.017,19.318,6.684,16.5,20c-0.465,1.431-1.299,2.598-2.5,3.5
			c10.398,1.386,15.23,7.219,14.5,17.5c-5.43,10.574-13.262,12.741-23.5,6.5c-0.979-2.137-2.313-3.971-4-5.5
			c-4.441,2.732-9.109,4.566-14,5.5c1.422-2.678,2.422-5.512,3-8.5c-1.32-4.164-3.32-7.997-6-11.5c0.259-1.261,0.926-2.261,2-3
			c2.164-0.914,4.164-2.081,6-3.5C167.723,86.053,170.391,79.053,179.5,74.5z"/>
	</g>
	<g>
		<path fill="#050505" d="M36.5,74.5c14.534,0.185,19.868,7.185,16,21c1.836,1.419,3.836,2.586,6,3.5c1.074,0.739,1.741,1.739,2,3
			c-1.952,2.732-3.785,5.565-5.5,8.5c-0.825,4.188,0.008,8.02,2.5,11.5c-4.891-0.934-9.558-2.768-14-5.5
			c-4.047,7.686-10.38,10.52-19,8.5c-11.989-8.617-11.989-17.283,0-26c1.755-0.202,3.422-0.702,5-1.5
			C24.061,87.396,26.394,79.729,36.5,74.5z"/>
	</g>
	<g>
		<path fill="#F8F8F8" d="M83.5,81.5c8.761-1.118,15.594,1.882,20.5,9c0.997,7.695-1.503,13.862-7.5,18.5
			c-20.563,6.438-27.063-0.396-19.5-20.5C78.694,85.643,80.861,83.309,83.5,81.5z"/>
	</g>
	<g>
		<path fill="#F8F8F8" d="M131.5,81.5c9.912-1.264,15.745,3.069,17.5,13c1.01,5.058,0.51,9.891-1.5,14.5
			c-7.441,2.193-14.775,1.86-22-1C115.92,96.253,117.92,87.419,131.5,81.5z"/>
	</g>
	<g>
		<path fill="#F7F7F7" d="M111.5,103.5c5.449,5.223,9.116,11.557,11,19c-3.018,0.165-6.018-0.002-9-0.5c-1-2-2-2-3,0
			c-2.982,0.498-5.982,0.665-9,0.5C103.526,115.445,106.86,109.113,111.5,103.5z"/>
	</g>
	<g>
		<path fill="#040404" d="M75.5,140.5c1.333,0,2.667,0,4,0c0.026,9.861,5.026,15.027,15,15.5c-13.393,7.029-27.06,13.529-41,19.5
			c-0.333,0.5-0.667,1-1,1.5c3.865,11.773-0.301,18.607-12.5,20.5c-9.599-1.604-13.932-7.27-13-17c0.914-2.164,2.081-4.164,3.5-6
			c-12.98-2.455-17.146-9.788-12.5-22c5.558-6.424,12.058-7.591,19.5-3.5c2.233,2.232,4.4,4.4,6.5,6.5
			C54.773,150.861,65.273,145.861,75.5,140.5z"/>
	</g>
	<g>
		<path fill="#030303" d="M145.5,140.5c12.113,4.639,23.945,9.973,35.5,16c6.611-11.736,14.945-13.07,25-4
			c4.646,12.212,0.48,19.545-12.5,22c5.803,8.023,4.803,15.191-3,21.5c-11.816,4.027-18.816-0.141-21-12.5
			c0.878-2.63,1.545-5.297,2-8c-14.357-5.678-28.357-12.178-42-19.5C139.311,155.354,144.645,150.188,145.5,140.5z"/>
	</g>
</g>
</svg>
