<svg id="svg" xmlns="http://www.w3.org/2000/svg" xmlns:xlink="http://www.w3.org/1999/xlink" width="400" height="432" viewBox="0, 0, 400,432"><g id="svgg"><path id="path0" d="M177.918 97.701 C 169.844 114.915,153.869 148.957,142.418 173.348 C 130.968 197.739,121.600 217.764,121.600 217.848 C 121.600 217.932,135.367 218.000,152.194 218.000 L 182.787 218.000 182.195 219.300 C 181.869 220.015,176.403 233.740,170.049 249.800 C 163.694 265.860,153.690 291.121,147.816 305.935 C 141.943 320.750,137.196 332.924,137.269 332.990 C 137.341 333.056,139.207 331.015,141.415 328.455 C 146.826 322.182,201.563 258.943,243.947 210.000 L 278.412 170.200 238.215 170.098 L 198.018 169.996 203.271 161.298 C 208.120 153.268,259.874 67.377,260.271 66.700 C 260.368 66.535,245.182 66.400,226.524 66.401 L 192.600 66.402 177.918 97.701 " stroke="none" fill="#000000" fill-rule="evenodd"></path></g></svg>