<?xml version="1.0" encoding="utf-8"?>
<!-- Generator: Adobe Illustrator 15.0.0, SVG Export Plug-In . SVG Version: 6.00 Build 0)  -->
<!DOCTYPE svg PUBLIC "-//W3C//DTD SVG 1.1//EN" "http://www.w3.org/Graphics/SVG/1.1/DTD/svg11.dtd">
<svg version="1.1" id="Layer_1" xmlns="http://www.w3.org/2000/svg" xmlns:xlink="http://www.w3.org/1999/xlink" x="0px" y="0px"
	 width="225px" height="225px" viewBox="0 0 225 225" enable-background="new 0 0 225 225" xml:space="preserve">
<g>
	<g>
		<path fill="#010101" d="M109.5,8.5c18.52-2.326,34.52,2.841,48,15.5c-11.689,0.119-22.355,3.452-32,10
			C90.973,60.898,79.806,95.398,92,137.5c8.056,10.779,18.889,16.445,32.5,17c26.387-8.361,49.221-2.695,68.5,17
			c4.191,5.383,7.025,11.383,8.5,18c-28.335,0.167-56.669,0-85-0.5c-11.544-14.878-25.544-26.878-42-36
			c-13.156-6.411-26.156-13.078-39-20c-4.055-2.602-7.555-5.768-10.5-9.5c-1.187-1.544-1.521-3.211-1-5c3-4.667,6-9.333,9-14
			c27.546-27.105,50.212-57.772,68-92C103.682,10.67,106.516,9.337,109.5,8.5z"/>
	</g>
	<g>
		<path fill="#010101" d="M150.5,32.5c17.197-0.301,29.363,7.366,36.5,23c1.98,4.458,3.814,8.958,5.5,13.5
			c-21.134,1.254-38.967,9.42-53.5,24.5c-4.371,6.41-7.371,13.409-9,21c-0.252,10.048-0.419,20.048-0.5,30
			c-24.952,1.544-36.285-10.289-34-35.5c0.915-29.837,13.581-53.17,38-70C138.882,35.712,144.549,33.545,150.5,32.5z"/>
	</g>
	<g>
		<path fill="#030303" d="M111.5,197.5c30.495,0.998,61.162,1.331,92,1c0,3.667,0,7.333,0,11c-33.74,0.326-67.406-0.007-101-1
			c-5.198-11.705-12.864-21.538-23-29.5c-6.66-4.999-13.66-9.499-21-13.5c-2.571,1.229-3.905,3.229-4,6
			c-14.326-2.246-26.493-8.579-36.5-19c-4.428-7.748-4.094-15.415,1-23c3.508,3.841,7.341,7.341,11.5,10.5
			c13.51,7.255,27.177,14.255,41,21C88.179,169.514,101.513,181.68,111.5,197.5z"/>
	</g>
	<g>
		<path fill="#525252" d="M111.5,197.5c31,0,62,0,93,0c0,4,0,8,0,12c-0.333,0-0.667,0-1,0c0-3.667,0-7.333,0-11
			C172.662,198.831,141.995,198.498,111.5,197.5z"/>
	</g>
	<g>
		<path fill="#C3C3C3" d="M102.5,208.5c33.594,0.993,67.26,1.326,101,1c0.333,0,0.667,0,1,0c-16.83,0.667-33.83,1-51,1
			C136.152,210.5,119.152,209.833,102.5,208.5z"/>
	</g>
</g>
</svg>
