<?xml version="1.0" encoding="utf-8"?>
<!-- Generator: Adobe Illustrator 15.0.0, SVG Export Plug-In . SVG Version: 6.00 Build 0)  -->
<!DOCTYPE svg PUBLIC "-//W3C//DTD SVG 1.1//EN" "http://www.w3.org/Graphics/SVG/1.1/DTD/svg11.dtd">
<svg version="1.1" id="Layer_1" xmlns="http://www.w3.org/2000/svg" xmlns:xlink="http://www.w3.org/1999/xlink" x="0px" y="0px"
	 width="225px" height="225px" viewBox="0 0 225 225" enable-background="new 0 0 225 225" xml:space="preserve">
<g>
	<g>
		<path fill="#030303" d="M98.5,2.5c1.374-0.157,2.707,0.01,4,0.5c1.051,1.385,2.384,2.385,4,3c4.679,3.346,8.68,7.346,12,12
			c-3.757,6.758-7.923,13.258-12.5,19.5c-1.062,0.597-2.228,0.93-3.5,1c-7.206-2.268-14.206-5.101-21-8.5
			c-0.522-0.562-0.855-1.228-1-2C86.316,19.354,92.316,10.854,98.5,2.5z"/>
	</g>
	<g>
		<path fill="#040404" d="M123.5,21.5c2.154-0.128,4.154,0.372,6,1.5c5.208,5.376,10.541,10.542,16,15.5
			c-6.641,9.142-13.475,18.142-20.5,27c-0.445-3.178-0.277-6.345,0.5-9.5c-0.042-1.967-0.542-3.801-1.5-5.5
			c-4.451-3.137-8.951-6.137-13.5-9C114.844,34.805,119.177,28.138,123.5,21.5z"/>
	</g>
	<g>
		<path fill="#010101" d="M71.5,33.5c16.141,6.321,31.974,13.321,47.5,21c0.667,4.333,0.667,8.667,0,13
			c-0.374,0.916-0.874,1.75-1.5,2.5c-8.21,2.214-16.544,2.881-25,2c-4.432-2.596-8.432-5.762-12-9.5c-0.333,0.5-0.667,1-1,1.5
			c0.801,3.267,2.135,6.267,4,9c-0.145,0.772-0.478,1.438-1,2c-2.48,0.96-4.98,1.793-7.5,2.5c-0.507,1.496-0.007,2.663,1.5,3.5
			c19.432,6.272,38.432,13.605,57,22c5.21,5.546,10.71,10.712,16.5,15.5c8.52-5.266,16.52-11.265,24-18
			c-0.674,21.357-7.674,40.357-21,57c-0.333,18.667-0.667,37.333-1,56c-12.961,6.073-26.628,8.74-41,8
			c-12.461,0.58-24.294-1.754-35.5-7c1.051-20.877,3.384-41.71,7-62.5c-15.217-23.046-30.217-46.212-45-69.5
			C48.09,65.654,59.423,49.321,71.5,33.5z"/>
	</g>
	<g>
		<path fill="#030303" d="M149.5,43.5c1.052-0.149,2.052,0.017,3,0.5c4.5,4.5,9,9,13.5,13.5c0.667,1.333,0.667,2.667,0,4
			c-9.292,11.627-18.959,22.961-29,34c-1.727,1.076-3.559,1.243-5.5,0.5c-5.374-2.681-10.374-5.848-15-9.5
			C127.751,72.317,138.751,57.983,149.5,43.5z"/>
	</g>
	<g>
		<path fill="#030303" d="M170.5,66.5c1.373-0.157,2.707,0.01,4,0.5c4.395,4.723,8.395,9.723,12,15
			c-10.354,9.352-21.02,18.352-32,27c-1.865,1.301-3.865,1.635-6,1c-2.407-2.285-4.907-4.451-7.5-6.5c-0.667-1.333-0.667-2.667,0-4
			C150.67,88.331,160.504,77.331,170.5,66.5z"/>
	</g>
	<g>
		<path fill="#090909" d="M91.5,79.5c3.213,0.31,6.213-0.023,9-1c5.301-0.877,10.635-1.543,16-2c0.148,1.052-0.018,2.052-0.5,3
			c-2.719,2.229-5.553,4.229-8.5,6C101.864,84.003,96.531,82.003,91.5,79.5z"/>
	</g>
	<g>
		<path fill="#A2A2A2" d="M100.5,78.5c-2.787,0.977-5.787,1.31-9,1c-1.809,0.009-3.475-0.491-5-1.5
			C91.107,78.31,95.773,78.477,100.5,78.5z"/>
	</g>
</g>
</svg>
