<svg id="svg" xmlns="http://www.w3.org/2000/svg" xmlns:xlink="http://www.w3.org/1999/xlink" width="400" height="400" viewBox="0, 0, 400,400"><g id="svgg"><path id="path0" d="M1.477 1.758 C -0.037 3.416,-0.678 11.382,0.655 11.955 C 1.016 12.110,2.569 17.553,4.108 24.051 C 19.144 87.568,28.087 124.144,29.206 126.699 C 31.699 132.391,22.089 124.885,180.169 244.599 C 191.308 253.035,214.580 270.660,231.885 283.766 C 249.190 296.872,263.810 307.699,264.375 307.826 C 264.939 307.953,268.745 304.696,272.833 300.588 L 280.265 293.119 271.567 283.876 C 266.783 278.792,255.084 266.304,245.570 256.125 C 236.055 245.945,221.840 230.767,213.982 222.395 C 188.254 194.986,123.975 126.430,112.283 113.930 C 105.991 107.204,101.598 102.267,102.520 102.960 C 103.984 104.059,268.269 257.821,285.321 274.051 C 288.856 277.416,292.094 280.169,292.516 280.169 C 294.751 280.169,308.393 264.932,307.475 263.461 C 304.727 259.062,134.936 33.052,133.237 31.533 C 129.551 28.237,126.335 27.242,99.578 21.116 C 84.958 17.769,60.844 12.246,45.992 8.842 C 31.139 5.439,17.563 2.395,15.823 2.077 C 14.082 1.760,12.658 1.162,12.658 0.750 C 12.658 -0.812,3.031 0.056,1.477 1.758 M338.819 263.255 C 337.890 263.660,320.273 280.891,299.670 301.547 C 256.041 345.285,259.038 340.395,269.430 350.875 C 279.137 360.666,278.999 360.701,295.557 344.105 L 308.205 331.427 325.218 348.425 L 342.231 365.422 346.854 360.735 C 349.396 358.157,353.376 355.160,355.696 354.074 C 363.553 350.399,363.984 350.649,358.771 355.861 C 349.820 364.813,347.727 376.358,353.225 386.460 C 356.017 391.589,362.184 397.373,365.586 398.054 C 366.876 398.312,367.932 398.855,367.932 399.262 C 367.932 399.668,371.160 400.000,375.105 400.000 C 379.051 400.000,382.278 399.697,382.278 399.326 C 382.278 398.955,383.674 398.147,385.381 397.530 C 389.372 396.086,396.086 389.372,397.530 385.381 C 398.147 383.674,398.955 382.278,399.326 382.278 C 399.697 382.278,400.000 379.051,400.000 375.105 C 400.000 370.886,399.653 367.932,399.156 367.932 C 398.692 367.932,398.312 367.350,398.312 366.637 C 398.312 360.456,386.743 351.223,378.005 350.431 L 373.188 349.994 352.258 329.051 L 331.328 308.109 343.817 295.616 C 360.498 278.929,360.487 278.968,350.785 269.382 C 344.660 263.330,341.892 261.913,338.819 263.255 " stroke="none" fill="#000000" fill-rule="evenodd"></path></g></svg>