<svg id="svg" xmlns="http://www.w3.org/2000/svg" xmlns:xlink="http://www.w3.org/1999/xlink" width="400" height="400" viewBox="0, 0, 400,400" version="1.1"><g id="svgg"><path id="path0" d="M8.305 0.283 C 8.802 0.379,9.522 0.375,9.905 0.275 C 10.287 0.175,9.880 0.096,9.000 0.101 C 8.120 0.105,7.807 0.187,8.305 0.283 M5.000 1.028 C 2.308 2.425,-0.007 5.676,0.036 8.000 C 0.048 8.646,0.232 8.341,0.555 7.139 C 1.391 4.037,3.333 1.885,6.200 0.883 C 6.860 0.652,7.130 0.450,6.800 0.434 C 6.470 0.418,5.660 0.685,5.000 1.028 M14.022 1.921 C 16.668 3.589,16.800 3.663,16.800 3.465 C 16.800 3.205,12.998 0.800,12.587 0.800 C 12.398 0.800,13.044 1.305,14.022 1.921 M17.200 3.779 C 17.200 3.889,17.740 4.259,18.400 4.600 C 19.060 4.941,19.600 5.131,19.600 5.021 C 19.600 4.911,19.060 4.541,18.400 4.200 C 17.740 3.859,17.200 3.669,17.200 3.779 M23.200 6.897 C 26.073 8.351,30.341 9.793,30.702 9.432 C 30.829 9.304,30.710 9.200,30.437 9.200 C 30.163 9.200,28.018 8.435,25.670 7.500 C 20.261 5.347,20.018 5.287,23.200 6.897 M0.056 10.000 C 0.056 10.330,0.211 10.960,0.400 11.400 C 0.617 11.904,0.744 11.978,0.744 11.600 C 0.744 11.270,0.589 10.640,0.400 10.200 C 0.183 9.696,0.056 9.622,0.056 10.000 M31.400 10.000 C 31.536 10.220,32.132 10.387,32.724 10.372 C 33.685 10.347,33.714 10.307,33.000 10.000 C 31.889 9.522,31.105 9.522,31.400 10.000 M38.400 11.600 C 39.176 12.101,39.600 12.101,39.600 11.600 C 39.600 11.380,39.195 11.203,38.700 11.206 C 37.972 11.211,37.915 11.286,38.400 11.600 M40.939 12.054 C 41.468 12.361,41.802 12.358,42.119 12.041 C 42.440 11.720,42.241 11.603,41.380 11.612 C 40.346 11.623,40.291 11.677,40.939 12.054 M44.000 12.400 C 44.782 12.906,45.888 12.906,46.200 12.400 C 46.348 12.160,45.839 12.002,44.924 12.006 C 43.793 12.011,43.555 12.112,44.000 12.400 M81.000 12.400 C 81.277 12.849,84.877 12.855,88.800 12.414 C 91.022 12.164,90.627 12.113,86.076 12.061 C 82.614 12.021,80.839 12.140,81.000 12.400 M105.135 12.502 C 107.813 12.780,108.996 12.764,109.315 12.445 C 109.642 12.118,108.647 12.015,105.580 12.057 L 101.400 12.115 105.135 12.502 M0.801 12.664 C 0.798 13.896,10.018 23.258,90.657 103.892 C 167.829 181.060,178.928 191.993,180.100 191.999 C 180.787 192.002,180.331 191.233,179.500 190.988 C 178.500 190.693,2.765 15.305,1.561 13.400 C 1.144 12.740,0.802 12.409,0.801 12.664 M48.800 12.800 C 50.252 13.265,52.400 13.265,52.400 12.800 C 52.400 12.575,51.393 12.417,50.100 12.440 C 48.345 12.470,48.037 12.556,48.800 12.800 M68.000 12.800 C 68.000 13.262,70.894 13.271,73.800 12.818 C 75.553 12.545,75.318 12.500,71.900 12.453 C 69.531 12.421,68.000 12.557,68.000 12.800 M113.600 12.800 C 115.045 13.263,116.400 13.263,116.400 12.800 C 116.400 12.580,115.545 12.418,114.500 12.440 C 112.951 12.472,112.785 12.539,113.600 12.800 M118.800 13.200 C 119.588 13.709,121.200 13.709,121.200 13.200 C 121.200 12.980,120.525 12.803,119.700 12.806 C 118.584 12.811,118.354 12.912,118.800 13.200 M123.200 13.600 C 123.986 14.108,125.200 14.108,125.200 13.600 C 125.200 13.380,124.615 13.203,123.900 13.206 C 122.914 13.211,122.745 13.306,123.200 13.600 M127.000 14.000 C 127.136 14.220,127.496 14.400,127.800 14.400 C 128.104 14.400,128.464 14.220,128.600 14.000 C 128.741 13.772,128.396 13.600,127.800 13.600 C 127.204 13.600,126.859 13.772,127.000 14.000 M129.800 14.400 C 129.936 14.620,130.487 14.800,131.024 14.800 C 131.561 14.800,132.000 14.620,132.000 14.400 C 132.000 14.180,131.449 14.000,130.776 14.000 C 130.063 14.000,129.656 14.167,129.800 14.400 M133.000 14.800 C 133.136 15.020,133.507 15.200,133.824 15.200 C 134.141 15.200,134.400 15.020,134.400 14.800 C 134.400 14.580,134.029 14.400,133.576 14.400 C 133.123 14.400,132.864 14.580,133.000 14.800 M135.400 15.200 C 135.536 15.420,135.997 15.600,136.424 15.600 C 136.851 15.600,137.200 15.420,137.200 15.200 C 137.200 14.980,136.739 14.800,136.176 14.800 C 135.596 14.800,135.260 14.973,135.400 15.200 M137.800 15.600 C 137.936 15.820,138.307 16.000,138.624 16.000 C 138.941 16.000,139.200 15.820,139.200 15.600 C 139.200 15.380,138.829 15.200,138.376 15.200 C 137.923 15.200,137.664 15.380,137.800 15.600 M140.000 16.000 C 140.000 16.220,140.360 16.400,140.800 16.400 C 141.240 16.400,141.600 16.220,141.600 16.000 C 141.600 15.780,141.240 15.600,140.800 15.600 C 140.360 15.600,140.000 15.780,140.000 16.000 M142.200 16.400 C 142.336 16.620,142.707 16.800,143.024 16.800 C 143.341 16.800,143.600 16.620,143.600 16.400 C 143.600 16.180,143.229 16.000,142.776 16.000 C 142.323 16.000,142.064 16.180,142.200 16.400 M144.200 16.800 C 144.336 17.020,144.707 17.200,145.024 17.200 C 145.341 17.200,145.600 17.020,145.600 16.800 C 145.600 16.580,145.229 16.400,144.776 16.400 C 144.323 16.400,144.064 16.580,144.200 16.800 M146.000 17.200 C 146.000 17.420,146.259 17.600,146.576 17.600 C 146.893 17.600,147.264 17.420,147.400 17.200 C 147.536 16.980,147.277 16.800,146.824 16.800 C 146.371 16.800,146.000 16.980,146.000 17.200 M148.000 17.555 C 148.000 17.751,148.675 18.033,149.500 18.183 C 150.325 18.332,151.405 18.552,151.900 18.671 C 152.395 18.790,152.800 18.718,152.800 18.512 C 152.800 18.306,151.886 17.926,150.769 17.669 C 148.333 17.106,148.000 17.093,148.000 17.555 M153.200 18.800 C 153.200 19.020,153.470 19.200,153.800 19.200 C 154.130 19.200,154.400 19.020,154.400 18.800 C 154.400 18.580,154.130 18.400,153.800 18.400 C 153.470 18.400,153.200 18.580,153.200 18.800 M154.800 19.153 C 154.800 19.564,158.392 20.541,158.715 20.218 C 159.106 19.827,158.445 19.487,157.211 19.443 C 156.546 19.419,156.001 19.265,156.001 19.100 C 156.000 18.935,155.730 18.800,155.400 18.800 C 155.070 18.800,154.800 18.959,154.800 19.153 M159.200 20.313 C 159.200 20.761,161.171 21.362,161.514 21.019 C 161.832 20.701,161.539 20.500,160.299 20.189 C 159.649 20.026,159.200 20.077,159.200 20.313 M168.800 23.481 C 178.218 26.896,181.356 27.978,181.479 27.854 C 181.749 27.584,169.471 23.169,168.625 23.232 C 168.391 23.249,168.470 23.361,168.800 23.481 M109.400 30.400 C 109.536 30.620,110.141 30.800,110.744 30.800 C 111.347 30.800,112.011 30.952,112.220 31.138 C 112.431 31.325,113.007 31.261,113.514 30.994 C 114.368 30.544,114.307 30.496,112.558 30.256 C 109.945 29.898,109.113 29.936,109.400 30.400 M187.371 30.609 C 187.795 30.929,188.240 31.094,188.359 30.974 C 188.610 30.723,187.594 30.009,187.000 30.019 C 186.780 30.022,186.947 30.288,187.371 30.609 M116.192 30.813 C 116.052 31.039,116.656 31.200,117.643 31.200 C 119.562 31.200,119.586 31.026,117.716 30.671 C 117.009 30.536,116.323 30.600,116.192 30.813 M120.601 31.199 C 120.452 31.440,120.948 31.600,121.843 31.600 C 123.505 31.600,123.529 31.439,121.925 31.055 C 121.333 30.913,120.737 30.978,120.601 31.199 M124.200 31.600 C 124.053 31.838,124.490 31.989,125.276 31.972 C 126.379 31.948,126.467 31.886,125.800 31.600 C 124.715 31.134,124.488 31.134,124.200 31.600 M189.600 31.390 C 189.600 31.494,190.140 31.859,190.800 32.200 C 191.460 32.541,192.000 32.711,192.000 32.578 C 192.000 32.444,192.591 32.700,193.312 33.146 C 195.438 34.459,203.200 37.990,203.200 37.643 C 203.200 37.298,190.731 31.200,190.027 31.200 C 189.792 31.200,189.600 31.285,189.600 31.390 M117.420 32.748 C 118.031 33.307,122.800 34.781,122.800 34.410 C 122.800 34.225,121.685 33.697,120.322 33.237 C 117.634 32.329,116.811 32.190,117.420 32.748 M140.400 34.400 C 140.950 34.576,141.760 34.720,142.200 34.720 C 142.833 34.720,142.792 34.654,142.000 34.400 C 141.450 34.224,140.640 34.080,140.200 34.080 C 139.567 34.080,139.608 34.146,140.400 34.400 M354.227 34.359 C 353.732 34.553,353.614 34.761,353.899 34.938 C 354.144 35.089,354.453 35.038,354.585 34.824 C 354.717 34.610,355.072 34.529,355.372 34.645 C 355.673 34.760,356.038 34.662,356.183 34.427 C 356.485 33.940,355.395 33.902,354.227 34.359 M358.607 34.411 C 358.746 34.636,359.072 34.773,359.330 34.714 C 360.163 34.523,363.540 36.774,364.267 38.006 C 364.655 38.662,365.124 39.200,365.310 39.200 C 365.495 39.200,365.544 39.368,365.417 39.572 C 365.291 39.777,365.373 40.060,365.600 40.200 C 365.827 40.340,365.932 40.586,365.833 40.747 C 365.734 40.907,365.818 41.300,366.020 41.619 C 366.719 42.723,366.425 40.692,365.642 39.000 C 364.734 37.039,363.085 35.445,361.113 34.621 C 359.408 33.909,358.236 33.810,358.607 34.411 M144.000 35.200 C 144.550 35.376,145.360 35.520,145.800 35.520 C 146.433 35.520,146.392 35.454,145.600 35.200 C 145.050 35.024,144.240 34.880,143.800 34.880 C 143.167 34.880,143.208 34.946,144.000 35.200 M125.600 35.600 C 125.600 35.820,125.870 36.023,126.200 36.050 C 127.123 36.127,127.339 36.194,128.200 36.675 C 128.640 36.920,129.132 37.147,129.293 37.178 C 129.650 37.247,131.674 38.089,134.675 39.416 C 136.664 40.296,137.788 40.455,137.092 39.759 C 136.099 38.765,125.600 34.966,125.600 35.600 M50.000 37.581 C 50.000 37.702,81.584 69.385,120.188 107.988 C 158.791 146.590,190.583 178.675,190.836 179.287 C 191.269 180.333,192.000 180.815,192.000 180.056 C 192.000 178.923,183.557 170.327,120.754 107.515 C 64.567 51.319,51.638 38.197,52.248 37.981 C 52.802 37.785,52.605 37.668,51.500 37.538 C 50.675 37.440,50.000 37.460,50.000 37.581 M156.600 38.400 C 157.040 38.589,157.670 38.744,158.000 38.744 C 158.378 38.744,158.304 38.617,157.800 38.400 C 157.360 38.211,156.730 38.056,156.400 38.056 C 156.022 38.056,156.096 38.183,156.600 38.400 M162.600 40.218 C 164.800 40.965,166.933 41.774,167.339 42.016 C 167.977 42.395,168.833 42.261,168.367 41.855 C 168.068 41.594,159.410 38.799,158.999 38.830 C 158.780 38.847,160.400 39.472,162.600 40.218 M206.000 39.142 C 206.000 39.340,207.305 40.181,208.900 41.011 C 213.611 43.465,220.705 47.523,225.127 50.294 C 227.397 51.716,229.345 52.788,229.457 52.677 C 229.568 52.565,226.541 50.626,222.730 48.367 C 207.996 39.636,206.000 38.535,206.000 39.142 M137.600 40.320 C 137.600 40.599,140.900 42.400,141.411 42.400 C 142.142 42.400,141.306 41.617,139.789 40.880 C 137.781 39.904,137.600 39.858,137.600 40.320 M333.500 41.108 C 331.763 41.686,330.680 42.719,332.300 42.252 C 332.685 42.142,333.765 41.831,334.700 41.562 C 335.635 41.293,336.400 40.922,336.400 40.737 C 336.400 40.279,335.740 40.363,333.500 41.108 M78.000 42.000 C 78.000 42.220,78.360 42.400,78.800 42.400 C 79.240 42.400,79.600 42.220,79.600 42.000 C 79.600 41.780,79.240 41.600,78.800 41.600 C 78.360 41.600,78.000 41.780,78.000 42.000 M80.400 42.400 C 80.400 42.620,80.760 42.800,81.200 42.800 C 81.640 42.800,82.000 42.620,82.000 42.400 C 82.000 42.180,81.640 42.000,81.200 42.000 C 80.760 42.000,80.400 42.180,80.400 42.400 M168.800 42.357 C 168.800 42.801,170.031 43.303,170.346 42.988 C 170.473 42.861,170.312 42.589,169.988 42.384 C 169.240 41.911,168.800 41.901,168.800 42.357 M82.400 42.800 C 82.400 43.020,82.850 43.200,83.400 43.200 C 83.950 43.200,84.400 43.020,84.400 42.800 C 84.400 42.580,83.950 42.400,83.400 42.400 C 82.850 42.400,82.400 42.580,82.400 42.800 M85.200 43.200 C 85.200 43.420,85.560 43.600,86.000 43.600 C 86.440 43.600,86.800 43.420,86.800 43.200 C 86.800 42.980,86.440 42.800,86.000 42.800 C 85.560 42.800,85.200 42.980,85.200 43.200 M87.600 43.600 C 87.600 43.820,87.870 44.000,88.200 44.000 C 88.530 44.000,88.800 43.820,88.800 43.600 C 88.800 43.380,88.530 43.200,88.200 43.200 C 87.870 43.200,87.600 43.380,87.600 43.600 M172.000 43.495 C 172.000 43.704,173.485 44.461,175.300 45.177 C 177.115 45.894,178.825 46.571,179.100 46.683 C 179.375 46.794,179.600 46.714,179.600 46.505 C 179.600 46.296,178.115 45.539,176.300 44.823 C 174.485 44.106,172.775 43.429,172.500 43.317 C 172.225 43.206,172.000 43.286,172.000 43.495 M89.600 44.000 C 89.600 44.220,89.870 44.400,90.200 44.400 C 90.530 44.400,90.800 44.220,90.800 44.000 C 90.800 43.780,90.530 43.600,90.200 43.600 C 89.870 43.600,89.600 43.780,89.600 44.000 M365.884 44.400 C 365.769 44.839,365.838 45.300,366.038 45.423 C 366.237 45.546,366.400 45.187,366.400 44.624 C 366.400 43.398,366.172 43.299,365.884 44.400 M91.200 44.400 C 91.200 44.620,91.560 44.800,92.000 44.800 C 92.440 44.800,92.800 44.620,92.800 44.400 C 92.800 44.180,92.440 44.000,92.000 44.000 C 91.560 44.000,91.200 44.180,91.200 44.400 M93.200 44.800 C 93.200 45.020,93.560 45.200,94.000 45.200 C 94.440 45.200,94.800 45.020,94.800 44.800 C 94.800 44.580,94.440 44.400,94.000 44.400 C 93.560 44.400,93.200 44.580,93.200 44.800 M95.200 45.200 C 95.200 45.420,95.470 45.600,95.800 45.600 C 96.130 45.600,96.400 45.420,96.400 45.200 C 96.400 44.980,96.130 44.800,95.800 44.800 C 95.470 44.800,95.200 44.980,95.200 45.200 M150.800 47.119 C 155.807 49.865,161.332 53.159,164.500 55.286 C 165.765 56.135,166.800 56.659,166.800 56.451 C 166.800 55.664,148.338 44.785,147.040 44.808 C 146.798 44.812,148.490 45.852,150.800 47.119 M96.800 45.521 C 96.800 45.698,98.508 46.254,100.596 46.758 C 102.683 47.261,104.753 47.767,105.196 47.883 C 105.678 48.009,106.000 47.897,106.000 47.604 C 106.000 47.335,105.736 47.216,105.413 47.340 C 105.090 47.464,104.716 47.388,104.583 47.172 C 104.449 46.956,104.128 46.812,103.870 46.852 C 103.611 46.893,103.130 46.815,102.800 46.680 C 100.762 45.844,96.800 45.079,96.800 45.521 M364.905 47.400 C 364.366 49.156,364.965 49.650,365.561 47.940 C 366.087 46.432,366.110 46.000,365.667 46.000 C 365.484 46.000,365.141 46.630,364.905 47.400 M180.000 46.742 C 180.000 46.931,181.935 47.941,184.300 48.986 C 189.885 51.456,189.600 51.357,189.600 50.819 C 189.600 50.563,189.420 50.464,189.200 50.600 C 188.980 50.736,188.800 50.646,188.800 50.400 C 188.800 50.154,188.620 50.064,188.400 50.200 C 188.180 50.336,188.000 50.257,188.000 50.024 C 188.000 49.791,187.865 49.628,187.700 49.662 C 187.535 49.696,185.822 48.976,183.893 48.062 C 180.102 46.265,180.000 46.231,180.000 46.742 M312.000 48.600 C 310.570 49.116,309.590 49.552,309.822 49.569 C 310.054 49.586,311.494 49.163,313.022 48.630 C 314.550 48.096,315.530 47.660,315.200 47.661 C 314.870 47.662,313.430 48.084,312.000 48.600 M110.400 49.157 C 110.400 49.565,112.387 50.146,112.703 49.831 C 112.817 49.716,112.424 49.437,111.829 49.211 C 110.511 48.710,110.400 48.706,110.400 49.157 M113.200 49.994 C 113.200 50.182,114.145 50.643,115.300 51.018 C 116.455 51.393,119.442 52.501,121.938 53.479 C 124.434 54.457,126.574 55.160,126.693 55.040 C 126.813 54.920,126.391 54.634,125.755 54.403 C 125.120 54.172,124.240 53.826,123.800 53.633 C 123.360 53.440,122.343 52.993,121.540 52.641 C 120.736 52.288,119.827 52.000,119.520 52.000 C 119.212 52.000,118.789 51.844,118.580 51.652 C 117.964 51.089,113.200 49.621,113.200 49.994 M190.000 51.077 C 190.000 51.264,191.935 52.376,194.300 53.548 C 196.665 54.720,201.181 57.115,204.336 58.870 C 207.490 60.626,210.156 61.977,210.260 61.873 C 210.459 61.674,204.755 58.486,195.500 53.625 C 192.475 52.036,190.000 50.889,190.000 51.077 M231.209 53.857 C 231.228 54.626,248.721 65.638,249.833 65.581 C 250.035 65.571,249.300 65.097,248.200 64.528 C 247.100 63.959,246.110 63.366,246.000 63.210 C 245.228 62.114,231.193 53.239,231.209 53.857 M296.763 54.704 C 295.207 56.446,294.000 58.315,294.000 58.984 C 294.000 60.064,294.691 59.645,294.937 58.416 C 295.067 57.764,295.835 56.500,296.643 55.605 C 297.451 54.711,298.029 53.895,297.927 53.794 C 297.825 53.692,297.301 54.101,296.763 54.704 M131.739 57.446 C 132.806 58.001,133.766 58.368,133.872 58.261 C 134.061 58.073,130.550 56.381,130.049 56.419 C 129.912 56.429,130.673 56.891,131.739 57.446 M168.477 57.630 C 168.556 57.867,168.796 58.074,169.010 58.090 C 169.225 58.107,169.580 58.332,169.800 58.590 C 170.020 58.849,172.630 60.778,175.600 62.877 C 183.728 68.622,189.566 73.377,200.511 83.165 L 206.063 88.131 215.023 79.177 C 219.951 74.252,223.852 70.097,223.692 69.942 C 223.343 69.606,214.915 64.304,213.671 63.638 C 213.192 63.382,212.800 63.325,212.800 63.513 C 212.800 63.701,215.050 65.245,217.800 66.945 C 220.550 68.644,222.800 70.164,222.800 70.321 C 222.800 70.478,218.973 74.430,214.296 79.104 L 205.793 87.600 202.716 84.443 C 199.510 81.153,191.528 74.121,189.331 72.650 C 187.330 71.311,178.328 64.290,177.420 63.361 C 175.444 61.340,168.157 56.670,168.477 57.630 M339.000 58.400 C 337.240 59.026,335.993 59.551,336.230 59.569 C 336.466 59.586,337.982 59.150,339.597 58.601 C 343.123 57.402,342.992 57.315,342.001 60.197 C 341.560 61.478,341.213 62.722,341.230 62.963 C 341.261 63.426,343.200 58.072,343.200 57.522 C 343.200 57.018,342.440 57.177,339.000 58.400 M138.400 60.663 C 140.710 61.901,142.690 63.038,142.800 63.191 C 143.226 63.783,146.850 65.684,147.091 65.442 C 147.536 64.997,135.768 58.387,134.567 58.406 C 134.365 58.409,136.090 59.425,138.400 60.663 M324.043 63.220 C 321.537 64.078,319.429 64.838,319.358 64.908 C 319.288 64.979,322.891 68.695,327.366 73.166 L 335.502 81.295 337.393 75.622 C 338.432 72.502,339.206 69.872,339.111 69.778 C 339.016 69.683,338.516 70.954,337.999 72.603 C 337.482 74.251,336.944 75.600,336.803 75.600 C 336.662 75.600,336.226 76.616,335.835 77.857 L 335.123 80.115 327.761 72.761 C 319.138 64.147,319.920 65.392,322.600 64.547 C 323.810 64.166,324.800 63.696,324.800 63.503 C 324.800 63.311,325.000 63.276,325.245 63.428 C 325.489 63.579,325.804 63.526,325.945 63.311 C 326.085 63.096,327.010 62.637,328.000 62.292 C 328.990 61.946,329.530 61.663,329.200 61.662 C 328.870 61.662,326.550 62.363,324.043 63.220 M294.000 63.253 C 294.000 64.418,296.207 67.097,301.935 72.882 L 308.155 79.165 305.778 81.669 C 303.301 84.277,216.470 171.033,150.911 236.400 C 127.934 259.310,112.606 274.300,112.000 274.453 C 111.048 274.693,111.058 274.707,112.200 274.749 C 113.283 274.789,122.967 265.224,211.179 176.990 L 308.957 79.187 302.085 72.274 C 296.917 67.075,295.149 65.043,294.956 64.080 C 294.716 62.879,294.000 62.260,294.000 63.253 M359.647 63.300 C 359.692 63.575,359.519 64.307,359.264 64.926 C 358.710 66.270,358.699 66.400,359.137 66.400 C 359.322 66.400,359.682 65.704,359.937 64.854 C 360.504 62.959,360.508 62.800,359.982 62.800 C 359.753 62.800,359.602 63.025,359.647 63.300 M147.600 65.495 C 147.600 65.693,149.805 67.218,152.500 68.885 C 155.195 70.552,159.560 73.433,162.200 75.286 C 164.840 77.140,167.540 78.980,168.200 79.375 C 170.175 80.558,167.134 77.959,164.000 75.785 C 162.570 74.793,160.500 73.346,159.400 72.569 C 157.639 71.325,153.818 68.904,149.100 66.044 C 148.275 65.544,147.600 65.297,147.600 65.495 M252.000 66.540 C 252.000 66.831,261.596 70.537,261.806 70.328 C 261.903 70.230,259.962 69.352,257.491 68.375 C 252.600 66.442,252.000 66.241,252.000 66.540 M262.400 70.522 C 262.400 70.885,267.973 72.876,268.498 72.700 C 268.774 72.608,267.740 72.116,266.200 71.608 C 264.660 71.099,263.175 70.600,262.900 70.499 C 262.625 70.397,262.400 70.408,262.400 70.522 M273.404 74.407 C 273.542 74.630,273.810 74.717,274.000 74.600 C 274.190 74.483,274.460 74.573,274.600 74.800 C 274.740 75.027,275.056 75.089,275.301 74.938 C 275.586 74.761,275.468 74.553,274.973 74.359 C 273.846 73.918,273.115 73.940,273.404 74.407 M276.000 75.200 C 276.000 75.547,277.351 75.780,277.739 75.500 C 277.815 75.445,278.130 75.600,278.439 75.845 C 279.195 76.444,281.200 76.900,281.200 76.473 C 281.200 76.285,280.123 75.832,278.806 75.466 C 275.992 74.683,276.000 74.684,276.000 75.200 M281.600 76.750 C 281.600 76.942,282.095 77.202,282.700 77.327 C 284.772 77.755,287.176 79.695,288.213 81.776 C 288.819 82.992,289.200 83.444,289.200 82.947 C 289.200 81.369,286.866 78.504,284.701 77.425 C 282.564 76.361,281.600 76.151,281.600 76.750 M170.600 80.970 C 173.947 83.945,176.464 86.120,179.000 88.227 C 180.540 89.506,183.240 91.839,185.000 93.410 C 186.760 94.982,188.530 96.448,188.933 96.668 C 189.336 96.888,192.216 99.590,195.333 102.671 C 200.684 107.961,202.171 109.200,203.174 109.200 C 204.023 109.200,203.575 108.480,202.568 108.228 C 202.001 108.085,199.525 106.041,197.067 103.684 C 190.947 97.817,184.264 91.661,183.228 90.935 C 182.756 90.604,181.972 89.940,181.485 89.459 C 180.357 88.344,173.104 82.514,171.000 81.031 C 169.424 79.920,169.418 79.919,170.600 80.970 M228.743 90.039 C 221.388 97.748,221.797 96.826,224.979 98.516 C 228.272 100.265,228.449 99.724,225.185 97.885 L 222.770 96.524 229.085 90.362 L 235.400 84.200 243.683 92.600 L 251.966 101.000 247.235 106.000 L 242.503 111.000 239.551 108.439 C 237.928 107.030,236.240 105.485,235.800 105.006 C 234.884 104.008,232.254 102.000,231.862 102.000 C 231.149 102.000,231.800 102.786,233.699 104.218 C 234.854 105.088,237.303 107.130,239.142 108.756 L 242.485 111.712 247.740 106.457 L 252.995 101.202 244.201 92.401 C 239.364 87.560,235.290 83.600,235.146 83.600 C 235.003 83.600,232.122 86.497,228.743 90.039 M352.240 85.840 C 351.853 87.067,351.609 88.142,351.697 88.230 C 351.785 88.318,352.173 87.387,352.560 86.160 C 352.947 84.933,353.191 83.858,353.103 83.770 C 353.015 83.682,352.627 84.613,352.240 85.840 M289.301 85.800 C 289.305 86.680,289.387 86.993,289.483 86.495 C 289.579 85.998,289.575 85.278,289.475 84.895 C 289.375 84.513,289.296 84.920,289.301 85.800 M288.633 88.610 C 288.270 90.058,285.753 92.698,283.838 93.638 C 282.438 94.326,282.374 94.406,283.400 94.190 C 285.661 93.714,288.436 90.990,289.017 88.676 C 289.165 88.084,289.197 87.600,289.087 87.600 C 288.977 87.600,288.773 88.055,288.633 88.610 M267.600 91.109 C 267.600 91.218,268.850 92.623,270.378 94.231 C 272.354 96.312,273.232 97.566,273.422 98.578 C 273.569 99.360,273.872 100.000,274.095 100.000 C 274.685 100.000,274.158 97.804,273.314 96.750 C 272.921 96.259,271.860 95.035,270.956 94.029 C 270.052 93.023,269.385 91.997,269.473 91.750 C 269.561 91.502,269.176 91.212,268.617 91.105 C 268.058 90.998,267.600 91.000,267.600 91.109 M270.249 91.921 C 270.126 92.119,270.716 92.488,271.560 92.741 C 273.472 93.313,274.123 93.323,273.783 92.773 C 273.638 92.538,273.289 92.434,273.008 92.541 C 272.727 92.649,272.296 92.536,272.049 92.289 C 271.802 92.042,271.600 91.988,271.600 92.169 C 271.600 92.350,271.346 92.287,271.036 92.030 C 270.721 91.769,270.373 91.721,270.249 91.921 M223.217 189.383 C 169.436 243.164,125.555 287.288,125.703 287.436 C 125.851 287.584,169.923 243.748,223.640 190.022 L 321.308 92.339 327.754 98.721 C 333.562 104.472,335.929 106.400,337.180 106.400 C 338.121 106.400,337.515 105.683,336.383 105.457 C 335.228 105.226,323.026 94.191,321.859 92.322 C 321.611 91.925,321.316 91.600,321.203 91.600 C 321.091 91.600,276.997 135.603,223.217 189.383 M279.350 94.481 C 279.241 94.656,279.823 94.800,280.643 94.800 C 281.463 94.800,281.998 94.665,281.833 94.500 C 281.430 94.096,279.597 94.082,279.350 94.481 M228.000 99.923 C 228.000 100.127,228.720 100.770,229.600 101.353 C 231.377 102.528,231.843 102.100,230.100 100.893 C 228.376 99.699,228.000 99.526,228.000 99.923 M273.600 103.000 C 273.600 103.330,273.780 103.600,274.000 103.600 C 274.220 103.600,274.400 103.330,274.400 103.000 C 274.400 102.670,274.220 102.400,274.000 102.400 C 273.780 102.400,273.600 102.670,273.600 103.000 M344.694 103.822 C 343.865 104.592,342.650 105.330,341.994 105.461 C 341.337 105.593,340.800 105.858,340.800 106.050 C 340.800 106.544,341.895 106.484,342.926 105.933 C 344.073 105.321,347.116 102.407,346.600 102.415 C 346.380 102.419,345.522 103.052,344.694 103.822 M260.200 118.290 C 252.658 125.934,246.743 131.604,245.800 132.094 C 244.920 132.552,244.413 132.999,244.673 133.087 C 244.933 133.176,245.653 132.981,246.273 132.653 C 247.679 131.910,273.200 106.351,273.200 105.686 C 273.200 105.051,274.652 103.644,260.200 118.290 M204.000 109.200 C 204.000 109.420,204.263 109.600,204.585 109.600 C 204.906 109.600,206.564 110.043,208.268 110.584 C 209.972 111.125,211.448 111.485,211.550 111.384 C 211.853 111.080,211.343 110.761,210.445 110.693 C 209.980 110.658,209.600 110.510,209.600 110.364 C 209.600 110.146,204.968 108.800,204.218 108.800 C 204.098 108.800,204.000 108.980,204.000 109.200 M313.705 111.087 C 314.314 111.179,315.214 111.177,315.705 111.082 C 316.197 110.987,315.700 110.911,314.600 110.914 C 313.500 110.917,313.097 110.995,313.705 111.087 M212.000 111.488 C 212.000 111.682,212.855 112.252,213.900 112.755 C 219.786 115.589,226.808 121.247,233.127 128.248 C 235.137 130.474,237.331 132.523,238.003 132.801 C 239.854 133.568,239.903 132.971,238.066 132.034 C 237.166 131.574,235.185 129.751,233.579 127.906 C 229.605 123.335,225.951 119.988,220.718 116.127 C 218.486 114.480,212.000 111.029,212.000 111.488 M309.497 112.379 C 307.432 113.689,305.176 117.200,306.400 117.200 C 306.620 117.200,306.800 116.884,306.800 116.498 C 306.800 115.546,309.758 112.467,311.329 111.784 C 312.028 111.480,312.320 111.224,311.978 111.216 C 311.636 111.207,310.520 111.731,309.497 112.379 M318.272 111.978 C 320.046 112.847,322.800 115.853,322.800 116.918 C 322.800 117.267,322.980 117.664,323.200 117.800 C 323.877 118.218,323.632 117.080,322.693 115.438 C 321.606 113.537,319.420 111.734,317.800 111.403 C 316.784 111.195,316.857 111.283,318.272 111.978 M305.600 119.733 C 305.600 120.980,305.738 122.000,305.908 122.000 C 306.263 122.000,306.201 118.067,305.840 117.707 C 305.708 117.575,305.600 118.487,305.600 119.733 M323.513 118.632 C 323.392 118.834,323.473 119.450,323.693 120.000 C 323.912 120.550,324.166 120.805,324.257 120.566 C 324.482 119.975,323.788 118.169,323.513 118.632 M324.262 121.499 C 324.111 121.744,324.173 122.060,324.400 122.200 C 324.627 122.340,324.717 122.610,324.600 122.800 C 324.483 122.990,324.570 123.258,324.793 123.396 C 325.260 123.685,325.282 122.954,324.841 121.827 C 324.647 121.332,324.439 121.214,324.262 121.499 M325.062 124.299 C 324.911 124.544,324.973 124.860,325.200 125.000 C 325.427 125.140,325.517 125.410,325.400 125.600 C 325.283 125.790,325.370 126.058,325.593 126.196 C 326.060 126.485,326.082 125.754,325.641 124.627 C 325.447 124.132,325.239 124.014,325.062 124.299 M306.800 125.807 C 306.800 126.879,308.160 130.748,308.470 130.557 C 308.689 130.422,308.670 130.125,308.423 129.828 C 308.194 129.552,308.100 129.233,308.215 129.119 C 308.329 129.004,308.207 128.391,307.945 127.755 C 307.682 127.120,307.452 126.480,307.434 126.333 C 307.380 125.911,306.800 125.429,306.800 125.807 M300.627 126.356 C 300.506 126.552,301.045 126.832,301.826 126.978 C 302.837 127.168,304.099 128.056,306.222 130.073 C 308.639 132.369,309.200 132.742,309.200 132.051 C 309.200 131.583,309.001 131.200,308.759 131.200 C 308.516 131.200,307.404 130.379,306.288 129.375 C 303.771 127.112,301.055 125.664,300.627 126.356 M294.188 127.416 C 292.017 128.488,267.200 153.751,267.200 154.889 C 267.200 155.611,267.868 155.108,268.521 153.894 C 269.385 152.291,292.917 128.804,294.826 127.641 C 296.406 126.677,295.985 126.529,294.188 127.416 M326.269 128.622 C 326.611 129.624,326.972 130.361,327.073 130.261 C 327.346 129.987,326.322 126.800,325.961 126.800 C 325.789 126.800,325.928 127.620,326.269 128.622 M240.000 133.300 C 240.000 133.465,240.900 133.600,242.000 133.600 C 243.100 133.600,244.000 133.452,244.000 133.271 C 244.000 133.090,243.100 132.955,242.000 132.971 C 240.900 132.987,240.000 133.135,240.000 133.300 M328.000 133.531 C 328.000 134.011,331.286 142.870,332.813 146.508 C 334.947 151.593,334.546 149.784,332.252 143.978 C 331.083 141.020,329.723 137.385,329.231 135.900 C 328.416 133.446,328.000 132.644,328.000 133.531 M293.840 152.760 L 288.692 157.919 291.796 161.460 C 296.546 166.877,297.498 168.000,297.340 168.000 C 297.211 168.000,299.198 171.095,301.196 174.008 C 301.576 174.562,302.006 175.372,302.150 175.808 C 302.295 176.243,302.727 177.006,303.110 177.502 L 303.806 178.403 310.399 171.801 L 316.992 165.199 308.199 156.399 C 303.363 151.560,299.313 147.600,299.198 147.600 C 299.083 147.600,296.672 149.922,293.840 152.760 M310.035 171.298 L 303.870 177.596 302.211 174.698 C 299.863 170.596,296.040 164.879,295.254 164.294 C 294.889 164.022,293.422 162.473,291.995 160.851 L 289.400 157.903 294.400 153.178 L 299.400 148.453 307.800 156.726 L 316.200 165.000 310.035 171.298 M334.818 150.968 C 334.770 151.957,346.221 169.971,346.910 169.991 C 347.512 170.008,337.832 154.686,336.809 154.000 C 336.644 153.890,336.133 153.080,335.673 152.200 C 335.212 151.320,334.827 150.765,334.818 150.968 M267.200 161.853 C 267.200 162.476,268.907 164.778,269.805 165.367 C 275.019 168.783,284.160 179.732,287.449 186.500 C 288.588 188.844,289.521 189.696,288.762 187.700 C 288.030 185.774,284.238 179.434,283.199 178.400 C 283.089 178.290,281.979 176.940,280.733 175.400 C 278.316 172.411,273.130 167.250,270.764 165.478 C 269.973 164.886,268.988 163.771,268.573 163.001 C 267.899 161.751,267.200 161.166,267.200 161.853 M347.213 170.449 C 347.206 170.586,348.979 173.646,351.154 177.249 C 353.329 180.852,356.045 185.555,357.190 187.700 C 358.335 189.845,359.438 191.600,359.642 191.600 C 360.033 191.600,358.935 189.406,356.538 185.400 C 355.749 184.080,353.605 180.480,351.774 177.400 C 348.483 171.863,347.237 169.965,347.213 170.449 M321.217 185.383 L 312.286 194.321 317.402 200.060 C 320.217 203.217,322.850 206.160,323.254 206.600 C 323.658 207.040,324.736 208.300,325.650 209.400 C 326.564 210.500,327.496 211.470,327.723 211.556 C 328.932 212.014,320.748 202.310,315.951 197.600 L 312.896 194.600 321.548 185.906 L 330.200 177.211 333.000 181.861 C 334.540 184.418,336.073 186.803,336.407 187.162 C 338.229 189.119,346.817 205.642,351.396 216.000 C 354.676 223.420,354.688 223.445,355.003 223.131 C 355.259 222.874,351.567 214.247,351.123 214.066 C 350.943 213.992,350.897 213.767,351.021 213.566 C 351.145 213.365,351.046 213.200,350.800 213.200 C 350.554 213.200,350.464 213.020,350.600 212.800 C 350.736 212.580,350.627 212.400,350.357 212.400 C 350.087 212.400,349.978 212.289,350.113 212.154 C 350.816 211.451,332.098 177.650,330.439 176.624 C 330.279 176.525,326.130 180.467,321.217 185.383 M191.600 181.376 C 191.600 181.693,191.780 182.064,192.000 182.200 C 192.220 182.336,192.400 182.077,192.400 181.624 C 192.400 181.171,192.220 180.800,192.000 180.800 C 191.780 180.800,191.600 181.059,191.600 181.376 M191.812 184.517 C 191.641 184.912,191.613 185.347,191.751 185.484 C 192.157 185.890,192.484 185.320,192.297 184.531 C 192.132 183.833,192.110 183.832,191.812 184.517 M189.063 189.293 C 187.997 190.374,187.216 191.349,187.327 191.460 C 187.588 191.721,190.721 188.894,191.235 187.934 C 191.880 186.730,191.120 187.205,189.063 189.293 M288.929 189.758 C 289.047 190.065,289.364 191.055,289.635 191.958 C 290.046 193.332,290.800 194.230,290.800 193.346 C 290.800 192.555,289.817 190.000,289.513 190.000 C 289.315 190.000,289.264 189.820,289.400 189.600 C 289.536 189.380,289.437 189.200,289.181 189.200 C 288.924 189.200,288.811 189.451,288.929 189.758 M180.800 192.000 C 180.800 192.220,181.160 192.400,181.600 192.400 C 182.040 192.400,182.400 192.220,182.400 192.000 C 182.400 191.780,182.040 191.600,181.600 191.600 C 181.160 191.600,180.800 191.780,180.800 192.000 M184.200 192.000 C 184.064 192.220,184.323 192.400,184.776 192.400 C 185.229 192.400,185.600 192.220,185.600 192.000 C 185.600 191.780,185.341 191.600,185.024 191.600 C 184.707 191.600,184.336 191.780,184.200 192.000 M362.975 198.700 C 364.635 201.945,365.952 204.690,365.902 204.800 C 365.852 204.910,366.383 206.015,367.084 207.255 C 367.784 208.496,368.246 209.621,368.111 209.755 C 367.977 209.890,368.087 210.000,368.357 210.000 C 368.627 210.000,368.752 210.153,368.636 210.341 C 368.520 210.529,368.699 211.024,369.034 211.441 C 369.611 212.162,369.627 212.150,369.364 211.200 C 368.555 208.287,360.989 192.800,360.375 192.800 C 360.145 192.800,361.316 195.455,362.975 198.700 M290.400 194.600 C 290.400 194.930,290.580 195.200,290.800 195.200 C 291.020 195.200,291.200 194.930,291.200 194.600 C 291.200 194.270,291.020 194.000,290.800 194.000 C 290.580 194.000,290.400 194.270,290.400 194.600 M290.800 196.189 C 290.800 197.924,292.353 199.970,297.375 204.849 C 300.359 207.748,302.800 210.335,302.800 210.598 C 302.800 210.861,303.183 211.419,303.652 211.838 C 304.120 212.257,306.667 215.120,309.312 218.200 C 313.603 223.198,315.337 225.200,319.014 229.400 C 321.251 231.956,319.357 229.355,315.153 224.100 C 309.915 217.553,307.957 215.336,298.938 205.752 C 294.234 200.751,291.992 198.074,291.807 197.234 C 291.515 195.902,290.800 195.161,290.800 196.189 M214.800 208.400 C 214.800 208.620,215.059 208.800,215.376 208.800 C 215.693 208.800,216.064 208.620,216.200 208.400 C 216.336 208.180,216.077 208.000,215.624 208.000 C 215.171 208.000,214.800 208.180,214.800 208.400 M218.200 208.400 C 218.336 208.620,218.707 208.800,219.024 208.800 C 219.341 208.800,219.600 208.620,219.600 208.400 C 219.600 208.180,219.229 208.000,218.776 208.000 C 218.323 208.000,218.064 208.180,218.200 208.400 M213.000 208.879 C 211.336 209.825,208.400 213.204,208.400 214.174 C 208.400 214.766,209.177 214.304,209.408 213.574 C 209.812 212.302,211.860 210.155,213.198 209.601 C 213.859 209.327,214.400 208.945,214.400 208.751 C 214.400 208.286,213.975 208.325,213.000 208.879 M220.000 208.727 C 220.000 208.908,220.543 209.313,221.208 209.627 C 221.872 209.942,254.002 241.782,292.608 280.382 C 345.134 332.900,362.800 350.336,362.800 349.658 C 362.800 349.160,362.630 348.858,362.423 348.986 C 362.216 349.114,345.161 332.278,324.523 311.572 C 219.382 206.083,220.000 206.691,220.000 208.727 M328.248 212.423 C 333.491 219.167,335.131 221.358,337.965 225.400 C 339.815 228.040,341.582 230.409,341.891 230.664 C 342.200 230.919,342.428 231.274,342.397 231.454 C 342.365 231.633,342.534 231.845,342.770 231.923 C 343.706 232.235,338.962 224.728,337.258 223.200 C 336.890 222.870,334.835 220.315,332.692 217.522 C 330.549 214.730,328.572 212.310,328.298 212.146 C 327.918 211.917,327.906 211.983,328.248 212.423 M208.000 215.824 C 208.000 216.404,208.173 216.740,208.400 216.600 C 208.620 216.464,208.800 216.003,208.800 215.576 C 208.800 215.149,208.620 214.800,208.400 214.800 C 208.180 214.800,208.000 215.261,208.000 215.824 M371.612 217.285 C 371.605 217.442,371.984 218.522,372.452 219.685 C 372.921 220.848,374.187 224.230,375.266 227.200 C 376.345 230.170,377.118 232.060,376.982 231.400 C 376.465 228.880,371.657 216.241,371.612 217.285 M208.000 218.600 C 208.000 219.150,208.180 219.600,208.400 219.600 C 208.620 219.600,208.800 219.150,208.800 218.600 C 208.800 218.050,208.620 217.600,208.400 217.600 C 208.180 217.600,208.000 218.050,208.000 218.600 M208.400 220.226 C 208.400 220.351,208.601 220.828,208.847 221.287 C 209.092 221.747,249.112 261.941,297.778 310.607 C 386.519 399.349,388.275 401.058,389.493 399.840 C 389.625 399.708,389.476 399.600,389.160 399.600 C 388.845 399.600,388.004 399.285,387.291 398.900 C 385.513 397.941,210.146 222.517,209.566 221.119 C 209.165 220.150,208.400 219.564,208.400 220.226 M354.806 223.900 C 354.817 224.447,355.553 225.381,355.788 225.146 C 356.103 224.831,355.601 223.600,355.157 223.600 C 354.961 223.600,354.803 223.735,354.806 223.900 M355.600 225.740 C 355.600 226.355,356.553 228.400,356.839 228.400 C 357.292 228.400,357.291 228.381,356.761 226.860 C 356.413 225.861,355.600 225.077,355.600 225.740 M356.806 229.100 C 356.817 229.647,357.553 230.581,357.788 230.346 C 358.103 230.031,357.601 228.800,357.157 228.800 C 356.961 228.800,356.803 228.935,356.806 229.100 M320.620 231.800 C 321.012 232.460,322.433 234.538,323.778 236.417 C 325.122 238.296,327.643 242.031,329.379 244.717 C 331.115 247.403,332.696 249.600,332.891 249.600 C 333.087 249.600,333.116 249.375,332.956 249.100 C 332.046 247.536,325.859 238.168,325.626 238.000 C 325.473 237.890,324.685 236.810,323.875 235.600 C 322.059 232.885,319.466 229.859,320.620 231.800 M357.600 231.120 C 357.600 231.296,357.759 231.611,357.954 231.820 C 358.149 232.029,358.996 234.308,359.836 236.885 C 360.676 239.461,361.434 241.499,361.519 241.414 C 361.773 241.160,358.251 230.800,357.912 230.800 C 357.740 230.800,357.600 230.944,357.600 231.120 M345.002 235.700 C 346.927 238.598,351.555 246.403,353.415 249.889 C 354.262 251.477,355.023 252.711,355.104 252.629 C 355.627 252.106,344.797 233.600,343.968 233.600 C 343.769 233.600,344.235 234.545,345.002 235.700 M378.252 236.200 C 378.327 236.640,378.392 237.135,378.395 237.300 C 378.405 237.886,379.200 237.590,379.200 237.000 C 379.200 236.670,379.033 236.400,378.829 236.400 C 378.625 236.400,378.381 236.175,378.287 235.900 C 378.192 235.625,378.177 235.760,378.252 236.200 M379.200 239.800 C 379.200 240.130,379.380 240.400,379.600 240.400 C 379.820 240.400,380.000 240.130,380.000 239.800 C 380.000 239.470,379.820 239.200,379.600 239.200 C 379.380 239.200,379.200 239.470,379.200 239.800 M380.000 242.600 C 380.000 242.930,380.180 243.200,380.400 243.200 C 380.620 243.200,380.800 242.930,380.800 242.600 C 380.800 242.270,380.620 242.000,380.400 242.000 C 380.180 242.000,380.000 242.270,380.000 242.600 M362.056 243.600 C 362.056 243.930,362.211 244.560,362.400 245.000 C 362.617 245.504,362.744 245.578,362.744 245.200 C 362.744 244.870,362.589 244.240,362.400 243.800 C 362.183 243.296,362.056 243.222,362.056 243.600 M380.400 244.200 C 380.400 244.530,380.580 244.800,380.800 244.800 C 381.020 244.800,381.200 244.530,381.200 244.200 C 381.200 243.870,381.020 243.600,380.800 243.600 C 380.580 243.600,380.400 243.870,380.400 244.200 M380.800 245.800 C 380.800 246.130,380.980 246.400,381.200 246.400 C 381.420 246.400,381.600 246.130,381.600 245.800 C 381.600 245.470,381.420 245.200,381.200 245.200 C 380.980 245.200,380.800 245.470,380.800 245.800 M381.415 248.100 C 381.728 249.561,381.893 249.840,382.238 249.495 C 382.600 249.133,381.993 246.800,381.536 246.800 C 381.295 246.800,381.247 247.314,381.415 248.100 M333.400 251.200 C 333.741 251.860,334.206 252.400,334.433 252.400 C 334.660 252.400,334.526 251.860,334.136 251.200 C 333.746 250.540,333.282 250.000,333.103 250.000 C 332.925 250.000,333.059 250.540,333.400 251.200 M382.259 250.304 C 382.091 250.577,382.094 251.025,382.266 251.300 C 382.439 251.575,382.528 252.115,382.465 252.500 C 382.402 252.885,382.541 253.200,382.775 253.200 C 383.243 253.200,383.268 252.332,382.843 250.804 C 382.654 250.126,382.468 249.966,382.259 250.304 M334.400 252.995 C 334.400 253.401,336.516 256.969,336.924 257.250 C 337.123 257.388,338.430 259.728,339.828 262.450 C 341.227 265.173,342.374 267.220,342.378 267.000 C 342.392 266.275,335.361 253.054,334.875 252.892 C 334.614 252.805,334.400 252.851,334.400 252.995 M382.800 254.176 C 382.800 254.493,382.980 254.864,383.200 255.000 C 383.420 255.136,383.600 254.877,383.600 254.424 C 383.600 253.971,383.420 253.600,383.200 253.600 C 382.980 253.600,382.800 253.859,382.800 254.176 M383.200 256.176 C 383.200 256.493,383.380 256.864,383.600 257.000 C 383.820 257.136,384.000 256.877,384.000 256.424 C 384.000 255.971,383.820 255.600,383.600 255.600 C 383.380 255.600,383.200 255.859,383.200 256.176 M383.600 258.176 C 383.600 258.493,383.780 258.864,384.000 259.000 C 384.220 259.136,384.400 258.877,384.400 258.424 C 384.400 257.971,384.220 257.600,384.000 257.600 C 383.780 257.600,383.600 257.859,383.600 258.176 M357.731 258.500 C 358.584 260.468,362.150 268.464,362.682 269.600 C 363.042 270.370,363.400 271.352,363.478 271.783 C 363.556 272.213,363.751 272.663,363.910 272.783 C 364.070 272.902,364.262 273.360,364.338 273.800 C 364.500 274.737,364.713 275.020,365.023 274.711 C 365.506 274.227,359.012 258.800,358.325 258.800 C 358.120 258.800,358.064 258.620,358.200 258.400 C 358.336 258.180,358.237 258.000,357.981 258.000 C 357.724 258.000,357.612 258.225,357.731 258.500 M384.000 260.376 C 384.000 260.803,384.180 261.264,384.400 261.400 C 384.627 261.540,384.800 261.204,384.800 260.624 C 384.800 260.061,384.620 259.600,384.400 259.600 C 384.180 259.600,384.000 259.949,384.000 260.376 M384.400 262.576 C 384.400 262.893,384.580 263.264,384.800 263.400 C 385.020 263.536,385.200 263.277,385.200 262.824 C 385.200 262.371,385.020 262.000,384.800 262.000 C 384.580 262.000,384.400 262.259,384.400 262.576 M384.800 265.176 C 384.800 265.603,384.980 266.064,385.200 266.200 C 385.427 266.340,385.600 266.004,385.600 265.424 C 385.600 264.861,385.420 264.400,385.200 264.400 C 384.980 264.400,384.800 264.749,384.800 265.176 M367.206 266.700 C 367.203 267.195,367.380 267.600,367.600 267.600 C 368.101 267.600,368.101 267.176,367.600 266.400 C 367.286 265.915,367.211 265.972,367.206 266.700 M385.200 267.576 C 385.200 268.003,385.380 268.464,385.600 268.600 C 385.827 268.740,386.000 268.404,386.000 267.824 C 386.000 267.261,385.820 266.800,385.600 266.800 C 385.380 266.800,385.200 267.149,385.200 267.576 M342.418 267.900 C 342.442 268.304,344.359 271.867,344.382 271.551 C 344.410 271.164,342.785 267.600,342.581 267.600 C 342.482 267.600,342.408 267.735,342.418 267.900 M367.628 268.900 C 367.613 269.505,367.780 270.000,368.000 270.000 C 368.469 270.000,368.469 269.693,368.000 268.600 C 367.695 267.891,367.653 267.925,367.628 268.900 M84.800 269.200 C 84.800 269.420,85.520 269.600,86.400 269.600 C 87.280 269.600,88.000 269.420,88.000 269.200 C 88.000 268.980,87.280 268.800,86.400 268.800 C 85.520 268.800,84.800 268.980,84.800 269.200 M82.000 269.741 C 81.450 270.037,75.510 275.767,68.800 282.476 C 41.552 309.720,40.800 310.530,40.800 312.626 C 40.800 313.820,41.452 313.132,41.897 311.471 C 42.628 308.735,82.004 269.401,83.509 269.903 C 83.779 269.993,84.000 269.872,84.000 269.633 C 84.000 269.049,83.212 269.091,82.000 269.741 M88.400 269.600 C 88.400 269.820,88.760 270.000,89.200 270.000 C 89.640 270.000,90.000 269.820,90.000 269.600 C 90.000 269.380,89.640 269.200,89.200 269.200 C 88.760 269.200,88.400 269.380,88.400 269.600 M90.400 270.000 C 90.400 270.220,90.670 270.400,91.000 270.400 C 91.330 270.400,91.600 270.220,91.600 270.000 C 91.600 269.780,91.330 269.600,91.000 269.600 C 90.670 269.600,90.400 269.780,90.400 270.000 M385.754 270.176 C 385.632 270.492,385.723 271.077,385.954 271.476 C 386.312 272.091,386.378 272.005,386.388 270.900 C 386.401 269.529,386.124 269.212,385.754 270.176 M92.200 270.400 C 92.336 270.620,92.707 270.800,93.024 270.800 C 93.341 270.800,93.600 270.620,93.600 270.400 C 93.600 270.180,93.229 270.000,92.776 270.000 C 92.323 270.000,92.064 270.180,92.200 270.400 M94.200 270.800 C 94.336 271.020,94.707 271.200,95.024 271.200 C 95.341 271.200,95.600 271.020,95.600 270.800 C 95.600 270.580,95.229 270.400,94.776 270.400 C 94.323 270.400,94.064 270.580,94.200 270.800 M96.000 271.200 C 96.000 271.420,96.270 271.600,96.600 271.600 C 96.930 271.600,97.200 271.420,97.200 271.200 C 97.200 270.980,96.930 270.800,96.600 270.800 C 96.270 270.800,96.000 270.980,96.000 271.200 M98.000 271.600 C 98.000 271.820,98.270 272.000,98.600 272.000 C 98.930 272.000,99.200 271.820,99.200 271.600 C 99.200 271.380,98.930 271.200,98.600 271.200 C 98.270 271.200,98.000 271.380,98.000 271.600 M368.006 271.900 C 368.003 272.395,368.180 272.800,368.400 272.800 C 368.901 272.800,368.901 272.376,368.400 271.600 C 368.086 271.115,368.011 271.172,368.006 271.900 M99.800 272.000 C 99.936 272.220,100.307 272.400,100.624 272.400 C 100.941 272.400,101.200 272.220,101.200 272.000 C 101.200 271.780,100.829 271.600,100.376 271.600 C 99.923 271.600,99.664 271.780,99.800 272.000 M101.600 272.400 C 101.600 272.620,101.870 272.800,102.200 272.800 C 102.530 272.800,102.800 272.620,102.800 272.400 C 102.800 272.180,102.530 272.000,102.200 272.000 C 101.870 272.000,101.600 272.180,101.600 272.400 M344.561 272.600 C 346.025 276.801,348.225 281.988,348.326 281.475 C 348.396 281.121,348.152 280.150,347.785 279.316 C 347.419 278.482,346.936 277.350,346.713 276.800 C 346.489 276.250,346.133 275.465,345.922 275.055 C 345.710 274.645,345.465 273.938,345.378 273.484 C 345.290 273.030,345.008 272.466,344.750 272.229 C 344.401 271.908,344.353 272.002,344.561 272.600 M103.600 272.800 C 103.600 273.020,103.870 273.200,104.200 273.200 C 104.530 273.200,104.800 273.020,104.800 272.800 C 104.800 272.580,104.530 272.400,104.200 272.400 C 103.870 272.400,103.600 272.580,103.600 272.800 M105.600 273.150 C 105.600 273.343,106.163 273.613,106.850 273.750 C 108.583 274.097,108.888 274.066,108.583 273.573 C 108.438 273.338,108.067 273.242,107.760 273.360 C 107.452 273.478,107.200 273.401,107.200 273.187 C 107.200 272.974,106.840 272.800,106.400 272.800 C 105.960 272.800,105.600 272.957,105.600 273.150 M386.173 273.326 C 386.062 273.615,386.146 274.290,386.360 274.826 C 386.719 275.723,386.751 275.682,386.775 274.300 C 386.800 272.782,386.542 272.364,386.173 273.326 M368.427 275.180 C 368.406 276.232,368.511 276.449,368.867 276.093 C 369.212 275.748,369.219 275.388,368.894 274.713 C 368.481 273.856,368.452 273.884,368.427 275.180 M386.406 277.500 C 386.409 277.885,386.587 278.470,386.800 278.800 C 387.094 279.255,387.189 279.086,387.194 278.100 C 387.197 277.385,387.020 276.800,386.800 276.800 C 386.580 276.800,386.403 277.115,386.406 277.500 M368.832 278.580 C 368.808 279.740,368.918 280.042,369.245 279.715 C 369.561 279.399,369.570 278.940,369.277 278.135 C 368.868 277.013,368.863 277.018,368.832 278.580 M366.521 279.900 C 366.858 281.577,367.595 283.339,367.852 283.081 C 368.110 282.823,366.857 278.800,366.518 278.800 C 366.398 278.800,366.399 279.295,366.521 279.900 M369.228 282.700 C 369.213 283.635,369.380 284.400,369.600 284.400 C 370.079 284.400,370.079 282.916,369.600 281.800 C 369.334 281.180,369.250 281.383,369.228 282.700 M387.035 282.700 C 387.410 284.776,387.600 284.832,387.600 282.867 C 387.600 281.950,387.412 281.200,387.182 281.200 C 386.917 281.200,386.863 281.750,387.035 282.700 M348.504 282.900 C 348.608 283.175,349.113 284.705,349.626 286.300 C 350.138 287.895,350.721 289.200,350.922 289.200 C 351.122 289.200,351.200 288.975,351.096 288.700 C 350.992 288.425,350.487 286.895,349.974 285.300 C 349.462 283.705,348.879 282.400,348.678 282.400 C 348.478 282.400,348.400 282.625,348.504 282.900 M368.604 285.600 C 369.034 287.592,369.993 290.926,370.194 291.127 C 370.516 291.449,370.358 287.917,370.000 286.800 C 369.727 285.949,369.669 285.919,369.609 286.600 C 369.558 287.191,369.389 287.034,368.964 286.000 C 368.623 285.171,368.477 285.008,368.604 285.600 M387.368 286.939 C 387.254 287.236,387.330 288.361,387.536 289.439 L 387.911 291.400 387.955 288.900 C 387.999 286.484,387.799 285.817,387.368 286.939 M78.244 298.356 C 68.697 307.908,67.592 309.144,68.377 309.393 C 69.362 309.705,70.040 309.319,69.305 308.865 C 69.002 308.678,72.576 304.814,79.274 298.086 C 85.016 292.319,89.552 287.600,89.354 287.600 C 89.156 287.600,84.157 292.440,78.244 298.356 M96.322 289.485 C 97.168 289.647,97.017 289.899,94.471 292.580 C 91.224 295.999,88.400 299.494,88.400 300.096 C 88.400 300.329,88.921 299.818,89.557 298.960 C 90.193 298.102,92.444 295.693,94.559 293.606 C 98.491 289.726,98.690 289.201,96.200 289.283 C 95.552 289.304,95.575 289.342,96.322 289.485 M126.000 290.400 C 126.000 290.840,126.180 291.200,126.400 291.200 C 126.620 291.200,126.800 290.840,126.800 290.400 C 126.800 289.960,126.620 289.600,126.400 289.600 C 126.180 289.600,126.000 289.960,126.000 290.400 M126.587 293.100 C 126.877 294.680,127.600 295.843,127.600 294.730 C 127.600 293.408,127.083 291.600,126.705 291.600 C 126.467 291.600,126.420 292.194,126.587 293.100 M352.400 295.143 C 352.400 296.226,353.314 299.200,353.647 299.200 C 354.103 299.200,354.093 299.021,353.533 297.046 C 353.046 295.334,352.400 294.248,352.400 295.143 M127.200 296.200 C 127.200 296.530,127.380 296.800,127.600 296.800 C 127.820 296.800,128.000 296.530,128.000 296.200 C 128.000 295.870,127.820 295.600,127.600 295.600 C 127.380 295.600,127.200 295.870,127.200 296.200 M387.600 304.200 C 387.600 309.400,387.746 312.400,388.000 312.400 C 388.254 312.400,388.400 309.400,388.400 304.200 C 388.400 299.000,388.254 296.000,388.000 296.000 C 387.746 296.000,387.600 299.000,387.600 304.200 M127.600 298.200 C 127.600 298.530,127.780 298.800,128.000 298.800 C 128.220 298.800,128.400 298.530,128.400 298.200 C 128.400 297.870,128.220 297.600,128.000 297.600 C 127.780 297.600,127.600 297.870,127.600 298.200 M128.000 300.000 C 128.000 300.440,128.180 300.800,128.400 300.800 C 128.620 300.800,128.800 300.440,128.800 300.000 C 128.800 299.560,128.620 299.200,128.400 299.200 C 128.180 299.200,128.000 299.560,128.000 300.000 M353.600 300.200 C 353.600 300.530,353.780 300.800,354.000 300.800 C 354.220 300.800,354.400 300.530,354.400 300.200 C 354.400 299.870,354.220 299.600,354.000 299.600 C 353.780 299.600,353.600 299.870,353.600 300.200 M128.400 301.800 C 128.400 302.130,128.580 302.400,128.800 302.400 C 129.020 302.400,129.200 302.130,129.200 301.800 C 129.200 301.470,129.020 301.200,128.800 301.200 C 128.580 301.200,128.400 301.470,128.400 301.800 M354.000 301.800 C 354.000 302.130,354.180 302.400,354.400 302.400 C 354.620 302.400,354.800 302.130,354.800 301.800 C 354.800 301.470,354.620 301.200,354.400 301.200 C 354.180 301.200,354.000 301.470,354.000 301.800 M106.392 306.244 C 104.086 308.577,101.660 310.825,101.000 311.241 C 100.340 311.657,100.018 311.998,100.284 311.999 C 100.949 312.001,104.840 308.844,108.100 305.659 C 110.211 303.597,110.807 303.194,110.832 303.811 C 110.849 304.245,110.944 304.405,111.043 304.166 C 111.142 303.927,111.079 303.342,110.903 302.867 C 110.612 302.079,110.210 302.380,106.392 306.244 M87.693 303.600 C 87.693 304.370,87.775 304.685,87.876 304.300 C 87.976 303.915,87.976 303.285,87.876 302.900 C 87.775 302.515,87.693 302.830,87.693 303.600 M354.400 303.576 C 354.400 304.029,354.580 304.400,354.800 304.400 C 355.020 304.400,355.200 304.141,355.200 303.824 C 355.200 303.507,355.020 303.136,354.800 303.000 C 354.580 302.864,354.400 303.123,354.400 303.576 M128.800 303.800 C 128.800 304.130,128.980 304.400,129.200 304.400 C 129.420 304.400,129.600 304.130,129.600 303.800 C 129.600 303.470,129.420 303.200,129.200 303.200 C 128.980 303.200,128.800 303.470,128.800 303.800 M129.200 305.376 C 129.200 305.693,129.380 306.064,129.600 306.200 C 129.820 306.336,130.000 306.077,130.000 305.624 C 130.000 305.171,129.820 304.800,129.600 304.800 C 129.380 304.800,129.200 305.059,129.200 305.376 M354.800 305.400 C 354.800 305.730,354.980 306.000,355.200 306.000 C 355.420 306.000,355.600 305.730,355.600 305.400 C 355.600 305.070,355.420 304.800,355.200 304.800 C 354.980 304.800,354.800 305.070,354.800 305.400 M88.182 306.600 C 88.694 308.908,92.459 312.407,94.400 312.378 C 94.730 312.373,94.403 312.109,93.673 311.792 C 91.325 310.772,90.093 309.642,88.993 307.497 C 88.226 306.003,87.993 305.745,88.182 306.600 M355.200 307.200 C 355.200 307.640,355.380 308.000,355.600 308.000 C 355.820 308.000,356.000 307.640,356.000 307.200 C 356.000 306.760,355.820 306.400,355.600 306.400 C 355.380 306.400,355.200 306.760,355.200 307.200 M129.600 307.376 C 129.600 307.693,129.780 308.064,130.000 308.200 C 130.220 308.336,130.400 308.077,130.400 307.624 C 130.400 307.171,130.220 306.800,130.000 306.800 C 129.780 306.800,129.600 307.059,129.600 307.376 M355.600 309.200 C 355.600 309.640,355.780 310.000,356.000 310.000 C 356.220 310.000,356.400 309.640,356.400 309.200 C 356.400 308.760,356.220 308.400,356.000 308.400 C 355.780 308.400,355.600 308.760,355.600 309.200 M130.000 309.400 C 130.000 309.730,130.180 310.000,130.400 310.000 C 130.620 310.000,130.800 309.730,130.800 309.400 C 130.800 309.070,130.620 308.800,130.400 308.800 C 130.180 308.800,130.000 309.070,130.000 309.400 M70.000 309.600 C 70.000 309.820,70.270 310.000,70.600 310.000 C 70.930 310.000,71.200 309.820,71.200 309.600 C 71.200 309.380,70.930 309.200,70.600 309.200 C 70.270 309.200,70.000 309.380,70.000 309.600 M71.800 310.000 C 71.936 310.220,72.307 310.400,72.624 310.400 C 72.941 310.400,73.200 310.220,73.200 310.000 C 73.200 309.780,72.829 309.600,72.376 309.600 C 71.923 309.600,71.664 309.780,71.800 310.000 M73.800 310.400 C 73.936 310.620,74.307 310.800,74.624 310.800 C 74.941 310.800,75.200 310.620,75.200 310.400 C 75.200 310.180,74.829 310.000,74.376 310.000 C 73.923 310.000,73.664 310.180,73.800 310.400 M75.600 310.800 C 75.600 311.020,75.870 311.200,76.200 311.200 C 76.530 311.200,76.800 311.020,76.800 310.800 C 76.800 310.580,76.530 310.400,76.200 310.400 C 75.870 310.400,75.600 310.580,75.600 310.800 M110.000 313.398 C 104.405 319.420,91.670 331.610,91.493 331.114 C 91.392 330.831,91.167 330.733,90.992 330.896 C 90.817 331.059,90.862 331.599,91.090 332.096 C 91.524 333.039,113.007 312.103,112.714 311.023 C 112.652 310.790,111.430 311.859,110.000 313.398 M130.400 310.976 C 130.400 311.293,130.580 311.664,130.800 311.800 C 131.020 311.936,131.200 311.677,131.200 311.224 C 131.200 310.771,131.020 310.400,130.800 310.400 C 130.580 310.400,130.400 310.659,130.400 310.976 M356.000 311.200 C 356.000 311.640,356.180 312.000,356.400 312.000 C 356.620 312.000,356.800 311.640,356.800 311.200 C 356.800 310.760,356.620 310.400,356.400 310.400 C 356.180 310.400,356.000 310.760,356.000 311.200 M77.600 311.200 C 77.600 311.420,77.870 311.600,78.200 311.600 C 78.530 311.600,78.800 311.420,78.800 311.200 C 78.800 310.980,78.530 310.800,78.200 310.800 C 77.870 310.800,77.600 310.980,77.600 311.200 M79.400 311.600 C 79.536 311.820,79.907 312.000,80.224 312.000 C 80.541 312.000,80.800 311.820,80.800 311.600 C 80.800 311.380,80.429 311.200,79.976 311.200 C 79.523 311.200,79.264 311.380,79.400 311.600 M81.200 312.000 C 81.200 312.220,81.470 312.400,81.800 312.400 C 82.130 312.400,82.400 312.220,82.400 312.000 C 82.400 311.780,82.130 311.600,81.800 311.600 C 81.470 311.600,81.200 311.780,81.200 312.000 M82.800 312.282 C 82.800 312.467,83.455 312.971,84.256 313.402 C 85.057 313.833,86.174 314.909,86.739 315.793 C 87.304 316.677,87.819 317.475,87.883 317.567 C 88.466 318.399,88.274 316.920,87.637 315.672 C 86.608 313.656,82.800 310.987,82.800 312.282 M131.067 312.667 C 130.650 313.083,130.754 315.524,131.200 315.800 C 131.444 315.951,131.600 315.337,131.600 314.224 C 131.600 312.369,131.540 312.193,131.067 312.667 M356.400 313.200 C 356.400 313.640,356.580 314.000,356.800 314.000 C 357.020 314.000,357.200 313.640,357.200 313.200 C 357.200 312.760,357.020 312.400,356.800 312.400 C 356.580 312.400,356.400 312.760,356.400 313.200 M356.800 315.576 C 356.800 316.003,356.980 316.464,357.200 316.600 C 357.427 316.740,357.600 316.404,357.600 315.824 C 357.600 315.261,357.420 314.800,357.200 314.800 C 356.980 314.800,356.800 315.149,356.800 315.576 M40.800 315.974 C 40.800 317.834,42.630 320.441,45.061 322.044 C 46.345 322.890,46.800 322.983,46.800 322.400 C 46.800 322.180,46.592 322.000,46.338 322.000 C 44.768 322.000,41.600 317.998,41.600 316.016 C 41.600 315.567,41.420 315.200,41.200 315.200 C 40.980 315.200,40.800 315.548,40.800 315.974 M130.616 316.773 C 130.471 317.008,130.498 317.203,130.676 317.206 C 130.854 317.209,130.819 317.344,130.599 317.506 C 130.378 317.668,129.710 318.520,129.113 319.400 C 127.564 321.685,91.182 357.850,90.100 358.180 C 89.605 358.331,89.200 358.622,89.200 358.827 C 89.200 360.178,90.519 358.951,110.846 338.677 C 123.915 325.643,130.786 318.512,130.966 317.795 C 131.255 316.640,131.057 316.060,130.616 316.773 M357.200 318.000 C 357.200 318.440,357.380 318.800,357.600 318.800 C 357.820 318.800,358.000 318.440,358.000 318.000 C 358.000 317.560,357.820 317.200,357.600 317.200 C 357.380 317.200,357.200 317.560,357.200 318.000 M357.734 319.827 C 357.602 320.172,357.698 320.658,357.947 320.907 C 358.284 321.244,358.400 321.084,358.400 320.280 C 358.400 319.077,358.101 318.873,357.734 319.827 M387.466 323.132 C 387.159 326.928,387.250 328.083,387.815 327.519 C 387.933 327.401,387.978 325.436,387.915 323.152 L 387.800 319.000 387.466 323.132 M88.400 320.176 C 88.400 320.493,88.580 320.864,88.800 321.000 C 89.020 321.136,89.200 320.877,89.200 320.424 C 89.200 319.971,89.020 319.600,88.800 319.600 C 88.580 319.600,88.400 319.859,88.400 320.176 M88.800 322.200 C 88.800 322.530,88.980 322.800,89.200 322.800 C 89.420 322.800,89.600 322.530,89.600 322.200 C 89.600 321.870,89.420 321.600,89.200 321.600 C 88.980 321.600,88.800 321.870,88.800 322.200 M50.400 323.600 C 50.400 323.820,50.771 324.000,51.224 324.000 C 51.677 324.000,51.936 323.820,51.800 323.600 C 51.664 323.380,51.293 323.200,50.976 323.200 C 50.659 323.200,50.400 323.380,50.400 323.600 M52.400 324.000 C 52.400 324.220,52.805 324.397,53.300 324.394 C 54.028 324.389,54.085 324.314,53.600 324.000 C 52.824 323.499,52.400 323.499,52.400 324.000 M56.200 324.800 C 56.064 325.020,56.334 325.200,56.800 325.200 C 57.266 325.200,57.536 325.020,57.400 324.800 C 57.264 324.580,56.994 324.400,56.800 324.400 C 56.606 324.400,56.336 324.580,56.200 324.800 M60.231 325.550 C 60.111 325.744,60.573 326.015,61.256 326.151 C 62.979 326.496,63.287 326.465,62.987 325.979 C 62.844 325.747,62.518 325.633,62.263 325.725 C 62.009 325.817,61.496 325.736,61.124 325.545 C 60.740 325.347,60.355 325.350,60.231 325.550 M89.600 325.776 C 89.600 326.093,89.780 326.464,90.000 326.600 C 90.220 326.736,90.400 326.477,90.400 326.024 C 90.400 325.571,90.220 325.200,90.000 325.200 C 89.780 325.200,89.600 325.459,89.600 325.776 M90.000 327.776 C 90.000 328.093,90.180 328.464,90.400 328.600 C 90.620 328.736,90.800 328.477,90.800 328.024 C 90.800 327.571,90.620 327.200,90.400 327.200 C 90.180 327.200,90.000 327.459,90.000 327.776 M71.790 328.648 C 72.147 329.004,72.538 329.196,72.659 329.074 C 73.015 328.718,72.406 328.000,71.748 328.000 C 71.225 328.000,71.231 328.088,71.790 328.648 M387.367 340.400 C 387.367 344.690,387.426 346.445,387.498 344.300 C 387.570 342.155,387.570 338.645,387.498 336.500 C 387.426 334.355,387.367 336.110,387.367 340.400 M73.206 333.900 C 73.203 334.395,73.380 334.800,73.600 334.800 C 74.101 334.800,74.101 334.376,73.600 333.600 C 73.286 333.115,73.211 333.172,73.206 333.900 M74.000 338.000 C 74.000 338.747,74.107 338.853,74.480 338.480 C 74.853 338.107,74.853 337.893,74.480 337.520 C 74.107 337.147,74.000 337.253,74.000 338.000 M74.538 340.388 C 74.682 341.110,74.800 341.868,74.800 342.074 C 74.800 342.279,74.980 342.336,75.201 342.199 C 75.443 342.050,75.464 341.683,75.255 341.276 C 75.064 340.904,74.983 340.391,75.075 340.137 C 75.167 339.882,75.025 339.539,74.759 339.374 C 74.400 339.153,74.343 339.415,74.538 340.388 M75.200 343.576 C 75.200 344.029,75.380 344.400,75.600 344.400 C 75.820 344.400,76.000 344.141,76.000 343.824 C 76.000 343.507,75.820 343.136,75.600 343.000 C 75.380 342.864,75.200 343.123,75.200 343.576 M75.600 345.576 C 75.600 346.029,75.780 346.400,76.000 346.400 C 76.220 346.400,76.400 346.141,76.400 345.824 C 76.400 345.507,76.220 345.136,76.000 345.000 C 75.780 344.864,75.600 345.123,75.600 345.576 M76.000 347.400 C 76.000 347.730,76.180 348.000,76.400 348.000 C 76.620 348.000,76.800 347.730,76.800 347.400 C 76.800 347.070,76.620 346.800,76.400 346.800 C 76.180 346.800,76.000 347.070,76.000 347.400 M76.400 349.176 C 76.400 349.629,76.580 350.000,76.800 350.000 C 77.020 350.000,77.200 349.741,77.200 349.424 C 77.200 349.107,77.020 348.736,76.800 348.600 C 76.580 348.464,76.400 348.723,76.400 349.176 M76.800 351.176 C 76.800 351.629,76.980 352.000,77.200 352.000 C 77.420 352.000,77.600 351.741,77.600 351.424 C 77.600 351.107,77.420 350.736,77.200 350.600 C 76.980 350.464,76.800 350.723,76.800 351.176 M387.363 351.351 C 387.247 351.654,387.326 352.509,387.540 353.251 L 387.928 354.600 387.964 352.700 C 388.000 350.813,387.769 350.295,387.363 351.351 M77.200 352.865 C 77.200 354.783,81.224 359.018,83.442 359.434 C 84.942 359.716,85.809 359.369,84.557 358.988 C 81.307 358.000,78.764 355.808,78.188 353.500 C 77.918 352.418,77.200 351.956,77.200 352.865 M387.773 356.126 C 387.662 356.415,387.746 357.090,387.960 357.626 C 388.319 358.523,388.351 358.482,388.375 357.100 C 388.400 355.582,388.142 355.164,387.773 356.126 M87.200 359.200 C 87.200 359.420,87.560 359.600,88.000 359.600 C 88.440 359.600,88.800 359.420,88.800 359.200 C 88.800 358.980,88.440 358.800,88.000 358.800 C 87.560 358.800,87.200 358.980,87.200 359.200 M388.028 359.500 C 388.138 360.673,388.746 361.326,388.772 360.300 C 388.787 359.695,388.620 359.200,388.400 359.200 C 388.180 359.200,388.013 359.335,388.028 359.500 M390.420 369.068 C 390.343 370.882,394.887 381.226,397.315 384.763 C 397.981 385.733,398.864 387.353,399.279 388.363 C 399.788 389.604,399.955 389.811,399.795 389.000 C 399.664 388.340,398.676 386.354,397.601 384.587 C 395.333 380.862,393.638 377.261,391.769 372.200 C 391.038 370.220,390.431 368.811,390.420 369.068 M398.675 395.812 C 398.282 396.635,397.231 397.706,396.125 398.407 C 395.090 399.063,394.432 399.600,394.662 399.600 C 396.003 399.600,400.185 395.252,399.501 394.568 C 399.414 394.481,399.043 395.041,398.675 395.812 " stroke="none" fill="#cfcfcf" fill-rule="evenodd"></path><path id="path1" d="M6.200 0.858 C 1.788 2.490,-0.562 6.912,0.672 11.262 C 1.320 13.547,176.523 189.691,179.286 190.836 C 179.899 191.089,180.400 191.430,180.400 191.593 C 180.400 191.756,180.850 191.803,181.400 191.698 C 181.984 191.586,182.400 191.693,182.400 191.953 C 182.400 192.527,183.868 192.537,184.222 191.965 C 184.369 191.726,184.830 191.619,185.245 191.728 C 185.660 191.836,186.000 191.747,186.000 191.529 C 186.000 191.311,186.220 191.207,186.489 191.296 C 187.166 191.522,191.565 187.175,191.316 186.526 C 191.205 186.237,191.324 186.000,191.581 186.000 C 191.837 186.000,191.925 185.803,191.776 185.562 C 191.627 185.321,191.737 184.691,192.020 184.162 C 192.440 183.378,192.440 183.022,192.020 182.238 C 191.737 181.709,191.627 181.079,191.776 180.838 C 191.925 180.597,191.878 180.400,191.672 180.400 C 191.466 180.400,191.090 179.899,190.836 179.287 C 190.583 178.675,158.791 146.590,120.188 107.988 C 81.584 69.385,50.000 37.692,50.000 37.558 C 50.000 37.425,51.395 37.558,53.100 37.855 C 54.805 38.152,61.420 39.137,67.800 40.044 C 74.180 40.951,79.458 41.845,79.528 42.031 C 79.599 42.217,80.184 42.263,80.828 42.134 C 81.473 42.005,82.000 42.071,82.000 42.281 C 82.000 42.490,82.540 42.582,83.200 42.485 C 83.906 42.382,84.400 42.488,84.400 42.745 C 84.400 43.015,84.855 43.089,85.600 42.940 C 86.374 42.785,86.800 42.862,86.800 43.158 C 86.800 43.446,87.170 43.522,87.800 43.364 C 88.424 43.208,88.800 43.283,88.800 43.564 C 88.800 43.846,89.176 43.921,89.800 43.764 C 90.352 43.626,90.800 43.687,90.800 43.901 C 90.800 44.115,91.250 44.203,91.800 44.098 C 92.350 43.993,92.800 44.083,92.800 44.298 C 92.800 44.513,93.250 44.603,93.800 44.498 C 94.350 44.393,94.800 44.491,94.800 44.716 C 94.800 44.941,95.160 45.031,95.600 44.916 C 96.065 44.794,96.400 44.904,96.400 45.177 C 96.400 45.436,96.574 45.540,96.786 45.409 C 97.135 45.193,101.341 46.081,102.800 46.680 C 103.130 46.815,103.611 46.893,103.870 46.852 C 104.128 46.812,104.449 46.956,104.583 47.172 C 104.716 47.388,105.090 47.464,105.413 47.340 C 105.736 47.216,106.000 47.308,106.000 47.545 C 106.000 47.781,106.252 47.878,106.560 47.760 C 106.867 47.642,107.233 47.730,107.372 47.955 C 107.512 48.181,107.890 48.264,108.213 48.140 C 108.536 48.016,108.800 48.108,108.800 48.345 C 108.800 48.581,109.070 48.671,109.400 48.545 C 109.730 48.418,110.000 48.524,110.000 48.781 C 110.000 49.037,110.165 49.145,110.366 49.021 C 110.568 48.896,111.243 49.003,111.866 49.259 C 112.490 49.514,113.217 49.768,113.482 49.823 C 114.755 50.089,118.243 51.338,118.580 51.649 C 118.789 51.842,119.212 52.000,119.520 52.000 C 119.827 52.000,120.736 52.288,121.540 52.641 C 122.343 52.993,123.360 53.433,123.800 53.618 C 124.240 53.803,125.590 54.391,126.800 54.925 C 128.010 55.458,129.990 56.308,131.200 56.813 C 134.475 58.180,146.538 64.372,147.001 64.922 C 147.222 65.185,147.613 65.440,147.870 65.490 C 148.541 65.618,155.181 69.684,158.706 72.124 C 160.356 73.266,162.087 74.460,162.553 74.777 C 166.660 77.573,179.191 87.273,182.000 89.830 C 182.550 90.331,184.080 91.678,185.400 92.823 C 188.696 95.682,189.600 96.661,189.276 97.021 C 189.124 97.190,189.195 97.217,189.434 97.082 C 189.672 96.946,192.511 99.344,195.742 102.412 C 198.972 105.479,202.062 108.101,202.608 108.238 C 203.154 108.375,203.600 108.658,203.600 108.867 C 203.600 109.076,203.770 109.142,203.978 109.014 C 204.427 108.736,209.600 109.978,209.600 110.364 C 209.600 110.510,209.989 110.659,210.464 110.695 C 210.939 110.731,211.476 110.994,211.658 111.280 C 211.839 111.566,211.991 111.650,211.994 111.467 C 212.002 111.026,218.529 114.512,220.718 116.127 C 225.932 119.975,229.608 123.338,233.536 127.857 C 238.022 133.016,241.687 134.287,245.800 132.110 C 247.784 131.060,273.200 105.610,273.200 104.674 C 273.200 104.303,273.363 104.000,273.563 104.000 C 273.762 104.000,273.831 103.640,273.716 103.200 C 273.599 102.753,273.704 102.400,273.953 102.400 C 274.199 102.400,274.400 101.860,274.400 101.200 C 274.400 100.540,274.240 100.000,274.045 100.000 C 273.849 100.000,273.569 99.360,273.422 98.578 C 273.232 97.566,272.354 96.312,270.378 94.231 C 267.267 90.956,267.197 90.834,268.600 91.102 C 269.150 91.207,269.600 91.472,269.600 91.689 C 269.600 91.907,269.864 91.984,270.187 91.860 C 270.510 91.736,270.883 91.810,271.015 92.024 C 271.147 92.238,271.410 92.317,271.600 92.200 C 271.790 92.083,272.060 92.173,272.200 92.400 C 272.340 92.627,272.631 92.705,272.845 92.572 C 273.060 92.440,273.497 92.549,273.818 92.815 C 274.138 93.080,274.400 93.164,274.400 93.000 C 274.400 92.836,274.662 92.920,274.982 93.185 C 275.303 93.451,275.740 93.560,275.955 93.428 C 276.169 93.295,276.460 93.373,276.600 93.600 C 276.740 93.827,277.031 93.905,277.245 93.772 C 277.460 93.640,277.855 93.714,278.125 93.938 C 278.812 94.508,282.760 94.194,284.203 93.455 C 291.335 89.800,290.319 78.901,282.700 77.327 C 282.095 77.202,281.600 76.988,281.600 76.850 C 281.600 76.713,281.149 76.574,280.598 76.542 C 280.048 76.510,279.283 76.348,278.899 76.181 C 278.514 76.014,277.753 75.803,277.207 75.712 C 276.662 75.622,276.097 75.357,275.952 75.123 C 275.808 74.889,275.502 74.814,275.272 74.955 C 275.043 75.097,274.740 75.027,274.600 74.800 C 274.460 74.573,274.190 74.483,274.000 74.600 C 273.810 74.717,273.540 74.627,273.400 74.400 C 273.260 74.173,272.990 74.083,272.800 74.200 C 272.610 74.317,272.347 74.238,272.215 74.024 C 272.083 73.810,271.710 73.736,271.387 73.860 C 271.064 73.984,270.800 73.886,270.800 73.643 C 270.800 73.399,270.665 73.230,270.500 73.266 C 269.981 73.379,267.907 72.779,264.800 71.616 C 255.430 68.111,253.401 67.289,249.360 65.362 C 245.315 63.435,231.584 54.771,231.267 53.946 C 231.193 53.756,230.893 53.600,230.600 53.600 C 230.307 53.600,230.007 53.465,229.933 53.300 C 229.860 53.135,229.260 52.705,228.600 52.346 C 227.940 51.986,224.880 50.166,221.800 48.302 C 218.720 46.437,213.905 43.688,211.100 42.193 C 208.295 40.697,206.000 39.311,206.000 39.113 C 206.000 38.915,205.820 38.864,205.600 39.000 C 205.380 39.136,205.200 39.046,205.200 38.800 C 205.200 38.554,205.035 38.455,204.832 38.580 C 204.630 38.705,204.221 38.581,203.923 38.304 C 203.625 38.027,203.117 37.741,202.795 37.668 C 202.473 37.596,200.002 36.471,197.304 35.169 C 194.606 33.867,192.264 32.792,192.099 32.781 C 191.935 32.769,190.990 32.284,190.000 31.704 C 189.010 31.124,188.143 30.705,188.074 30.773 C 188.004 30.842,187.374 30.619,186.674 30.278 C 183.356 28.665,172.114 24.514,165.800 22.570 C 163.820 21.961,162.110 21.358,162.000 21.231 C 161.890 21.104,161.275 20.962,160.633 20.916 C 159.991 20.869,159.361 20.689,159.233 20.516 C 159.105 20.342,158.685 20.185,158.300 20.167 C 156.393 20.076,155.971 19.971,156.177 19.637 C 156.300 19.438,156.041 19.369,155.601 19.484 C 155.160 19.599,154.800 19.509,154.800 19.284 C 154.800 19.059,154.440 18.969,154.000 19.084 C 153.535 19.206,153.200 19.096,153.200 18.823 C 153.200 18.564,153.040 18.451,152.845 18.572 C 152.338 18.886,148.000 17.959,148.000 17.537 C 148.000 17.343,147.550 17.298,147.000 17.436 C 146.397 17.587,146.000 17.516,146.000 17.256 C 146.000 17.019,145.728 16.930,145.395 17.057 C 145.062 17.185,144.551 17.091,144.258 16.848 C 143.966 16.606,143.616 16.518,143.480 16.653 C 143.345 16.788,142.912 16.760,142.517 16.590 C 142.123 16.420,141.395 16.321,140.900 16.369 C 140.405 16.418,140.000 16.261,140.000 16.021 C 140.000 15.761,139.614 15.682,139.044 15.825 C 138.518 15.957,137.977 15.887,137.843 15.670 C 137.709 15.453,137.238 15.369,136.797 15.485 C 136.357 15.600,135.762 15.501,135.477 15.264 C 135.192 15.027,134.583 14.932,134.124 15.052 C 133.666 15.172,133.173 15.080,133.030 14.848 C 132.884 14.612,132.247 14.531,131.585 14.663 C 130.903 14.799,130.156 14.695,129.820 14.417 C 129.500 14.151,128.871 14.050,128.423 14.193 C 127.974 14.335,127.381 14.305,127.104 14.126 C 126.827 13.947,125.880 13.757,125.000 13.705 C 124.120 13.654,122.320 13.519,121.000 13.407 C 115.236 12.916,113.869 12.827,108.000 12.554 C 100.425 12.202,93.834 12.201,81.800 12.549 C 71.394 12.850,50.723 12.867,46.800 12.579 C 42.136 12.236,39.715 11.894,35.501 10.986 C 35.005 10.879,33.970 10.681,33.200 10.546 C 32.430 10.410,31.620 10.174,31.400 10.020 C 31.180 9.866,29.830 9.400,28.400 8.984 C 25.262 8.072,19.776 5.446,15.331 2.728 C 11.779 0.557,8.713 -0.071,6.200 0.858 M115.800 30.645 C 117.386 30.743,121.304 31.099,124.000 31.390 C 130.105 32.050,141.687 34.240,149.724 36.255 C 157.557 38.218,168.128 41.494,168.326 42.021 C 168.395 42.205,168.687 42.265,168.974 42.155 C 169.262 42.044,169.747 42.204,170.052 42.509 C 170.357 42.814,170.831 42.990,171.104 42.899 C 171.377 42.808,171.600 42.939,171.600 43.190 C 171.600 43.442,171.756 43.551,171.946 43.433 C 172.372 43.170,179.348 45.935,179.534 46.441 C 179.608 46.641,179.822 46.710,180.009 46.594 C 180.197 46.478,181.936 47.135,183.875 48.054 C 185.814 48.972,187.535 49.696,187.700 49.662 C 187.865 49.628,188.000 49.791,188.000 50.024 C 188.000 50.257,188.180 50.336,188.400 50.200 C 188.620 50.064,188.800 50.154,188.800 50.400 C 188.800 50.646,188.980 50.736,189.200 50.600 C 189.420 50.464,189.600 50.513,189.600 50.710 C 189.600 50.906,189.842 51.067,190.137 51.067 C 191.342 51.067,212.400 62.599,212.400 63.259 C 212.400 63.472,212.554 63.552,212.742 63.436 C 213.028 63.259,222.797 69.059,223.692 69.937 C 223.852 70.094,219.951 74.252,215.023 79.177 L 206.063 88.131 200.511 83.165 C 189.566 73.377,183.728 68.622,175.600 62.877 C 172.630 60.778,169.975 58.787,169.700 58.454 C 169.425 58.120,169.194 58.016,169.187 58.224 C 169.180 58.431,168.910 58.251,168.587 57.824 C 168.264 57.396,167.994 57.216,167.987 57.424 C 167.980 57.631,167.710 57.451,167.387 57.024 C 167.064 56.596,166.800 56.380,166.800 56.543 C 166.800 56.705,165.963 56.263,164.941 55.559 C 160.704 52.644,151.354 47.321,144.800 44.091 C 140.950 42.194,137.740 40.497,137.666 40.319 C 137.592 40.141,137.386 40.085,137.209 40.195 C 137.031 40.304,135.883 39.950,134.656 39.408 C 131.660 38.083,129.443 37.161,129.200 37.139 C 129.090 37.129,128.640 36.923,128.200 36.680 C 127.760 36.438,127.040 36.180,126.600 36.108 C 126.160 36.036,125.743 35.812,125.674 35.611 C 125.605 35.410,125.290 35.344,124.974 35.465 C 124.658 35.586,124.400 35.456,124.400 35.176 C 124.400 34.896,124.282 34.785,124.137 34.930 C 123.992 35.075,123.632 34.993,123.337 34.748 C 123.042 34.503,122.800 34.404,122.800 34.529 C 122.800 34.795,118.800 33.467,116.877 32.563 C 116.149 32.220,115.069 31.876,114.477 31.798 C 113.885 31.719,113.355 31.620,113.300 31.578 C 113.245 31.535,113.035 31.477,112.833 31.450 C 112.632 31.423,112.332 31.265,112.167 31.100 C 112.002 30.935,111.367 30.800,110.757 30.800 C 110.147 30.800,109.520 30.594,109.364 30.342 C 109.154 30.002,109.747 29.969,111.640 30.215 C 113.048 30.397,114.920 30.591,115.800 30.645 M356.183 34.427 C 356.038 34.662,355.673 34.760,355.372 34.645 C 355.072 34.529,354.724 34.599,354.600 34.800 C 354.476 35.001,354.110 35.064,353.787 34.940 C 353.464 34.816,353.200 34.908,353.200 35.145 C 353.200 35.381,352.930 35.471,352.600 35.345 C 352.270 35.218,352.000 35.308,352.000 35.545 C 352.000 35.781,351.730 35.871,351.400 35.745 C 351.070 35.618,350.800 35.733,350.800 36.000 C 350.800 36.267,350.530 36.382,350.200 36.255 C 349.870 36.129,349.600 36.219,349.600 36.455 C 349.600 36.692,349.330 36.782,349.000 36.655 C 348.670 36.529,348.400 36.619,348.400 36.855 C 348.400 37.092,348.130 37.182,347.800 37.055 C 347.470 36.929,347.200 37.019,347.200 37.255 C 347.200 37.492,346.930 37.582,346.600 37.455 C 346.270 37.329,346.000 37.419,346.000 37.655 C 346.000 37.892,345.730 37.982,345.400 37.855 C 345.070 37.729,344.800 37.819,344.800 38.055 C 344.800 38.292,344.530 38.382,344.200 38.255 C 343.870 38.129,343.600 38.219,343.600 38.455 C 343.600 38.692,343.330 38.782,343.000 38.655 C 342.670 38.529,342.400 38.619,342.400 38.855 C 342.400 39.092,342.130 39.182,341.800 39.055 C 341.470 38.929,341.200 39.019,341.200 39.255 C 341.200 39.492,340.930 39.582,340.600 39.455 C 340.270 39.329,340.000 39.419,340.000 39.655 C 340.000 39.892,339.730 39.982,339.400 39.855 C 339.070 39.729,338.800 39.819,338.800 40.055 C 338.800 40.292,338.530 40.382,338.200 40.255 C 337.870 40.129,337.600 40.219,337.600 40.455 C 337.600 40.692,337.342 40.786,337.026 40.665 C 336.710 40.544,336.395 40.578,336.326 40.740 C 336.257 40.903,328.280 43.617,318.600 46.773 C 308.920 49.928,300.803 52.663,300.563 52.851 C 300.323 53.039,300.008 53.075,299.863 52.930 C 299.718 52.785,299.600 52.877,299.600 53.133 C 299.600 53.390,299.285 53.611,298.900 53.626 C 297.969 53.659,295.220 57.001,294.930 58.451 C 294.803 59.083,294.543 59.600,294.350 59.600 C 294.157 59.600,294.000 60.320,294.000 61.200 C 294.000 62.080,294.157 62.800,294.350 62.800 C 294.543 62.800,294.815 63.376,294.956 64.080 C 295.149 65.043,296.913 67.071,302.062 72.251 L 308.912 79.142 306.604 81.562 C 305.334 82.893,304.094 83.867,303.848 83.727 C 303.601 83.587,303.541 83.627,303.714 83.817 C 304.115 84.257,293.585 94.838,293.065 94.517 C 292.851 94.385,292.787 94.456,292.923 94.675 C 293.203 95.128,263.674 124.659,263.109 124.490 C 262.906 124.430,262.840 124.541,262.961 124.737 C 263.221 125.157,261.858 126.494,261.468 126.201 C 261.320 126.090,261.296 126.126,261.414 126.280 C 261.707 126.666,252.738 135.609,252.318 135.349 C 252.132 135.234,252.030 135.298,252.090 135.491 C 252.233 135.947,241.543 146.634,241.088 146.490 C 240.897 146.430,240.834 146.532,240.949 146.717 C 241.184 147.097,230.552 157.855,230.094 157.700 C 229.932 157.645,229.800 157.735,229.800 157.900 C 229.800 158.292,221.492 166.600,221.100 166.600 C 220.935 166.600,220.798 166.780,220.795 167.000 C 220.786 167.620,210.298 177.984,209.917 177.749 C 209.732 177.634,209.627 177.689,209.684 177.870 C 209.824 178.315,198.735 189.429,198.291 189.290 C 198.098 189.230,198.034 189.332,198.149 189.518 C 198.449 190.004,189.828 198.489,189.416 198.113 C 189.227 197.941,189.176 197.984,189.304 198.210 C 189.431 198.435,172.381 215.789,151.413 236.774 L 113.291 274.929 110.256 274.410 C 108.586 274.124,107.300 273.761,107.398 273.603 C 107.496 273.445,107.131 273.401,106.588 273.504 C 106.006 273.616,105.600 273.506,105.600 273.239 C 105.600 272.954,105.227 272.878,104.600 273.036 C 103.976 273.192,103.600 273.117,103.600 272.836 C 103.600 272.554,103.224 272.479,102.600 272.636 C 102.025 272.780,101.600 272.714,101.600 272.481 C 101.600 272.258,101.260 272.164,100.845 272.272 C 100.430 272.381,99.980 272.291,99.845 272.072 C 99.710 271.854,99.239 271.769,98.800 271.884 C 98.347 272.003,98.000 271.896,98.000 271.639 C 98.000 271.354,97.627 271.278,97.000 271.436 C 96.425 271.580,96.000 271.514,96.000 271.281 C 96.000 271.058,95.660 270.964,95.245 271.072 C 94.830 271.181,94.380 271.091,94.245 270.872 C 94.110 270.654,93.660 270.564,93.245 270.672 C 92.830 270.781,92.380 270.691,92.245 270.472 C 92.110 270.254,91.639 270.169,91.200 270.284 C 90.760 270.399,90.400 270.317,90.400 270.102 C 90.400 269.887,89.950 269.797,89.400 269.902 C 88.850 270.007,88.399 269.937,88.399 269.747 C 88.398 269.556,87.408 269.400,86.199 269.400 C 84.989 269.400,84.000 269.550,84.000 269.733 C 84.000 269.917,83.779 269.993,83.509 269.903 C 82.004 269.401,42.628 308.735,41.897 311.471 C 41.642 312.422,41.291 313.200,41.117 313.200 C 40.943 313.200,40.800 313.650,40.800 314.200 C 40.800 314.750,40.980 315.200,41.200 315.200 C 41.420 315.200,41.600 315.567,41.600 316.016 C 41.600 317.998,44.768 322.000,46.338 322.000 C 46.592 322.000,46.800 322.191,46.800 322.424 C 46.800 322.657,46.968 322.744,47.172 322.617 C 47.377 322.491,47.662 322.577,47.806 322.810 C 47.950 323.042,48.397 323.128,48.800 323.000 C 49.203 322.872,49.644 322.947,49.779 323.166 C 49.915 323.386,50.281 323.467,50.594 323.347 C 50.906 323.227,51.392 323.272,51.674 323.446 C 51.955 323.620,52.549 323.819,52.993 323.888 C 54.652 324.148,55.026 324.245,55.507 324.543 C 55.778 324.710,56.188 324.731,56.418 324.589 C 56.647 324.447,57.052 324.502,57.318 324.711 C 57.583 324.920,58.070 325.110,58.400 325.134 C 58.730 325.157,59.540 325.280,60.200 325.406 C 60.860 325.532,61.760 325.695,62.200 325.767 C 62.640 325.839,63.000 325.944,63.000 326.000 C 63.000 326.056,63.360 326.159,63.800 326.228 C 69.530 327.129,72.586 328.222,72.675 329.400 C 72.725 330.060,72.891 331.050,73.045 331.600 C 73.199 332.150,73.397 332.870,73.485 333.200 C 73.752 334.198,74.041 335.764,74.076 336.400 C 74.094 336.730,74.280 337.217,74.489 337.482 C 74.698 337.748,74.748 338.161,74.600 338.400 C 74.452 338.639,74.502 339.052,74.711 339.318 C 74.920 339.583,75.112 340.070,75.137 340.400 C 75.224 341.540,75.458 342.603,75.778 343.317 C 75.954 343.712,75.988 344.145,75.853 344.280 C 75.718 344.416,75.806 344.766,76.048 345.058 C 76.291 345.351,76.385 345.862,76.257 346.195 C 76.130 346.528,76.220 346.800,76.459 346.800 C 76.698 346.800,76.799 347.160,76.684 347.600 C 76.569 348.039,76.654 348.510,76.872 348.645 C 77.091 348.780,77.181 349.230,77.072 349.645 C 76.964 350.060,77.054 350.510,77.272 350.645 C 77.491 350.780,77.581 351.230,77.472 351.645 C 77.364 352.060,77.419 352.400,77.594 352.400 C 77.770 352.400,78.037 352.895,78.188 353.500 C 78.629 355.270,80.182 356.980,82.263 357.988 C 83.328 358.504,84.513 359.078,84.895 359.263 C 85.883 359.743,87.200 359.680,87.200 359.153 C 87.200 358.893,87.616 358.786,88.200 358.898 C 88.750 359.003,89.200 358.946,89.200 358.771 C 89.200 358.597,89.605 358.331,90.100 358.180 C 91.182 357.850,127.564 321.685,129.113 319.400 C 129.710 318.520,130.349 317.690,130.533 317.555 C 130.717 317.421,130.853 317.196,130.834 317.055 C 130.815 316.915,130.817 316.710,130.838 316.600 C 131.004 315.710,130.846 312.062,130.617 311.519 C 130.459 311.145,130.446 310.650,130.588 310.419 C 130.731 310.189,130.636 310.000,130.377 310.000 C 130.104 310.000,129.994 309.665,130.116 309.200 C 130.231 308.761,130.146 308.290,129.928 308.155 C 129.709 308.020,129.619 307.570,129.728 307.155 C 129.836 306.740,129.746 306.290,129.528 306.155 C 129.309 306.020,129.219 305.570,129.328 305.155 C 129.436 304.740,129.342 304.400,129.119 304.400 C 128.886 304.400,128.820 303.975,128.964 303.400 C 129.122 302.773,129.046 302.400,128.761 302.400 C 128.504 302.400,128.397 302.053,128.516 301.600 C 128.631 301.160,128.541 300.800,128.316 300.800 C 128.091 300.800,127.993 300.350,128.098 299.800 C 128.203 299.250,128.115 298.800,127.901 298.800 C 127.687 298.800,127.626 298.352,127.764 297.800 C 127.916 297.195,127.844 296.800,127.582 296.800 C 127.344 296.800,127.189 296.485,127.236 296.100 C 127.284 295.715,127.187 295.088,127.021 294.706 C 126.855 294.325,126.693 293.425,126.660 292.706 C 126.627 291.988,126.477 291.307,126.326 291.192 C 126.175 291.078,125.939 290.088,125.801 288.992 L 125.549 287.000 223.354 189.220 L 321.160 91.441 321.977 92.480 C 324.138 95.228,335.244 105.229,336.388 105.458 C 337.055 105.591,337.600 105.858,337.600 106.050 C 337.600 106.243,338.320 106.400,339.200 106.400 C 340.080 106.400,340.800 106.243,340.800 106.050 C 340.800 105.858,341.317 105.597,341.949 105.470 C 345.933 104.673,346.529 103.522,352.643 84.815 C 355.414 76.337,357.833 69.343,358.018 69.274 C 358.203 69.205,358.256 68.890,358.135 68.574 C 358.014 68.258,358.108 68.000,358.345 68.000 C 358.581 68.000,358.671 67.730,358.545 67.400 C 358.418 67.070,358.524 66.800,358.781 66.800 C 359.037 66.800,359.145 66.635,359.021 66.434 C 358.896 66.232,359.004 65.557,359.261 64.934 C 359.518 64.310,359.692 63.575,359.647 63.300 C 359.602 63.025,359.747 62.800,359.970 62.800 C 360.193 62.800,360.271 62.530,360.145 62.200 C 360.018 61.870,360.124 61.600,360.381 61.600 C 360.637 61.600,360.744 61.432,360.617 61.228 C 360.491 61.023,360.562 60.747,360.776 60.615 C 360.990 60.483,361.064 60.110,360.940 59.787 C 360.816 59.464,360.908 59.200,361.145 59.200 C 361.381 59.200,361.471 58.930,361.345 58.600 C 361.218 58.270,361.308 58.000,361.545 58.000 C 361.781 58.000,361.871 57.730,361.745 57.400 C 361.618 57.070,361.708 56.800,361.945 56.800 C 362.181 56.800,362.271 56.530,362.145 56.200 C 362.018 55.870,362.108 55.600,362.345 55.600 C 362.581 55.600,362.671 55.330,362.545 55.000 C 362.418 54.670,362.508 54.400,362.745 54.400 C 362.981 54.400,363.071 54.130,362.945 53.800 C 362.818 53.470,362.908 53.200,363.145 53.200 C 363.381 53.200,363.471 52.930,363.345 52.600 C 363.218 52.270,363.308 52.000,363.545 52.000 C 363.781 52.000,363.871 51.730,363.745 51.400 C 363.618 51.070,363.708 50.800,363.945 50.800 C 364.181 50.800,364.271 50.530,364.145 50.200 C 364.018 49.870,364.122 49.600,364.375 49.600 C 364.628 49.600,364.793 49.375,364.742 49.100 C 364.597 48.322,365.226 46.000,365.582 46.000 C 366.245 46.000,366.246 41.701,365.583 40.000 C 365.540 39.890,365.527 39.665,365.553 39.500 C 365.579 39.335,365.459 39.200,365.286 39.200 C 365.114 39.200,364.655 38.662,364.267 38.006 C 363.540 36.774,360.163 34.523,359.330 34.714 C 359.072 34.773,358.746 34.636,358.607 34.411 C 358.272 33.870,356.520 33.882,356.183 34.427 M343.200 57.448 C 343.200 57.780,335.586 81.200,335.478 81.200 C 335.431 81.200,331.728 77.532,327.248 73.049 L 319.104 64.897 321.743 64.019 C 323.194 63.536,324.610 63.273,324.891 63.435 C 325.171 63.596,325.258 63.572,325.084 63.381 C 324.909 63.190,328.689 61.740,333.484 60.158 C 342.289 57.254,343.200 57.000,343.200 57.448 M244.201 92.401 L 252.995 101.202 247.740 106.457 L 242.485 111.712 239.142 108.756 C 237.303 107.130,234.854 105.088,233.699 104.218 C 232.545 103.348,231.600 102.493,231.600 102.318 C 231.600 102.143,231.465 102.044,231.300 102.098 C 230.858 102.241,228.000 100.396,228.000 99.967 C 228.000 99.765,227.865 99.636,227.700 99.679 C 227.173 99.819,222.341 97.175,222.473 96.819 C 222.663 96.306,234.845 83.600,235.146 83.600 C 235.290 83.600,239.364 87.560,244.201 92.401 M311.329 111.784 C 309.758 112.467,306.800 115.546,306.800 116.498 C 306.800 116.884,306.631 117.200,306.424 117.200 C 305.976 117.200,306.066 121.980,306.527 122.700 C 306.703 122.975,306.744 123.368,306.617 123.572 C 306.491 123.777,306.582 124.065,306.821 124.213 C 307.059 124.360,307.165 124.715,307.055 125.001 C 306.945 125.288,306.978 125.644,307.128 125.794 C 307.277 125.944,307.415 126.187,307.434 126.333 C 307.452 126.480,307.678 127.110,307.936 127.734 C 308.195 128.357,308.311 129.020,308.196 129.206 C 308.081 129.392,308.162 129.653,308.376 129.785 C 308.590 129.917,308.664 130.290,308.540 130.613 C 308.416 130.936,308.514 131.200,308.757 131.200 C 309.001 131.200,309.200 131.583,309.200 132.051 C 309.200 132.742,308.639 132.369,306.222 130.073 C 304.099 128.056,302.837 127.168,301.826 126.978 C 301.045 126.832,300.506 126.552,300.627 126.356 C 300.748 126.160,300.016 126.000,299.000 126.000 C 297.870 126.000,297.249 126.155,297.400 126.400 C 297.536 126.620,297.322 126.801,296.924 126.801 C 296.526 126.802,295.582 127.180,294.826 127.641 C 292.917 128.804,269.385 152.291,268.521 153.894 C 268.135 154.612,267.685 155.200,267.522 155.200 C 267.359 155.200,267.322 155.452,267.440 155.760 C 267.558 156.067,267.462 156.438,267.227 156.583 C 266.992 156.728,266.800 157.546,266.800 158.400 C 266.800 159.254,266.992 160.072,267.227 160.217 C 267.462 160.362,267.558 160.733,267.440 161.040 C 267.322 161.348,267.359 161.600,267.522 161.600 C 267.685 161.600,268.158 162.230,268.573 163.001 C 268.988 163.771,269.973 164.886,270.764 165.478 C 273.130 167.250,278.316 172.411,280.733 175.400 C 281.979 176.940,283.089 178.290,283.199 178.400 C 284.733 179.927,289.344 188.243,288.982 188.829 C 288.856 189.033,288.954 189.200,289.200 189.200 C 289.446 189.200,289.536 189.380,289.400 189.600 C 289.264 189.820,289.315 190.000,289.513 190.000 C 289.982 190.000,290.911 193.098,290.595 193.608 C 290.462 193.824,290.555 194.000,290.802 194.000 C 291.048 194.000,291.211 194.315,291.163 194.700 C 291.114 195.085,291.283 195.907,291.537 196.526 C 291.792 197.145,292.000 197.815,292.000 198.015 C 292.000 198.215,295.105 201.678,298.900 205.711 C 306.871 214.183,309.646 217.282,313.485 222.000 C 317.132 226.482,323.763 235.210,324.339 236.286 C 324.590 236.754,325.059 237.402,325.382 237.725 C 326.380 238.723,332.933 248.921,332.933 249.476 C 332.933 249.764,333.045 250.000,333.180 250.000 C 333.316 250.000,333.746 250.540,334.136 251.200 C 334.526 251.860,334.711 252.400,334.546 252.400 C 334.382 252.400,334.551 252.625,334.923 252.900 C 335.828 253.570,345.040 271.903,345.224 273.400 C 345.251 273.620,345.505 274.250,345.788 274.800 C 346.071 275.350,346.486 276.250,346.710 276.800 C 346.935 277.350,347.407 278.457,347.759 279.260 C 348.112 280.064,348.400 281.084,348.400 281.527 C 348.400 281.971,348.552 282.393,348.737 282.467 C 349.203 282.651,351.232 288.825,350.967 289.254 C 350.849 289.444,350.963 289.600,351.219 289.600 C 351.476 289.600,351.582 289.870,351.455 290.200 C 351.329 290.530,351.419 290.800,351.655 290.800 C 351.892 290.800,351.984 291.064,351.860 291.387 C 351.736 291.710,351.819 292.088,352.045 292.228 C 352.270 292.367,352.358 292.733,352.240 293.040 C 352.122 293.348,352.207 293.600,352.430 293.600 C 352.653 293.600,352.799 293.825,352.754 294.100 C 352.710 294.375,352.779 294.870,352.907 295.200 C 353.624 297.049,354.026 298.835,353.805 299.192 C 353.666 299.416,353.764 299.600,354.023 299.600 C 354.296 299.600,354.406 299.935,354.284 300.400 C 354.169 300.840,354.259 301.200,354.484 301.200 C 354.709 301.200,354.799 301.560,354.684 302.000 C 354.569 302.439,354.654 302.910,354.872 303.045 C 355.091 303.180,355.181 303.630,355.072 304.045 C 354.964 304.460,355.059 304.800,355.284 304.800 C 355.509 304.800,355.599 305.160,355.484 305.600 C 355.369 306.040,355.459 306.400,355.684 306.400 C 355.909 306.400,356.007 306.850,355.902 307.400 C 355.797 307.950,355.887 308.400,356.102 308.400 C 356.317 308.400,356.407 308.850,356.302 309.400 C 356.197 309.950,356.287 310.400,356.502 310.400 C 356.717 310.400,356.807 310.850,356.702 311.400 C 356.597 311.950,356.688 312.400,356.905 312.400 C 357.131 312.400,357.197 312.916,357.060 313.600 C 356.911 314.345,356.985 314.800,357.255 314.800 C 357.512 314.800,357.618 315.294,357.515 316.000 C 357.418 316.660,357.510 317.200,357.719 317.200 C 357.930 317.200,357.991 317.744,357.856 318.420 C 357.722 319.091,357.753 319.553,357.924 319.447 C 358.096 319.341,359.186 325.767,360.347 333.727 C 361.508 341.687,362.555 348.740,362.674 349.400 C 362.857 350.419,361.828 349.545,355.867 343.626 C 352.004 339.791,348.953 336.461,349.086 336.226 C 349.219 335.992,349.173 335.942,348.982 336.115 C 348.542 336.517,327.963 315.984,328.284 315.464 C 328.416 315.251,328.350 315.183,328.139 315.314 C 327.642 315.621,315.894 303.840,316.296 303.437 C 316.463 303.270,316.369 303.193,316.087 303.267 C 315.805 303.340,310.945 298.686,305.287 292.924 C 299.629 287.163,295.270 282.663,295.600 282.924 C 296.122 283.338,296.129 283.309,295.655 282.704 C 295.355 282.322,294.984 282.086,294.831 282.181 C 294.677 282.276,278.279 266.080,258.389 246.189 C 238.500 226.299,221.726 209.818,221.114 209.564 C 220.501 209.311,220.000 208.934,220.000 208.728 C 220.000 208.522,219.803 208.475,219.562 208.624 C 219.321 208.773,218.691 208.663,218.162 208.380 C 217.373 207.958,217.020 207.961,216.201 208.400 C 215.651 208.694,215.092 208.825,214.958 208.691 C 214.824 208.558,214.509 208.620,214.257 208.831 C 214.006 209.042,213.174 209.620,212.410 210.116 C 211.645 210.613,210.613 211.645,210.116 212.410 C 209.620 213.174,209.071 213.980,208.895 214.200 C 208.720 214.420,208.642 214.924,208.722 215.319 C 208.801 215.715,208.638 216.314,208.359 216.650 C 207.948 217.145,207.952 217.323,208.380 217.588 C 208.697 217.784,208.830 218.333,208.710 218.957 C 208.601 219.531,208.644 220.000,208.807 220.000 C 208.970 220.000,209.311 220.503,209.566 221.117 C 209.820 221.731,219.551 231.757,231.189 243.396 C 242.827 255.036,252.243 264.731,252.113 264.941 C 251.983 265.151,252.051 265.216,252.264 265.084 C 252.781 264.765,273.310 285.348,272.911 285.786 C 272.740 285.974,272.791 286.020,273.025 285.887 C 273.578 285.573,336.527 348.530,336.114 348.983 C 335.941 349.173,335.991 349.220,336.225 349.087 C 336.628 348.858,358.159 370.033,357.915 370.418 C 357.852 370.518,357.880 370.550,357.977 370.489 C 358.075 370.429,364.645 376.837,372.577 384.729 C 388.424 400.497,388.369 400.455,392.533 399.831 C 399.688 398.758,401.953 391.508,397.263 384.692 C 395.247 381.761,392.469 375.729,391.143 371.400 C 390.469 369.200,389.815 367.130,389.690 366.800 C 389.564 366.470,389.413 365.780,389.352 365.266 C 389.292 364.753,389.018 363.313,388.743 362.066 C 387.436 356.134,387.426 355.668,387.593 307.000 C 387.657 288.550,387.492 284.568,386.202 273.400 C 386.075 272.300,385.922 270.860,385.862 270.200 C 385.802 269.540,385.609 268.685,385.434 268.300 C 385.258 267.915,385.216 267.336,385.340 267.013 C 385.464 266.690,385.375 266.308,385.142 266.164 C 384.910 266.021,384.822 265.392,384.947 264.767 C 385.072 264.142,384.984 263.514,384.752 263.370 C 384.520 263.227,384.419 262.770,384.528 262.355 C 384.636 261.940,384.551 261.493,384.339 261.362 C 384.126 261.231,383.990 260.736,384.036 260.262 C 384.082 259.788,383.980 259.077,383.810 258.683 C 383.640 258.288,383.612 257.855,383.747 257.720 C 383.882 257.584,383.794 257.234,383.552 256.942 C 383.309 256.649,383.213 256.144,383.338 255.818 C 383.463 255.492,383.377 255.110,383.148 254.968 C 382.918 254.826,382.819 254.370,382.928 253.955 C 383.036 253.540,382.941 253.200,382.716 253.200 C 382.491 253.200,382.401 252.840,382.516 252.400 C 382.631 251.961,382.550 251.492,382.335 251.360 C 382.121 251.227,382.054 250.837,382.186 250.492 C 382.319 250.146,382.230 249.742,381.989 249.593 C 381.749 249.445,381.518 248.666,381.476 247.863 C 381.434 247.060,381.244 246.403,381.053 246.402 C 380.863 246.401,380.801 246.040,380.916 245.600 C 381.031 245.160,380.941 244.800,380.716 244.800 C 380.491 244.800,380.401 244.440,380.516 244.000 C 380.631 243.560,380.541 243.200,380.316 243.200 C 380.091 243.200,380.001 242.840,380.116 242.400 C 380.231 241.960,380.143 241.600,379.920 241.600 C 379.697 241.600,379.618 241.330,379.745 241.000 C 379.871 240.670,379.780 240.400,379.541 240.400 C 379.302 240.400,379.201 240.040,379.316 239.600 C 379.431 239.160,379.343 238.800,379.120 238.800 C 378.897 238.800,378.814 238.542,378.935 238.226 C 379.056 237.910,379.022 237.595,378.859 237.526 C 378.696 237.457,377.878 235.240,377.040 232.600 C 374.943 225.995,371.046 215.674,369.270 212.022 C 368.902 211.264,368.645 210.499,368.700 210.322 C 368.755 210.145,368.590 210.000,368.333 210.000 C 368.077 210.000,367.977 209.890,368.111 209.755 C 368.246 209.621,367.784 208.496,367.084 207.255 C 366.383 206.015,365.898 205.000,366.004 205.000 C 366.110 205.000,364.807 202.281,363.107 198.958 C 361.408 195.635,360.133 192.800,360.275 192.658 C 360.417 192.516,360.313 192.400,360.043 192.400 C 359.773 192.400,359.664 192.220,359.800 192.000 C 359.936 191.780,359.873 191.600,359.659 191.600 C 359.446 191.600,358.335 189.845,357.190 187.700 C 356.045 185.555,353.329 180.852,351.154 177.249 C 348.979 173.646,347.200 170.556,347.200 170.382 C 347.200 170.209,347.044 170.007,346.854 169.933 C 346.103 169.644,336.695 154.933,335.050 151.476 C 332.372 145.848,326.412 129.985,325.781 126.805 C 325.715 126.472,325.625 126.155,325.581 126.100 C 325.536 126.045,325.455 125.820,325.400 125.600 C 325.345 125.380,325.256 125.065,325.203 124.900 C 325.149 124.735,325.133 124.446,325.167 124.258 C 325.200 124.070,325.020 123.665,324.765 123.358 C 324.510 123.051,324.436 122.800,324.600 122.800 C 324.764 122.800,324.697 122.558,324.452 122.263 C 324.207 121.968,324.099 121.635,324.211 121.523 C 324.323 121.411,324.155 120.820,323.839 120.210 C 323.522 119.600,323.351 118.871,323.459 118.591 C 323.567 118.310,323.462 117.962,323.227 117.817 C 322.992 117.672,322.800 117.267,322.800 116.918 C 322.800 113.382,315.336 110.041,311.329 111.784 M308.199 156.399 L 316.992 165.199 310.399 171.801 L 303.806 178.403 303.110 177.502 C 302.727 177.006,302.295 176.243,302.150 175.808 C 302.006 175.372,301.576 174.562,301.196 174.008 C 299.198 171.095,297.211 168.000,297.340 168.000 C 297.498 168.000,296.546 166.877,291.796 161.460 L 288.692 157.919 293.840 152.760 C 296.672 149.922,299.083 147.600,299.198 147.600 C 299.313 147.600,303.363 151.560,308.199 156.399 M334.134 182.360 C 340.836 193.299,350.657 211.610,350.113 212.154 C 349.978 212.289,350.087 212.400,350.357 212.400 C 350.627 212.400,350.736 212.580,350.600 212.800 C 350.464 213.020,350.554 213.200,350.800 213.200 C 351.046 213.200,351.145 213.365,351.021 213.566 C 350.897 213.767,350.943 213.992,351.123 214.066 C 351.546 214.239,355.265 222.868,355.022 223.112 C 354.921 223.213,355.110 223.567,355.442 223.899 C 355.774 224.231,355.951 224.750,355.836 225.052 C 355.720 225.353,355.782 225.600,355.973 225.600 C 356.366 225.600,357.304 228.029,357.021 228.312 C 356.920 228.413,357.110 228.767,357.442 229.099 C 357.774 229.431,357.956 229.938,357.845 230.226 C 357.735 230.513,357.795 230.805,357.979 230.874 C 358.706 231.148,365.052 252.487,365.809 257.200 C 365.897 257.750,366.251 259.550,366.595 261.200 C 366.939 262.850,367.297 264.650,367.390 265.200 C 367.483 265.750,367.664 266.740,367.791 267.400 C 367.919 268.060,368.108 269.320,368.211 270.200 C 368.315 271.080,368.492 272.430,368.604 273.200 C 369.096 276.569,369.577 281.040,369.789 284.200 C 369.862 285.300,370.033 287.370,370.169 288.800 C 370.459 291.851,370.093 291.282,368.794 286.661 C 368.309 284.935,367.663 283.045,367.358 282.461 C 367.054 281.878,366.690 280.770,366.550 280.000 C 366.410 279.230,366.117 278.375,365.899 278.100 C 365.681 277.825,365.636 277.600,365.800 277.600 C 365.964 277.600,365.874 277.330,365.600 277.000 C 365.326 276.670,365.236 276.400,365.400 276.400 C 365.564 276.400,365.474 276.130,365.200 275.800 C 364.926 275.470,364.859 275.197,365.051 275.194 C 365.243 275.191,365.193 275.056,364.940 274.894 C 364.687 274.732,364.417 274.240,364.340 273.800 C 364.263 273.360,364.070 272.902,363.910 272.783 C 363.751 272.663,363.556 272.213,363.478 271.783 C 363.400 271.352,363.042 270.370,362.682 269.600 C 360.160 264.207,358.071 259.003,358.280 258.636 C 358.417 258.396,358.402 258.312,358.248 258.449 C 358.094 258.586,356.556 255.976,354.831 252.649 C 351.374 245.983,348.982 241.822,345.861 237.047 C 344.727 235.313,343.857 233.812,343.927 233.711 C 343.996 233.610,343.726 233.279,343.327 232.976 C 342.927 232.673,342.769 232.420,342.976 232.413 C 343.184 232.406,343.004 232.136,342.576 231.813 C 342.149 231.490,341.969 231.220,342.176 231.213 C 342.384 231.206,342.280 230.975,341.946 230.700 C 341.613 230.425,339.622 227.770,337.523 224.800 C 333.348 218.895,329.425 213.791,326.490 210.448 C 325.450 209.264,324.432 208.007,324.227 207.653 C 324.022 207.299,323.549 206.738,323.175 206.405 C 322.802 206.072,320.199 203.217,317.391 200.060 L 312.286 194.321 321.217 185.383 C 326.130 180.467,330.279 176.525,330.439 176.624 C 330.598 176.722,332.261 179.304,334.134 182.360 M94.296 288.797 C 96.328 289.239,98.114 289.600,98.263 289.600 C 98.412 289.600,96.372 291.805,93.731 294.500 C 87.482 300.874,86.634 303.516,89.348 308.147 C 92.997 314.374,98.597 313.894,105.849 306.731 C 110.254 302.380,110.720 302.026,110.929 302.871 C 111.056 303.382,111.532 305.524,111.986 307.631 L 112.814 311.461 102.180 322.231 C 92.952 331.576,91.492 332.904,91.139 332.276 C 90.916 331.877,90.830 331.298,90.949 330.989 C 91.068 330.679,90.990 330.317,90.776 330.185 C 90.562 330.053,90.495 329.769,90.628 329.555 C 90.760 329.340,90.653 328.905,90.390 328.588 C 90.126 328.270,90.013 327.744,90.138 327.418 C 90.263 327.092,90.177 326.710,89.948 326.568 C 89.718 326.426,89.619 325.970,89.728 325.555 C 89.836 325.140,89.754 324.695,89.546 324.567 C 89.338 324.438,89.277 323.988,89.411 323.566 C 89.557 323.106,89.465 322.800,89.180 322.800 C 88.904 322.800,88.794 322.467,88.916 322.000 C 89.031 321.561,88.946 321.090,88.728 320.955 C 88.509 320.820,88.419 320.370,88.528 319.955 C 88.636 319.540,88.550 319.092,88.335 318.960 C 88.121 318.827,88.038 318.479,88.150 318.185 C 88.263 317.892,88.230 317.595,88.078 317.526 C 87.925 317.457,87.330 316.677,86.756 315.793 C 86.182 314.909,85.057 313.833,84.256 313.402 C 83.455 312.971,82.800 312.496,82.800 312.346 C 82.800 312.197,82.440 312.169,82.000 312.284 C 81.560 312.399,81.200 312.309,81.200 312.084 C 81.200 311.859,80.860 311.764,80.445 311.872 C 80.030 311.981,79.580 311.891,79.445 311.672 C 79.310 311.454,78.839 311.369,78.400 311.484 C 77.947 311.603,77.600 311.496,77.600 311.239 C 77.600 310.954,77.227 310.878,76.600 311.036 C 76.025 311.180,75.600 311.114,75.600 310.881 C 75.600 310.658,75.260 310.564,74.845 310.672 C 74.430 310.781,73.980 310.691,73.845 310.472 C 73.710 310.254,73.260 310.164,72.845 310.272 C 72.430 310.381,71.980 310.291,71.845 310.072 C 71.710 309.854,71.239 309.769,70.800 309.884 C 70.335 310.006,70.000 309.896,70.000 309.623 C 70.000 309.364,69.818 309.265,69.596 309.402 C 69.374 309.539,68.810 309.530,68.343 309.382 C 67.144 309.001,88.495 287.520,89.784 287.811 C 90.233 287.912,92.263 288.356,94.296 288.797 " stroke="none" fill="#040404" fill-rule="evenodd"></path></g></svg>